<?xml version="1.0" encoding="utf-8" ?>
<svg baseProfile="full" height="300mm" version="1.1" viewBox="0,0,200,300" width="200mm" xmlns="http://www.w3.org/2000/svg" xmlns:ev="http://www.w3.org/2001/xml-events" xmlns:xlink="http://www.w3.org/1999/xlink"><defs /><rect fill="#222222" height="300" width="200" x="0" y="0" /><text fill="#FFFFFF" style="font-size:12px; font-family:Arial; font-weight:bold;" x="10" y="20">MY TRACKS</text><text fill="#FFFFFF" style="font-size:4px; font-family:Arial" x="10" y="280">ATHLETE</text><text fill="#FFFFFF" style="font-size:9px; font-family:Arial" x="10" y="290">John Doe</text><text fill="#FFFFFF" style="font-size:4px; font-family:Arial" x="120" y="280">STATISTICS</text><text fill="#FFFFFF" style="font-size:3px; font-family:Arial" x="120" y="285">Number: 11</text><text fill="#FFFFFF" style="font-size:3px; font-family:Arial" x="120" y="290">Weekly: 1.4</text><text fill="#FFFFFF" style="font-size:3px; font-family:Arial" x="141" y="285">Total: 35.3 km</text><text fill="#FFFFFF" style="font-size:3px; font-family:Arial" x="141" y="290">Avg: 3.2 km</text><text fill="#FFFFFF" style="font-size:3px; font-family:Arial" x="167" y="285">Min: 1.0 km</text><text fill="#FFFFFF" style="font-size:3px; font-family:Arial" x="167" y="290">Max: 12.8 km</text><polyline fill="none" points="14.528301886748523,82.57061077549588 13.0,80.20724331558449 13.87331536412239,76.18950686312746 17.803234501741827,71.69907799368957 24.86253369273618,67.83886995515786 26.463611859828234,64.76644969615154 28.06469002692029,58.93670537660364 27.409703503828496,55.70669846609235 31.26684636157006,41.44728515530005 37.59838274912909,37.03549514623592 52.008086253888905,39.95042983442545 54.919137466233224,42.07753941172268 56.22911051195115,45.46514978969935 61.5417789760977,48.53762450674549 63.57951482478529,54.367424498312175 67.0,57.8337772647501 63.43396226409823,74.06246391718742 58.485175202135,82.96450485376408" stroke="#4dd2ff" stroke-linecap="round" stroke-linejoin="round" stroke-width="0.5"><title>2021-03-10 1.7km</title></polyline><polyline fill="none" points="77.26506668701768,87.0 75.49924662383273,79.6408378657652 78.14797671837732,76.29575061786454 88.47802408784628,68.84095428243745 91.12675418285653,61.386115882894956 90.95017217611894,55.747171713621356 94.3935212995857,42.74883583956398 99.07294446695596,35.86731212725863 101.98654757114127,33.47788578667678 106.66597073851153,33.0 121.2339862594381,36.4407738057198 124.50075337616727,38.83019478677306" stroke="#4dd2ff" stroke-linecap="round" stroke-linejoin="round" stroke-width="0.5"><title>2021-03-03 1.0km</title></polyline><polyline fill="none" points="135.30358368973248,77.11288347508525 134.81176316575147,71.40873549628304 135.93592436332256,67.91017609176924 143.94557289639488,63.042595815088134 146.755975890439,58.859501009690575 148.0909173125401,54.5242761032423 147.80987701308914,50.797489525866695 151.74444120493717,36.65079164708732 159.54330951347947,33.0 171.55778231285512,36.042327253031544 175.21130620525219,40.52974387956783 180.27003159420565,44.25656685658032 182.30757376505062,49.80874801246682 185.18823683424853,53.30736765317852 181.95627339091152,68.82284488482401 178.30274949851446,74.83122799714329 176.1949472532142,82.66489112266572 173.73584463330917,83.72965636249864 166.70983714819886,83.57754710846348 162.91579310619272,87.0" stroke="#4dd2ff" stroke-linecap="round" stroke-linejoin="round" stroke-width="0.5"><title>2021-01-04 2.0km</title></polyline><polyline fill="none" points="13.0,144.69684855348896 13.0,137.76763675012626 15.8723404253833,134.214179634233 22.930091185495257,130.03885438444559 26.21276595722884,124.35328228131402 27.85410334356129,119.64489795744885 27.197568389121443,115.38068525504787 30.80851063830778,101.34421384672169 36.96352583589032,96.90225909184664 42.46200607903302,95.30315144651104 56.49544072942808,99.30091665545478 59.03951367782429,104.00937898654956 64.1276595746167,106.85221542615909 67.0,113.8704397053225" stroke="#4dd2ff" stroke-linecap="round" stroke-linejoin="round" stroke-width="0.5"><title>2020-12-29 1.2km</title></polyline><polyline fill="none" points="79.52135493373498,144.40651042119134 74.1134020620957,141.56559582729824 73.0,137.00290062080603 75.94256259175017,132.35409883467946 81.50957290129736,129.68533404904883 84.21354933734983,126.75829482183326 86.83799705468118,118.66585478547495 86.36082474235445,113.15607688843738 88.9852724596858,102.73908334015869 90.89396170852706,99.38152053148951 94.15463917516172,97.57359817204997 102.10751104541123,95.59348957880866 112.20765832159668,97.74578137218487 115.38880706951022,99.98416070779786 117.21796759963036,103.85826883779373 121.75110456580296,106.09663667483255 124.5346097201109,114.01698136655614 127.0,117.4605930504622 125.8865979379043,129.857512602699" stroke="#4dd2ff" stroke-linecap="round" stroke-linejoin="round" stroke-width="0.5"><title>2020-12-28 1.5km</title></polyline><polyline fill="none" points="176.95580110501032,107.03032630411326 181.80883977899794,109.85039797454374 183.99668508279137,112.95029328175588 184.03646408836357,114.9092382658273 185.36906077340245,116.1793165919953 186.02541436464526,116.41611025732709 187.0,117.85839488173951 185.44861878454685,120.78599593209219 184.27513812156394,120.18325689103222 183.8574585635215,120.52767934952863 183.8773480663076,121.36720742401667 182.92265193373896,120.9582068627351 182.96243093919475,122.2282594020071 184.01657458557747,122.93862541057752 183.65856353589334,123.49830652747187 182.0475138121983,123.90730360196903 181.01325966848526,123.75662053460837 180.37679558002856,124.12256499461364 179.89944751386065,125.13429145683767 179.24309392261785,125.22039567795582 179.06408839777578,125.47870819206582 179.32265193364583,125.56481231370708 178.944751381292,125.26344777917257 178.06961325963493,125.3064998741902 177.29392265190836,125.80159851984354 177.0353591159219,127.63130376802292 176.23977900552563,128.7291215240839 176.37900552491192,129.6977808912634 176.4585635359399,129.48252352621057 176.10055248613935,129.33184327816707 175.7624309392413,129.7193066192267 174.40994475129992,128.44928600959247 172.89834254141897,128.599966703885 170.2331491712248,127.91114005068084 168.02541436452884,127.91114005068084 167.36906077351887,128.66454412098392 166.73259668506216,128.599966703885 165.65856353589334,130.34355205338215 165.2408839778509,129.82693523564376 164.48508287291043,129.99914094110136 163.55027624301147,131.46288541940157 163.3911602209555,132.66831665011705 162.8939226520015,132.96967369588674 162.05856353591662,132.51763801291236 160.3480662982911,132.47458695972455 159.1546961326385,131.979499401059 158.3988950275816,132.1301783103263 157.88176795572508,131.54898781189695 155.87292817689013,131.37678300205152 154.56022099452093,130.51575746029266 152.96906077349558,130.40812909265514 151.09944751381408,129.50404926974443 148.87182320433203,129.05200832965784 148.17569060774986,128.556915084715 148.67292817670386,127.88961419212865 148.21546961332206,127.09315633188817 147.32044198887888,127.48062258388381 146.26629834249616,126.74874146273942 145.4110497237416,127.0716304142843 145.01325966848526,125.86617654340807 144.53591160220094,125.392604045599 143.04419889498968,126.2966963428189 142.60662983427756,125.69396844942821 142.2287292816909,125.65091641043546 141.83093922643457,126.49043004959822 140.79668508283794,126.98552672806545 140.4585635359399,127.97571761711151 138.31049723760225,127.41604491020553 136.7591160221491,127.56672612699913 135.18784530379344,125.93075455297367 134.2530386740109,126.1244884976768 134.03425414359663,126.53348196737352 133.05966850824188,125.90922855131794 133.0,126.83484521735227 133.27845303865615,126.44737812568201 133.5370165745262,126.66263768324279 134.2132596685551,128.08334686327726" stroke="#4dd2ff" stroke-linecap="round" stroke-linejoin="round" stroke-width="0.5"><title>2020-12-19 3.7km</title></polyline><polyline fill="none" points="57.61082809633808,153.0 57.894950087647885,153.81614483863814 58.15065987990238,153.81614483863814 58.02754035027465,154.01155876775738 58.43478187121218,153.60923553778412 58.43478187121218,154.29893146836548 57.80971349024912,155.17253918202914 57.12782071105903,156.94271984761872 56.284925470128655,157.97722586515738 56.55957672838122,159.16114681548788 57.13729144411627,160.26459393983532 56.58798892755294,160.52895959201123 56.18074740661541,161.20711162329826 56.01974494487513,162.9656868901584 55.688269288337324,163.7127842559712 55.6598570891656,164.01162157044018 55.83980101702036,164.0001278448035 55.214732636057306,164.574812436098 55.04425944131799,165.98852185490978 54.37183739512693,166.99994343046274 54.665430119493976,168.33316464279778 54.94955211080378,168.56302849339409 55.375735097855795,168.52854895099154 55.925037614419125,168.82737123961124 56.436457198811695,169.6433812018222 56.398574266640935,170.01115806699818 56.64481332577998,170.32146869860298 56.26598400401417,170.85014375549508 56.673225524893496,171.28687312336842 56.45539866492618,172.25226781808306 56.45539866492618,172.4361514186603 56.64481332577998,172.309731481153 56.26598400401417,173.36705672971584 56.44592793186894,173.71183417878638 56.161805940559134,174.49332513559784 56.000803478760645,176.25165647837275 56.25651327101514,176.74582222237223 56.5785181944957,178.17084404684283 56.55010599538218,179.1016936316737 56.73004992317874,179.63032023345295 56.5311645292677,179.9980587577811 56.597459660551976,180.15894391830807 56.8626401858055,179.9980587577811 56.89105238491902,180.1244685495185 56.70163772406522,180.06700957395515 56.61640112666646,180.40027115254634 56.56904746143846,182.41130779810192 56.161805940559134,182.91693322806532 56.25651327101514,183.04333916863106 56.09551080921665,183.62940089583572 56.161805940559134,184.31888069122942 56.25651327101514,184.23844163743343 56.076569343102165,184.7555486620622 56.398574266640935,186.2149245459659 56.17127667355817,186.41027238689276 56.114452275272924,186.78947588241863 55.754564419563394,187.08824121586076 56.123923008330166,187.60533286077407 55.90609614836285,187.29507820871368 55.95344981353264,187.4674420283045 55.640915623051114,187.31806006922125 55.773505885736085,187.37551469644677 55.925037614419125,188.49012764734653 56.08604007615941,188.50161843500246 56.37963280052645,188.94975807829906 56.55957672838122,188.74292465721373 56.56904746143846,188.89230439499806 56.77740358840674,188.8578321684763 56.6258718597237,189.04168389992992 56.70163772406522,189.69665282637288 56.55957672838122,189.75410602735792 56.80581578757847,189.86901232608216 56.60693039360922,189.82304982312053 56.76793285540771,190.36310784045054 57.46876710065408,190.73080517449125 57.582415897224564,190.05286211741623 58.179072079015896,190.39757952545915 58.28325014247093,190.1562774700651 58.5105477355537,190.93763430484978 59.154557582573034,190.868691310985 59.29661857825704,191.24787716337596 59.46709177305456,190.868691310985 59.68491863308009,191.66153274564567 60.309987014043145,191.68451355893922 60.44257727666991,191.55811901747802 60.28157481487142,191.61557110245485 60.584638272295706,191.6730231529873 60.68881633580895,191.51215732467972 60.21527968358714,191.69600396355963 60.10163088707486,191.54662859632663 60.28157481487142,191.50066689802043 60.196338217530865,191.35129122631042 59.2871478451998,191.17893439271575 60.33839921315666,191.28234853009053 59.91221622610465,190.98359627316677 59.675447900022846,191.0180677349781 59.874333293992095,190.83421979543346 59.599682035681326,190.74229569342424 59.65650643396657,190.09882451013254 59.675447900022846,190.30565500456578 60.08268942096038,190.0873339140453 59.88380402704934,189.01870245275495 60.158455285360105,188.67398008429154 60.12057235313114,188.38671049654658 60.2058089505299,188.53609078965383 60.55622607318219,188.49012764734653 61.143411521974485,189.2370259780364 61.28547251760028,189.35193289682502 61.43700424634153,189.22553527857235 61.408592047169805,189.4093863044909 61.46541644545505,189.0646653415315 61.294943250657525,188.82335992957815 61.46541644545505,188.7199431384288 61.38965058111353,188.8003784300672 61.35176764894277,188.61652623565897 61.38965058111353,188.94975807829906 61.19076518714428,188.93826734438335 61.32335544977104,188.94975807829906 61.294943250657525,188.22583915123687 61.730596970708575,187.86962306837086 61.59800670808181,187.68576908807154 61.91054089850513,188.26031160514685 61.59800670808181,188.03049501171336 61.61694817413809,187.15718692976225 61.493828644626774,187.2146416534306 61.455945712397806,188.26031160514685 61.22864811931504,188.9612488108105 61.31388471677201,189.61621828702482 61.50329937762581,189.85752170240448 61.531711576797534,192.19009005784028 61.7116555046523,192.36244507280935 61.68324330548057,192.95994005804096 62.65872880903771,193.92511639559234 62.87655566906324,194.92475306908455 62.677670275152195,195.0971031657973 62.8670849360642,195.22349303973897 62.592433677753434,195.29243290074373 62.601904410810675,195.47627228759666 62.34619461855618,195.59117172531842 62.33672388555715,196.7401585259795 62.15677995770238,197.01591330845258 62.14730922464514,197.57891019240196 61.78742136899382,198.11892450424057 61.730596970708575,198.50957125867717 61.50329937762581,198.67042534182838 61.143411521974485,201.39341421212885 61.36123838200001,201.8070260069071 61.55065304291202,201.1521398408804 61.531711576797534,201.29001098455046 61.70218477159506,201.1521398408804 61.92001163162058,201.57724189681176 62.21360435598763,201.33596798832878 61.79689210199285,201.50830655636673 61.93895309767686,202.43892946930282 62.20413362298859,202.74913509906764 62.40301901684143,203.56485622342734 62.70608247432392,203.72570182294294 62.97126299951924,203.6337900848157 62.715553207322955,203.78314661449986 62.80078980472172,203.90952503477456 62.61137514380971,203.9899475791026 62.46931414818391,204.54141463669657 61.97683602984762,205.03543451506266 61.34229691582732,203.93250291144795 61.171823721088,203.96696971614438 61.020291992346756,204.25419260677154 61.20023592025973,204.41503704956995 60.96346759411972,204.48397029959597 60.75511146709323,205.24223277794226 60.31945774710039,205.3341429737775 60.40469434444094,205.75922648330015 60.64146267058095,205.55242933576665 60.16792601835914,205.0699009231903 60.12057235313114,204.38057040598505 60.508872407954186,205.01245690276846 60.470989475783426,205.51796310113423 60.08268942096038,204.52992577203258 59.637564967852086,204.25419260677154 59.62809423485305,204.07037005593884 59.362913709599525,204.15079246530513 59.49550397222629,204.25419260677154 58.80414045997895,204.01292543648742 58.77572826080723,204.87459111327917 57.92336228681961,205.03543451506266 57.5445329649956,204.49545916976786 57.31723537197104,204.50694803858642 56.711108457122464,203.8635692648386 57.118349978059996,204.00143650847167 57.05205484671751,203.00189449956815 57.5918866302236,203.11678491581551 57.67712322762236,202.737646019581 57.857067155477125,202.74913509906764 57.79077202419285,202.45041858461627 56.33227913535666,203.3695433468747 47.96962185704615,204.46099255506124 46.35959723946871,204.94352403278754 46.009180116816424,204.82863580605044 44.1434457070427,204.96650166162726 36.58580073749181,206.03495531938825 35.506137170421425,206.0579326865991 35.420900573022664,206.21877410282468 20.9212082818849,206.95404571172548 17.07609066576697,206.4715243544706 17.322329724906012,206.75873974065325 17.881102974526584,207.0 18.231520097178873,206.5404561256437 17.615922449331265,206.98851143000502 17.40756632236298,206.63236507674446 17.189739462337457,206.68980812645896 17.303388258849736,206.44854708639468 17.028737000538968,205.66731669504225" stroke="#ffff00" stroke-linecap="round" stroke-linejoin="round" stroke-width="0.5"><title>2020-11-14 12.8km</title></polyline><polyline fill="none" points="74.04845009418204,198.416365665209 73.8321871785447,191.0031719590188 76.85986800072715,188.11591431027045 83.70819367002696,184.4483056134195 86.88004976976663,179.84426853363402 88.82641601283103,167.28060974454274 92.6470608599484,156.58967925637262 100.28835055418313,153.0 111.822372734081,155.65324234141735 115.85928049730137,160.64756316010607 119.67992534441873,162.52042750484543 126.16781282098964,172.9771936639445 123.14013199834153,189.36445910675684 119.53575006732717,193.42221971513936 116.5801568836905,202.16195995541057 112.038635650184,203.80065336806 104.90195942623541,203.02032348199282 99.92791236098856,206.06360684591345 92.21453502820805,207.0 83.78028130857274,206.21967242792016 81.68973978888243,204.26885102887172 79.8875488229096,204.97114713897463 76.21107925334945,199.82096504798392" stroke="#4dd2ff" stroke-linecap="round" stroke-linejoin="round" stroke-width="0.5"><title>2020-09-29 2.4km</title></polyline><polyline fill="none" points="171.56488549662754,185.6523843323812 171.19847328262404,184.8591136012692 154.84732824447565,185.00785193336196 153.29007633589208,184.51205736777047 153.1984732823912,177.02551583235618 155.03053435124457,169.88595633220393 157.27480916050263,166.76237566233613 159.88549618329853,165.07662779826205 162.5419847331941,164.77914245071588 169.00000000023283,166.46489104646025 171.47328244289383,169.48931195691694 173.80916030565277,170.58008343656547 175.18320610723458,173.85238745907554 175.45801526750438,172.3153981216019 176.6030534352176,172.51371952024056 180.5419847331941,162.59757928870386 182.92366412235424,159.37480281869648 184.43511450407095,179.30619277618825 187.0,179.15745320683345 186.5419847331941,180.2482092991704 184.29770992393605,181.23980424035108 183.8396946566645,182.38013664924074 179.67175572551787,183.76836484699743 178.57251908420585,185.30532850051532 175.3664122140035,187.33808158751344 172.57251908420585,190.80862170591718 168.5419847331941,192.09767498855945 166.43511450407095,191.70104346756125 166.02290076343343,190.75904268503655 161.67175572551787,190.9573587467312 159.10687022912316,192.29599066311494 157.45801526750438,194.32872301834868 156.679389313329,198.5429050399689 155.580152672017,199.48489512555534 149.80916030541994,198.69164040271426 147.61068702302873,199.08826787874568 146.09923664154485,200.22857059445232 141.70229007629678,200.6251971812453 139.0,199.78236540983198 136.02290076343343,200.0302572149667 134.053435114678,198.3941696449765 133.0,198.59248349774862" stroke="#4dd2ff" stroke-linecap="round" stroke-linejoin="round" stroke-width="0.5"><title>2020-09-28 3.7km</title></polyline><polyline fill="none" points="16.345953927841038,261.0345670625684 15.487108079716563,250.4206626760424 18.636209523770958,246.2370510243927 22.14316340442747,244.37766282219673 25.14912387309596,241.12372570083244 30.087487501092255,218.5783183646272 32.16303163440898,216.02159272128483 38.46123452205211,213.0 50.986069809645414,215.78916281485 54.77930563967675,220.67018025933066 59.50295780552551,223.69175133784302 60.934367552399635,226.2484586678911 60.43337414087728,227.33312053966802 64.51289192028344,233.68611801206134 61.72164291376248,250.18824023520574 57.7852661088109,255.45646984135965 56.210715387016535,262.19666699378286 53.920459791552275,263.8236047793762 44.115303023252636,263.0488728087512 39.892644269391894,265.5280131420586 31.948320172727108,267.0 26.437392645981163,265.6829592223512 23.216720714699477,266.302743319422 20.711753657087684,264.36591682530707 18.922491473145783,264.9857016844908" stroke="#4dd2ff" stroke-linecap="round" stroke-linejoin="round" stroke-width="0.5"><title>2020-09-27 2.4km</title></polyline><polyline fill="none" points="78.8277227722574,254.64276349998545 87.54257425758988,247.63984188385075 73.0,249.8969886029954 84.01386138610542,244.63030301913386 86.79405940580182,242.14163732982706 88.23762376233935,238.09030453232117 88.39801980182528,233.28655477281427 90.96435643546283,225.5310424756026 93.79801980196498,222.0584006581339 96.47128712851554,221.19023784820456 100.4277227721177,221.5953806100879 105.4000000001397,222.98443995014532 109.03564356430434,226.7464635501383 111.6554455445148,227.67249741521664 114.16831683157943,233.4601847846643 116.30693069286644,235.6016184987966 122.13465346535668,237.6272937633912 125.28910891083069,237.80092283315025 127.0,239.07420152658597 125.18217821791768,244.10942014335888 125.77029702952132,248.68160269921646 121.01188118802384,247.75559315242572 118.92673267330974,249.26035812176997 119.51485148514621,248.79735381732462 117.16237623756751,247.46621494926512 114.22178217815235,247.63984188385075 110.53267326718196,251.22812342678662 110.53267326718196,253.94826161471428 109.03564356430434,258.23101363680325 107.21782178198919,258.80976215185365 100.90891089104116,257.88376432680525 99.62574257422239,258.63613764120964" stroke="#4dd2ff" stroke-linecap="round" stroke-linejoin="round" stroke-width="0.5"><title>2020-09-23 2.9km</title></polyline></svg>