<?xml version="1.0" encoding="utf-8" ?>
<svg baseProfile="full" height="300mm" version="1.1" viewBox="0,0,200,300" width="200mm" xmlns="http://www.w3.org/2000/svg" xmlns:ev="http://www.w3.org/2001/xml-events" xmlns:xlink="http://www.w3.org/1999/xlink"><defs /><rect fill="#222222" height="300" width="200" x="0" y="0" /><text fill="#FFFFFF" style="font-size:12px; font-family:Arial; font-weight:bold;" x="10" y="20">TITLE_GRID</text><text fill="#FFFFFF" style="font-size:4px; font-family:Arial" x="10" y="280">ATHLETE</text><text fill="#FFFFFF" style="font-size:9px; font-family:Arial" x="10" y="290">ATHLETE</text><text fill="#FFFFFF" style="font-size:4px; font-family:Arial" x="120" y="280">STATISTICS</text><text fill="#FFFFFF" style="font-size:3px; font-family:Arial" x="120" y="285">Number: 8</text><text fill="#FFFFFF" style="font-size:3px; font-family:Arial" x="120" y="290">Weekly: 1.0</text><text fill="#FFFFFF" style="font-size:3px; font-family:Arial" x="141" y="285">Total: 211.1 km</text><text fill="#FFFFFF" style="font-size:3px; font-family:Arial" x="141" y="290">Avg: 26.4 km</text><text fill="#FFFFFF" style="font-size:3px; font-family:Arial" x="167" y="285">Min: 11.6 km</text><text fill="#FFFFFF" style="font-size:3px; font-family:Arial" x="167" y="290">Max: 115.6 km</text><polyline fill="none" points="31.671697133628186,54.61901464124094 31.32662004273152,54.604641080411966 31.300075651088264,54.07281859703653 30.91518197278492,54.17343377096404 30.556832686183043,54.17343377096404 30.052489245601464,53.857214480798575 29.495057021907996,53.15290606561757 29.176524322654586,52.98042199034535 28.990713581384625,52.750442989650765 28.8181750359945,52.14674684245256 29.083618952019606,51.399310968015925 29.189796518476214,50.68061996725737 29.04380236461293,49.947552459852886 28.8181750359945,49.674448184945504 28.60581990313949,49.73194385303941 28.566003315732814,49.947552459852886 28.39346477028448,50.00504804868251 28.260742812242825,50.364395100739785 27.955482308752835,50.62312457454391 27.849304742354434,50.33564736059634 27.636949609499425,50.35002123117738 27.530772043101024,50.19190859713126 26.946795427706093,49.91880465915892 26.614990532689262,49.933178560007946 26.442451987299137,49.789439504471375 26.070830504759215,49.80381341475004 25.685936826455873,49.70319602111704 25.194865581812337,49.156986420828616 24.000367959437426,48.510157314362004 22.553698616975453,48.15080689797469 21.71755028143525,48.222677033394575 21.57155612751376,48.30892116151517 21.02739609964192,48.107684804170276 20.7088634003303,46.555283174544456 20.815040966728702,45.85094879247481 20.761952183558606,45.721580980563886 21.067212687048595,44.873501009715255 21.053940491226967,44.586015449560364 20.894674141542055,44.31290378086851 20.907946337363683,43.996668746491196 20.73540779191535,43.579812702315394 20.430147288483568,43.33544840637478 19.79308188991854,42.47298377499101 19.76653749833349,42.32923930454126 19.38164382003015,42.099247934806044 19.27546625363175,41.869256297897664 18.42604572221171,41.40927222267783 18.558767680253368,41.40927222267783 18.465862309618387,41.10740709261154 18.611856463481672,40.963661630798015 18.572039876074996,40.64742124755867 18.757850617344957,40.359929551777896 18.917116966913454,40.31680576139479 19.341827232565265,40.474926280163345 20.111614589230157,40.431802514824085 20.682319008745253,40.546799201503745 21.107029274397064,40.331180359222344 22.19534933025716,40.07243743854633 22.938592295220587,40.12993589458347 23.42966353992233,39.9718151003035 23.801285022462253,40.187434333900455 24.04018454690231,40.44617710431339 24.597616770653985,40.57554836272902 25.287770952330902,41.00678528030403 26.548629553697538,40.60429751982156 26.694623707502615,40.431802514824085 26.86716225289274,39.9718151003035 26.82734566554427,39.25308262568433 27.03970079839928,38.749968341056956 26.880434448714368,38.24685277798562 26.999884210992604,37.93060805540881 27.026428602519445,37.36999116941297 27.14587836479768,37.197493346611736 28.061659875209443,37.67186199755815 28.83144723175792,37.45624002441764 29.919767287676223,37.62873762170784 30.2781165742781,37.94498282649147 30.67628244840307,38.16060426736658 30.90190977707971,38.43372442209511 31.724785916798282,38.764343052651384 31.95041324547492,38.764343052651384 32.414940098591615,39.51182661707571 33.21127184678335,39.35370532918023 33.70234309148509,39.368079996915185 33.60943772085011,38.80746718114824 33.330721609061584,38.548722269246355 33.251088434190024,38.18935377510206 33.15818306355504,37.45624002441764 33.41035478381673,37.05374504618521 33.42362697958015,36.7662481321895 33.18472745514009,36.378126636045636 33.09182208456332,35.630631240361254 33.38381039217347,35.21375758229988 33.71561528724851,34.2506323257403 33.68907089566346,33.876880964191514 33.768704070476815,33.44562851636147 34.392497273220215,33.014375129088876 34.94992949697189,33.0 35.38791195844533,33.20125171224936 36.01170516124694,33.80500562148518 36.74167593033053,34.15000702859834 37.484918895352166,34.2506323257403 38.015806727460586,34.68188301991904 38.61305553861894,34.85438303455885 38.94486043363577,35.08438282024872 39.48902046162402,35.012507915947936 39.674831202835776,35.055632861636695 40.72333467123099,35.4725068527041 41.32058348233113,35.55875653437397 41.97092107671779,35.8175053538871 42.64780306268949,35.745630715740845 43.749395314313006,35.8175053538871 44.13428899261635,36.335001978382934 44.24046655901475,37.12561920944427 44.42627730028471,37.31249191182724 44.93062074080808,37.571238439311855 45.11643148207804,37.78686028726224 45.54114174778806,38.49122335400898 45.819857859634794,39.12371050314687 45.939307621796615,39.82806881409488 46.09857397148153,40.144310505958856 46.16493495047325,40.15868511631561 46.17820714629488,39.84244344738545 46.48346764978487,40.31680576139479 47.13380524411332,40.690544965909794 47.3328881811467,41.10740709261154 47.70450966368662,41.294276036918745 47.73105405527167,41.653638895688346 47.86377601325512,41.84050732450851 48.56720239087008,42.070498994755326 48.726468740496784,42.013001102241105 48.96536826493684,41.725511389173334 49.549344880273566,41.898005267139524 49.53607268445194,42.056124523238395 49.151179006148595,42.19986919192888 49.05827363557182,42.35798820697528 49.11136241874192,42.80359566102561 49.52280048863031,43.10545820533298 49.668794642493594,43.694807560779736 50.01387173333205,43.881674063333776 50.690753719361965,43.867299723264296 51.56671864230884,44.255406539465184 52.01797329960391,44.183534964191495 52.40286697790725,44.643512594964704 53.59736460016575,45.390973966248566 53.716814362443984,45.692832566433935 53.69026997080073,46.1528066915198 53.34519287996227,46.39716751089145 52.81430504779564,46.54090902849566 53.398281663132366,46.6271538889996 54.022074865875766,46.41154166734486 54.07516364904586,46.469038282724796 53.411553858953994,46.94338472277741 53.106293355464004,47.04400351854565 53.06647676805733,47.18774456666142 53.15938213869231,47.331485510469065 53.35846507572569,47.3602336866752 53.67699777503731,47.058377628054586 54.08843584486749,46.799643497302895 55.04403394268593,46.785269368992886 55.36256664193934,46.44028997713758 55.508560795744415,46.69902457734861 55.64128275384428,46.770895239693346 56.26507595658768,46.799643497302895 57.08795209636446,47.029629407974426 57.43302918726113,47.04400351854565 57.73828969069291,46.95775883962051 58.176272152224556,47.1158740556275 58.78679315914633,47.202118665736634 59.2380478164996,46.88588824507315 59.450402949296404,46.94338472277741 59.516763928346336,47.17337046652392 59.3973141660681,47.73395959807385 59.60966929892311,48.1651809271425 59.530036124109756,48.32329517918697 58.45498826407129,47.76270771588315 58.12318336899625,47.76270771588315 57.55247894942295,48.05018866453611 57.021591117372736,47.73395959807385 56.30489254393615,47.50397450529272 55.85363788664108,47.51834858143411 55.588193970615976,47.64771521955845 55.30947785876924,47.99269250816724 55.00421735533746,48.61077531411138 54.83167880988913,49.645700344626675 55.070578334329184,50.177534715025104 55.482016404217575,50.493759879886056 55.77400471182773,51.1405825081456 55.72091592865763,51.54304885522288 55.389111033582594,51.8017767893034 55.282933467125986,52.01738314292743 55.32275005453266,52.11799936096941 55.614738362201024,52.26173672665027 55.707643732836004,52.43422142774216 55.66782714542933,53.440379190593376 55.90672666992759,53.74222552284482 56.225259369181,53.88596170984965 56.517247676849365,54.27404889379977 56.82250818028115,55.43830588363926 57.671928711701185,55.768896127148764 58.401899480842985,56.545062356832204 58.68061559274793,57.623065964027774 59.26459220802644,58.859169547286 59.26459220802644,59.08914145598828 59.06550927105127,59.33348631650733 58.86642633401789,59.82217513344949 58.49480485141976,60.095265417869086 58.37535508925794,60.10963858032483 58.37535508925794,60.181504376843804 58.587710222112946,60.339609037473565 59.06550927105127,60.296489597079926 59.67603027791483,60.36835532585974 59.87511321500642,60.46896730232402 59.9680185856414,60.82829537263024 59.423858557711355,61.27386127471982 59.848568823363166,61.920648704399355 59.60966929892311,62.27997414187121 59.8087522360147,62.27997414187121 60.18037371849641,61.94939476336003 60.5387230051565,61.76254530544975 60.71126155060483,61.73379921937885 61.01652205409482,61.83441050242982 61.25542157853488,61.67630703464965 61.44123231974663,61.67630703464965 61.46777671138989,62.03563291528553 61.57395427778829,62.73990975090419 61.02979424985824,63.70289647436584 60.60508398420643,64.09096442791633 59.8087522360147,65.60011035547359 59.118598054221366,66.69243738004297 59.145142445806414,67.68415012148034 58.906242921366356,68.21593606901297 58.54789363470627,68.58962263788271 57.73828969069291,69.04954360135889 56.71633061388275,70.5442793610855 56.238531564944424,71.73718538795947 56.02617643214762,73.23190087685362 55.78727690764936,73.3325063221564 55.45547201263253,73.36125072573486 55.389111033582594,73.44748391139728 55.42892762098927,74.05111516060424 55.5483773832093,74.4247907269164 56.07926521531772,75.22962801532412 56.72960280964617,76.3937618823984 56.928685746737756,76.35064593517745 57.24721844593296,76.55185360863106 57.671928711701185,77.11235962202772 58.16299995640293,77.39979798841523 58.813337550731376,78.11839208082529 58.892970725602936,78.31959795991133 58.85315413813805,78.72200910528773 58.95933170459466,80.08732654650521 58.892970725602936,80.6909375754185 58.76024876756128,80.6909375754185 58.720432180096395,80.14481339033227 58.53462143888464,79.61305944863125 58.21608873963123,79.51245719110011 57.31357942498289,79.45497016387526 57.10122429212788,79.51245719110011 57.00831892155111,78.98070155308233 56.517247676849365,78.95195796445478 56.344709131342825,78.83698356819514 56.33143693563761,78.60703457570344 56.76941939711105,77.98904533647874 56.90214135515271,77.50040131820424 56.835780376102775,76.56622557750961 56.61015304742614,76.35064593517745 55.66782714542933,76.22129803722783 53.809719733020756,76.49436572277045 53.43809825053904,76.4512497974356 53.03993237641407,76.55185360863106 52.60194991494063,76.56622557750961 52.057789887010586,76.72431716619758 50.94292543956544,76.89678057367564 50.5580317612621,77.25607885733189 49.496256096987054,77.0117560953222 48.421208237006795,77.0117560953222 47.46561013918836,77.1698473286524 47.31961598538328,77.24170693851192 47.23998281056993,77.41416989579739 46.52328423719155,77.7303515944659 46.07202957989648,77.67286405041523 45.740224684763234,77.7734672415827 45.34205881069647,77.71597971001756 44.37318851711461,77.7303515944659 43.16541869897628,77.80221100112249 42.79379721649457,77.54351701530686 41.984193272539414,77.1842192526965 41.90456009772606,77.1842192526965 41.81165472709108,77.3279384359048 41.148044936941005,77.14110347740643 40.829512237687595,77.14110347740643 40.11281366436742,76.75306107784854 39.48902046162402,76.52310966780351 38.427244797348976,75.77576574267005 38.06889551063068,75.6033013597771 37.65745744074229,75.56018524058163 36.94075886736391,75.17213974599144 36.71513153874548,75.14339560507506 36.42314323113533,75.27274420642061 35.945344182197005,75.67516153753968 35.14901243400527,76.03446203560452 34.77739095146535,76.3362739506847 33.861609441111796,76.5087376957963 33.19799965096172,76.75306107784854 32.083135203516576,76.8392927878449 31.63188054622151,77.06924383113801 31.10099271411309,77.80221100112249 30.769187818979844,78.79386815241014 30.211755595286377,79.19627833500272 29.787045329576358,79.39748311994481 29.521601413493045,79.6561746862426 29.33579067228129,80.00109624949982 29.163252126891166,80.74842424421513 28.473097945097834,81.59635067272757 28.20765402901452,82.48738809621136 27.17242275638273,84.18322245094168 27.26532812701771,84.49939335338422 27.87584913399769,84.77244963610428 28.420009161811322,85.21796171105234 28.765086252707988,85.27544706713525 29.136707735189702,85.21796171105234 29.428696042916272,85.31856107329077 29.97285607078811,86.12335413368419 30.755915623216424,86.8850302711653 31.10099271411309,87.0 31.4195254133665,86.97125757407048 32.189312769973185,86.59760565737088" stroke="#4dd2ff" stroke-linecap="round" stroke-linejoin="round" stroke-width="0.5"><title>2024-02-24 15.8km</title><desc>10824240492</desc></polyline><polyline fill="none" points="133.96782077400712,52.19189705203462 133.84684317721985,52.1681266012165 133.57189409370767,52.286978821255616 133.41792260692455,52.286978821255616 133.20896130352048,52.20378227613401 133.09898167004576,51.954192390985554 133.0,52.23943794341176 133.35193482687464,52.738616482311045 133.71486761717824,52.80992757977219 133.95682281063637,53.04763101701974 134.16578411409864,53.13082713972835 134.2427698574611,53.93901587912114 134.3527494908776,54.15294753470516 134.31975560082356,54.43818931389251 134.46272912429413,54.80662588754785 134.39674134424422,55.19883166538784 134.79266802448547,55.2820267114148 134.84765784122283,55.40087670493813 134.83665987785207,55.579151535916026 135.02362525463104,55.69800131699594 135.1446028513601,56.13774476820254 135.24358452140586,56.24470921554894 135.41955193481408,56.30413387878798 135.49653767823474,56.636911600406165 135.74949083506363,56.874609565129504 135.96945010189665,56.85083978394687 136.18940936867148,56.743875726577244 136.28839103877544,56.779530420011724 135.90346232184675,57.15984667414159 135.70549898169702,57.11230718996376 135.58452138496796,57.207386144727934 135.76048879837617,58.07497909499216 135.9364562118426,58.431522830345784 136.17841140530072,58.5860248782119 136.46435845218366,58.95445225901494 136.69531568227103,59.40607180555526 137.09124236257048,59.61999642573937 137.43217922607437,59.96465217923105 138.0370672098361,59.77449736910057 138.36700610996922,59.79826673226489 139.3018329939223,60.46380752105324 140.09368635440478,60.64207692279888 140.57759674137924,60.59453843436495 141.09450101834955,60.72526924486738 142.17230142571498,61.260076035687234 142.4142566191731,61.331383477838244 142.76619144604774,61.319498906246736 143.81099796341732,61.022384341049474 144.56985743384575,61.30761433384032 145.09775967418682,61.450229146765196 145.19674134423258,61.426460019749356 145.38370672101155,61.15311481515528 145.55967413447797,61.11746105966449 145.81262729130685,61.331383477838244 146.26354378822725,61.628497490877635 147.044399185339,61.61661294053192 147.73727087577572,61.81865018057579 148.12219959270442,61.676035683674854 148.29816700617084,61.68792022977141 148.3751527495333,61.78299656782474 148.6940936864121,61.94938002859999 149.12301425664918,61.90184191391745 148.51812627294566,61.830534716456896 148.36415478616254,61.56907473075262 148.23217922612093,61.426460019749356 148.22118126275018,61.260076035687234 148.12219959270442,61.081807296563056 148.26517311611678,60.832230740677915 148.27617107942933,60.440038253043895 148.17718940938357,60.131037459665095 147.75926680251723,59.70318925923493 147.6272912424174,59.346648251099396 147.6492871690425,59.097069090465084 147.55030549899675,58.41963805149135 147.74826883914648,58.00367025617743 147.73727087577572,57.54016205819789 147.97922606929205,57.36188933024823 148.0782077393378,57.19550127835828 148.13319755607517,56.57748705611448 147.59429735236336,56.16151465132134 147.33034623222193,56.339788666547975 146.98940936865984,56.1852845310641 146.58248472504783,55.35333671772969 146.56048879842274,55.115636577727855 146.73645621183095,54.6045801256987 146.71446028514765,54.41441918430792 146.6154786151019,54.28368341091846 146.46150712831877,54.141062449954916 146.15356415481074,54.0340966489166 145.955600814661,53.855820160897565 145.64765784115298,53.832049948046915 145.460692464374,53.74885417630139 145.36171079432825,53.45172608016583 145.08676171081606,53.261563819876756 144.9877800407703,53.05951617992832 144.8997963340371,53.02386068858323 144.4268839104334,53.09517166366277 143.9979633401963,53.05951617992832 143.75600814667996,53.14271229672886 143.43706720980117,53.13082713972835 143.2061099796556,53.39230039717222 143.07413441955578,53.77262440105551 142.76619144604774,53.9746711741609 142.53523421590216,53.99844136662432 142.3262729124399,54.093522102426505 141.8753564155195,54.06975192356913 141.39144602854503,53.9746711741609 140.94052953156643,54.11729227787873 140.66558044811245,54.27179833551054 139.93971486762166,55.2820267114148 139.8847250509425,55.793081080686534 139.70875763747608,56.37544344665366 139.62077393080108,56.482407741073985 139.37881873728475,56.62502669323294 139.14786150713917,56.62502669323294 138.67494908353547,56.88649445443298 138.27902240329422,56.88649445443298 137.79511201631976,57.15984667414159 137.13523421587888,57.14796180438134 136.84928716911236,57.36188933024823 136.71731160901254,57.39754389114387 136.299389002088,57.647125603223685 136.21140529535478,57.77785873140965 136.22240325872554,57.956131013299455 136.56334012222942,58.90691328802495 137.35519348277012,59.893344150914345 137.5421588595491,59.91711349709658 138.02606924646534,59.73884331798763 138.30101832997752,59.77449736910057 139.4338085540221,60.42815361775865 139.67576374753844,60.451922887485125 140.1596741344547,60.61830768028449 140.46761710796272,60.5588845591119 140.7205702647916,60.58265381012461 141.13849287171615,60.71338462998392 141.22647657844936,60.867884557301295 141.47942973527825,60.90353836629947 142.24928716907743,61.30761433384032 142.7112016293686,61.30761433384032 143.21710794302635,61.10557647282258 143.7890020366758,60.951076766403276 144.27291242365027,61.05803811689839 144.62484725058312,61.23630688151752 145.0537678208202,61.331383477838244 145.38370672101155,61.10557647282258 145.55967413447797,61.06992270716 146.28553971491056,61.56907473075262 147.01140529540135,61.50965194936725 148.45213849295396,61.72357386292424 148.7380855397205,61.545305620718864 148.66109979635803,61.71168931937427 148.67209775967058,61.64038204033568 148.77107942977455,61.676035683674854 148.79307535645785,61.59284383732302 149.11201629327843,61.9256109729904 149.03503054991597,61.8661883190216 149.04602851322852,61.78299656782474 149.04602851322852,61.84241925149399 149.76089613040676,61.88995738315862 150.29979633406037,62.11576332288678 150.82769857440144,62.258377442587516 150.70672097767238,62.05634073688998 150.5197556008934,61.9256109729904 151.11364562122617,62.21083941627876 151.3995926681091,62.16330137636396 151.55356415483402,62.187070398038486 152.00448065175442,62.59114324625989 152.33441955200396,62.781294835032895 152.69735234219115,62.69810354169749 153.01629327906994,62.781294835032895 153.34623217926128,62.94767729686282 153.81914460286498,62.76941036712378 154.39103869657265,62.32968445659208 154.57800407335162,61.72357386292424 154.8309572301805,61.6047283893422 155.22688391042175,61.65226658897882 155.95274949085433,61.497767390537774 156.53564154793276,61.6047283893422 157.019551934849,61.53342106445052 157.63543788192328,62.05634073688998 157.7454175152816,62.341568955933326 157.91038696543546,62.460413902808796 158.49327902245568,62.16330137636396 158.41629327909322,62.13953235131339 158.50427698576823,62.03257169654535 158.3723014256684,62.12764783753664 158.59226069250144,62.09199429102591 159.28513238293817,61.77111202853848 159.37311608961318,61.77111202853848 159.6370672098128,61.98503360564064 159.98900203668745,62.08010977381491 160.7258655804908,61.75922748837911 161.05580448074033,61.77111202853848 161.51771894097328,61.426460019749356 161.6276985743898,61.4145754550118 162.1665987780434,61.91372644387593 162.21059063141,62.28214645067055 162.5295315682888,62.41287593425659 162.62851323833456,62.50795185776951 162.73849287175108,62.76941036712378 162.892464358476,62.94767729686282 163.0024439918925,63.47059252153849 163.24439918540884,63.89843102765735 163.37637474545045,63.981621720449766 163.82729124237085,64.11234986787895 164.00325865589548,64.29061535786605 164.1352342159371,64.5996084211074 164.3551934827119,64.69468309426156 163.8602851324249,64.84917932224926 164.1572301426204,64.73033608269179 164.30020366603276,64.57583974431327 164.6521384929074,64.51641803749953 165.597963340173,64.19554045367113 165.71894093690207,64.0648123715946 165.69694501021877,63.75581831460295 165.9169042769936,63.75581831460295 166.29083503055153,63.58943666142295 166.55478615075117,63.565667840244714 166.22484725055983,63.57755225125584 166.4338085540221,63.51813018768735 166.5217922606971,63.53001460208907 166.56578411412193,63.58943666142295 166.74175152753014,63.57755225125584 167.44562118133763,63.161597360274754 167.59959266806254,62.97144620637118 167.70957230142085,62.151416864275234 167.90753564157058,61.78299656782474 168.38044806523249,61.521536507309065 168.93034623219864,61.46211370897072 169.29327902244404,61.58095928445982 169.60122199595207,61.77111202853848 169.87617107946426,62.16330137636396 170.12912423629314,62.74564142872987 170.26109979639295,63.31609501266212 170.62403258658014,63.89843102765735 170.90997963340487,64.84917932224926 170.92097759677563,65.02744402230019 170.6790224032593,65.57412124417897 170.83299389010062,65.69296388070507 171.0859470469295,65.63354257306491 171.30590631364612,65.47904707383714 171.84480651735794,65.40774141039583 172.49368635442806,65.20570853125537 173.46150712837698,65.25324570137309 174.24236252548872,65.15817134756071 174.68228105909657,64.84917932224926 174.85824847250478,64.5996084211074 174.81425661919639,63.76770271202258 174.97922606929205,63.565667840244714 175.54012219962897,63.26855728875671 176.1450101833325,63.26855728875671 177.156822810648,62.94767729686282 177.39877800410613,63.07840625720564 177.5637474542018,63.36363272299059 177.5857433808851,63.51813018768735 177.4537678207853,64.0648123715946 177.5637474542018,64.4213432623801 177.81670061103068,64.69468309426156 178.4215885947924,64.97990678763017 179.47739307541633,65.90688041236717 179.6643584521953,66.23963891468884 179.67535641550785,66.65558610625158 187.0,70.09008172772883 186.82403258659178,69.72167901895591 186.58207739307545,68.78284261986846 186.24114052951336,68.05791468557436 186.02118126273854,67.84400092090073 185.61425661912654,67.63008688099217 184.8114052953315,67.4161725659651 184.56945010187337,67.20225797574676 184.30549898167374,66.57239675117307 184.15152749494882,65.62165830898448 183.70061099797022,64.89671659427404 183.29368635435821,64.67091443105892 182.82077393081272,64.35003714537015 182.58981670066714,64.36192150034185 182.02892057033023,64.76598906348227 181.68798370676814,64.75410473742522 180.77515274949837,64.32626843292383 180.44521384930704,64.02915924046829 180.31323828920722,63.83900907872885 179.92830957233673,62.37722244890756 179.6203665988287,61.68792022977141 179.7303462322452,60.96296136427554 179.6643584521953,60.70150001425645 179.45539714873303,60.49946141669352 178.65254582487978,60.14292211618158 178.4655804481008,60.00030618191522 178.36659877805505,59.23968579957727 178.02566191449296,58.78806580103992 178.06965376785956,58.502831485675415 178.19063136458863,58.34832936049497 178.7185336049297,57.956131013299455 178.96048879838781,57.670895270537585 179.05947046843357,57.35000447493803 179.02647657843772,57.11230718996376 178.9384928717045,57.05288281560934 178.59755600820063,57.088537442774395 177.0468431772315,57.54016205819789 176.3649694501073,57.89670694056258 175.7820773931453,58.01555506477598 174.63828920572996,58.00367025617743 173.93441955198068,57.742204252121155 173.64847250515595,57.55204689994571 173.30753564159386,57.61147109584999 173.1205702648149,57.5758165808511 172.14175152755342,56.7557606252376 171.4488798371167,56.37544344665366 171.0859470469295,56.11397488164948 171.0419551935047,56.030780251996475 170.32708757644286,55.67423136756406 169.61221995932283,55.115636577727855 168.66639511205722,54.6045801256987 167.64358452148736,54.16483261862595 165.81792260700604,53.65377324332076 164.5861507128575,53.45172608016583 164.2232179226703,53.10705682319531 163.23340122203808,52.5484534061834 162.9804480652092,52.275093603064306 161.6936863543815,51.76402841738309 161.14378818741534,51.65706108660379 160.4509164969786,51.68083161051618 159.69205702649197,51.81156943118549 159.25213849288411,51.775913672099705 158.49327902245568,50.94394378887955 157.4044806517777,50.23082343139686 157.28350305504864,50.016886727520614 156.96456211816985,49.90991827227117" stroke="#4dd2ff" stroke-linecap="round" stroke-linejoin="round" stroke-width="0.5"><title>2023-01-01 15.9km</title><desc>8320509270</desc></polyline><polyline fill="none" points="13.0,130.07616545734345 13.27888960618293,130.13905906489526 13.41833440924529,130.22711007724865 13.592640413146,130.26484621176496 14.115558424731717,130.16421650153643 14.301484828873072,130.26484621176496 14.975468043878209,130.45352676148468 15.417043253721204,130.47868415263656 15.765655261464417,130.41579066791746 16.160748870228417,130.302582338074 16.70690768235363,129.74911833139777 16.962556487997063,129.63590956761618 17.148482892196625,129.64848832279677 17.67140090378234,129.83716954119154 18.252420916687697,129.74911833139777 18.310522918007337,129.71138208500633 18.252420916687697,129.62333081151883 18.240800516447052,129.3969130464393 18.473208521609195,129.19565256332862 18.71723692701198,128.7428156247479 18.87992253061384,128.0006636477192 18.961265332472976,127.77424376991985 19.286636539676692,127.35913989496476 19.600387346639764,127.18303492137056 19.635248547478113,127.06982448705821 19.80955455126241,127.01950871478766 19.890897353121545,127.04466660272737 20.065203356964048,126.9440350291261 20.599741768848617,127.04466660272737 20.89025177527219,127.22077171642741 21.157520981272683,127.20819278567797 21.668818592617754,127.30882420642592 21.94770819885889,127.29624528200657 21.959328599099535,126.89371922044666 21.88960619753925,126.71761377553048 21.91284699807875,126.27734938292997 22.075532601680607,125.66097736057418 22.389283408643678,125.094919497089 22.56358941248618,124.9691286104935 22.70303421560675,124.80560032188077 22.830858618428465,124.79302121640649 22.970303421549033,124.67980922598508 23.377017430611886,124.08858985631377 23.49322143313475,123.81184818405018 23.55132343439618,123.76153146901925 23.597805035475176,123.44705167034408 23.632666236255318,122.99419976092759 23.46998063265346,122.3903953803092 23.35377663001418,122.1262303043768 23.225952227192465,121.92496140571893 22.73789541638689,121.30857395417115 22.830858618428465,120.59154906703043 23.144609425391536,120.42801666109881 23.365397030313034,120.26448410132434 23.377017430611886,120.18900748342276 23.260813427972607,120.22674579649174 23.27243382827146,119.96257743301976 23.249193027731963,120.088371941878 23.33053582953289,120.15126916216104 23.458360232354607,120.18900748342276 23.516462233674247,120.18900748342276 23.72562943829689,120.00031579524511 23.94641704321839,119.68582919318578 24.06262104579946,119.37134202223388 24.132343447359744,119.06943380289886 24.109102646820247,118.52851359867782 24.027759845019318,118.20144475169946 23.94641704321839,117.97501211253984 23.52808263391489,117.28313277660345 23.365397030313034,116.84284449266852 23.260813427972607,115.86162659087859 23.342156229773536,115.43391449007322 23.458360232354607,115.14457923684677 24.03938024531817,114.49042819339957 24.783085861825384,114.32689004788699 25.213040671369527,114.41494906843582 25.689477081992663,114.66654602420749 26.24725629435852,114.79234436551633 26.43318269844167,114.79234436551633 26.619109102641232,114.71686537166534 26.956100710085593,114.44010878041445 27.537120723049156,113.8236947888945 27.618463524850085,113.78595508573926 28.664299548079725,113.86143448385701 29.163976759184152,113.97465351955907 29.38476436404744,113.99981329526054 29.744996772089507,114.11303224081348 30.25629438343458,114.36462963359372 30.26791478373343,114.4275289248908 30.221433182712644,114.49042819339957 30.500322788895573,114.5659072855924 30.802453195618,114.79234436551633 31.348612007743213,115.11941962684796 31.952872821188066,115.44649427276454 32.371207230433356,115.63519090387854 32.510652033553924,115.37101556292328 32.731439638417214,115.10683982049522 32.91736604255857,115.00620133680059 33.12653324723942,115.01878115045838 33.42866365396185,115.11941962684796 33.533247256302275,115.11941962684796 33.91672046482563,115.53455272607971 33.98644286632771,115.67293020554644 34.09102646866813,115.72324926164583 34.41639767587185,115.66035043921147 34.8231116849347,115.2829570267204 35.4389928986202,115.30811661307234 35.845706907624844,115.18231864503468 37.72821174951969,114.69170569976268 37.96061975462362,114.72944520623423 38.19302775984397,114.69170569976268 38.6462233698694,114.64138634502888 40.18011620402103,114.65396618504019 41.23757262743311,114.5659072855924 41.60942543571582,114.64138634502888 42.03938024531817,114.67912586242892 42.39961265330203,114.81750402285252 42.86442866362631,115.0691003959364 43.70109748223331,114.83008385016001 43.99160748865688,114.95588207311812 44.04970948997652,114.94330225492013 44.13105229177745,114.85524350203923 44.595868302101735,114.86782332659641 44.95610071008559,114.71686537166534 45.107165913446806,114.59106697574316 45.26985151710687,114.67912586242892 45.502259522269014,114.59106697574316 45.82763072953094,114.54074759183277 47.12911555840401,114.54074759183277 47.23369916068623,114.4275289248908 47.30342156224651,114.38978935283376 48.05874757905258,114.3520497726131 48.88379599741893,114.22625111264642 49.08134280185914,114.22625111264642 49.27888960624114,114.30173031955201 49.42995480954414,114.27657058753539 49.859909619088285,114.31431018417061 50.02259522269014,114.27657058753539 50.10393802454928,114.31431018417061 50.39444803097285,114.31431018417061 50.61523563583614,114.3520497726131 50.87088444153778,114.22625111264642 51.358941252401564,114.20109136970132 51.52162685606163,114.21367124163953 51.649451258883346,114.28915045398753 51.823757262784056,114.31431018417061 51.91672046482563,114.41494906843582 52.0561652679462,114.71686537166534 52.76500968367327,115.04394077502366 53.543576500960626,115.47165383539686 53.903808908944484,115.7358290234115 54.65913492575055,116.00000380992424 54.984506132954266,115.79872781853192 55.79793415107997,115.87420634260343 56.0768237572629,115.81130757481151 56.77404777274933,115.52197294979123 56.54163976752898,114.77976453548763 56.55326016782783,114.603646819407 56.4951581665664,114.5659072855924 56.32085216266569,114.55332743917825 56.285990961885545,114.50300804435392 56.2976113621844,113.47145724084112 56.262750161404256,112.85503981410875 56.2976113621844,112.55312027684704 56.41381536476547,112.57828025834169 56.41381536476547,112.66634016478201 56.55326016782783,112.89277971939009 56.76242737250868,113.00599938604864 57.71530019369675,112.9808394665015 58.610071013565175,113.03115930197237 58.77275661716703,113.00599938604864 59.22595222725067,113.03115930197237 59.91155584243825,112.96825950534549 60.20206584892003,112.9808394665015 60.39961265330203,112.95567954330181 60.5390574564226,112.90535968600307 62.084570690756664,112.77955997896788 62.40994189796038,112.678920147795 63.38605551968794,112.54054028476821 63.560361523588654,112.54054028476821 63.874112330551725,112.42732031490596 64.33892834087601,112.35184029402444 65.05939315684373,112.12540003465256 65.38476436410565,111.9744396978931 65.66365397028858,111.9492796290142 65.91930277593201,111.6976787399035 66.04712717881193,111.48381769777916 65.965784377011,111.40833726714482 65.97740477730986,111.34543688328995 66.407359586854,110.95545399496041 66.79083279537736,110.13774509780342 66.89541639771778,109.99936321150744 67.0,109.63453771034256 66.90703679795843,109.52131584736344 66.72111039381707,110.55289009564149 66.68624919303693,110.51514968228003 66.57004519045586,110.62837089780078 66.51194318913622,110.74159203954332 66.52356358943507,110.79191252330202 66.44222078763414,110.82965287659317 65.94254357647151,111.30769664200488 65.88444157521008,111.58445822099748 65.75661717233015,111.60961834267073 65.83795997413108,111.59703828229976 65.75661717233015,111.84863931708969 65.33828276308486,111.92411955651187 64.96642995480215,112.08765996278089 65.29180116200587,112.02475982472242 65.40800516464515,111.96185966391931 65.80309877340915,112.89277971939009 65.73337637184886,112.90535968600307 65.768237572629,113.30791813659016 65.60555196902715,113.37081781029701 65.34990316332551,113.39597767339728 64.50161394447787,113.93691384917474 64.46675274369773,114.02497306729492 64.57133634603815,114.15077187294082 64.51323434477672,114.20109136970132 64.29244673979701,114.11303224081348 64.0135571336723,114.11303224081348 63.45577792124823,114.25141085189534 62.03808908973588,114.37720949365757 61.91026468685595,114.4275289248908 60.841187863145024,114.51558789444971 60.620400258223526,114.47784834151389 60.248547449940816,114.51558789444971 60.01613944477867,114.50300804435392 59.284054228512105,114.57848713110434 58.389283408701885,114.90556279484008 57.86636539705796,115.23263784316077 57.79664299549768,115.25779743675957 57.703679793397896,115.22005804500077 57.62233699159697,115.25779743675957 57.16914138151333,115.50939317254233 57.111039380251896,115.58487182228419 56.90187217557104,115.69808973540785 56.878631375031546,115.81130757481151 56.51839896704769,116.05032277137798 55.91413815366104,116.2767579175852 55.321497740456834,116.37739566566597 54.94964493223233,116.40255509357667 54.31052291800734,116.3522362341173 53.79922530660406,116.26417819497874 53.2414460942382,116.02516329247737 53.171723692677915,116.02516329247737 52.6488056810922,115.64777067201794 51.846998063265346,114.94330225492013 51.49838605552213,114.76718470454216 51.417043253721204,114.67912586242892 50.71981923817657,114.57848713110434 49.302130406722426,114.57848713110434 48.74435119435657,114.603646819407 47.69851517101051,114.57848713110434 46.39703034213744,114.62880650402803 45.65332472563023,114.61622666216863 45.44415752100758,114.69170569976268 45.362814719148446,114.80492419465736 45.06068431242602,115.00620133680059 44.83989670756273,115.25779743675957 44.572627501620445,115.45907405453909 43.805681084573735,115.66035043921147 43.39896707551088,115.57229204959003 43.073595868307166,115.40875492192572 42.16720464813989,114.74202503990091 41.94641704321839,114.65396618504019 41.23757262743311,114.62880650402803 40.040671400900465,114.66654602420749 39.59909619111568,114.61622666216863 38.8670109747909,114.62880650402803 38.51839896704769,114.66654602420749 38.29761136212619,114.65396618504019 37.123950936074834,114.81750402285252 36.624273725028615,114.94330225492013 36.38024531956762,115.0691003959364 35.8108457068447,115.23263784316077 35.624919302761555,115.33327619571355 34.84635248541599,115.62261113482236 33.951581665547565,115.53455272607971 33.85861846350599,115.34585598569538 33.56810845708242,115.23263784316077 33.52162685606163,115.0816802050249 33.26597805035999,115.04394077502366 33.11491284699878,114.96846189038479 33.021949644898996,114.9810417067929 32.89412524207728,115.10683982049522 32.731439638417214,115.13199943229847 32.54551323433407,115.25779743675957 32.371207230433356,115.52197294979123 32.115558424789924,115.45907405453909 31.65074241446564,115.24521764040401 30.755971594597213,114.70428553615056 30.43060038733529,114.47784834151389 29.91930277593201,114.23883098273654 29.756617172330152,114.12561211908178 29.256939961225726,113.99981329526054 28.408650742436294,113.87401438037341 27.816010329232085,113.81111488875467 27.455777921248227,113.79853498771263 27.281471917347517,113.96207363034773 27.049063912185375,114.36462963359372 26.88637830852531,114.51558789444971 26.66559070360381,114.61622666216863 26.21239509357838,114.70428553615056 25.921885087154806,114.69170569976268 25.526791478390805,114.52816774359962 25.236281471909024,114.36462963359372 24.759845061344095,114.22625111264642 24.562298256962094,114.22625111264642 24.213686249160673,114.30173031955201 23.632666236255318,114.64138634502888 23.400258231093176,114.85524350203923 23.237572627491318,115.13199943229847 23.167850225931033,115.38359535016934 23.13298902515089,116.1509606505424 23.167850225931033,116.69188825289893 23.41187863133382,117.38376994205464 23.841833440877963,118.11338764928223 23.958037443459034,118.52851359867782 23.958037443459034,118.36497925208823 23.969657843757886,118.71720688432106 23.923176242678892,119.13233139182557 23.78373143961653,119.53487542213406 23.516462233674247,119.8745212226786 22.993544222030323,120.23932523235271 22.842479018727317,120.41543723890209 22.668173014826607,120.72992252113181 22.633311814046465,120.91861341745243 22.656552614527754,121.25825651471678 22.784377017465886,121.53500225153402 22.842479018727317,121.597898948472 22.95868302125018,121.64821628962818 23.260813427972607,122.00043727002048 23.516462233674247,122.59166374015331 23.562943834695034,122.89356584312918 23.562943834695034,123.35899722475733 23.423499031574465,123.88732322923897 23.284054228453897,124.15148562951072 22.95868302125018,124.54143891541753 22.784377017465886,124.67980922598508 22.691413815307897,124.69238833969575 22.52872821170604,124.86849583571893 22.400903808884323,124.93139132676879 22.122014202701394,125.38423819089076 21.982569399639033,125.78676774665655 21.91284699807875,126.13898034360318 21.91284699807875,126.59182406282343 22.02905100065982,127.14529811812099 21.85474499675911,127.1956138539972 20.92511297611054,126.93145607830957 20.785668172989972,126.86856131067907 20.63460296962876,126.91887712660537 20.204648160084616,126.8811402660067 20.00710135564441,126.89371922044666 19.76307295029983,126.9440350291261 19.577146546158474,127.01950871478766 19.36797934153583,127.14529811812099 19.147191736556124,127.39687665180827 19.042608134273905,127.47235014093167 18.693996126530692,127.97550589803723 18.624273724970408,128.27739865350304 18.57779212394962,128.83086734404787 18.438347320829052,129.08244343924162 18.229180116206408,129.2459677059378 17.845706907624844,129.32144039255218 17.253066494478844,129.17049498658162 16.660426081332844,129.17049498658162 16.358295674610417,129.2333889216534 15.998063266568352,129.4723856675555 15.393802453181706,129.66106707704603 15.254357650061138,129.62333081151883 15.14977404777892,129.63590956761618 14.626856036134996,129.7742758244858 14.499031633255072,129.7742758244858 13.918011620349716,129.57301577809267 13.67398321494693,129.56043701746967 13.197546804382,129.68622458285245 13.092963202041574,129.64848832279677" stroke="#4dd2ff" stroke-linecap="round" stroke-linejoin="round" stroke-width="0.5"><title>2022-10-22 14.4km</title><desc>8000865746</desc></polyline><polyline fill="none" points="133.59461663942784,127.17113982532464 133.55791190860327,127.13139109039184 133.3817292006279,127.07574283725262 133.25693311580108,126.91674767258519 133.0,126.71005361367861 133.08809135400224,126.40796159552701 133.17618270797539,126.27281489674351 133.25693311580108,126.22511602208397 133.44045676998212,126.20126657698711 133.52854812395526,126.11381856715161 133.75611745510832,126.12971821049723 134.00570962479105,126.05021997073345 134.15986949423677,126.10586874462751 134.24796084826812,126.18536694402428 134.36541598691838,126.20126657698711 134.46084828709718,126.1376680313042 134.49755301792175,126.02637048756151 134.73980424139882,125.72427658471133 135.11419249590836,125.54142987051455 135.2830342577363,125.18368541686505 135.34910277320887,125.15983574510028 135.4225122348871,125.26318428527884 135.5840130505385,125.26318428527884 135.64274061989272,125.2234348582715 135.56199021203793,124.90543892324786 135.57667210439104,124.84183962550014 135.52528548121336,124.73054076560948 135.57667210439104,124.65104151077685 135.62071778139216,124.40459345423005 135.62071778139216,124.3330439146157 135.56199021203793,124.27739424042375 135.51060358888935,123.76859590862296 135.5986949428625,123.65729595861194 135.8042414355441,123.49829583390238 135.59135399671504,123.24389515444636 135.5032626427128,123.08489442982682 135.1215334420849,122.6714914659824 135.07748776505468,122.31373764211457 134.94535073408042,122.01958362294681 134.8058727569005,121.89238164034032 134.73980424139882,121.90828189622698 134.71778140292736,121.8764813821108 134.6957585644268,121.89238164034032 134.73246329525136,121.94008240110998 134.95269168022787,121.71747867308295 135.05546492655412,121.67772795976634 135.4078303425631,121.61412678846682 135.48123980421224,121.62207693690289 135.78221859704354,121.39947256274172 135.95840130501892,121.40742272676289 136.17128874384798,121.4710240180575 136.33278955952846,121.39947256274172 136.44290375200217,121.39152239817486 136.61908646000666,121.49487449277512 136.75122349101002,121.50282464985503 137.1182707993139,121.38357223300409 137.3238172919664,121.36767190094542 137.42659053829266,121.31997089093056 137.49265905379434,121.33587122991594 137.911092985305,121.09736590295506 138.21941272425465,120.86681025999133 138.71125611744355,120.69190565546887 138.94616639474407,120.66010478828684 139.2765089722525,120.5011003138934 139.73898858073517,120.5567519061733 140.0840130505385,120.46929939129768 140.29690048936754,120.37389656819869 140.6199021206994,120.31029463997402 140.7960848286748,120.23079217776103 141.221859706362,120.23079217776103 141.37601957583684,120.18309067276277 141.6329526916379,120.15923991244927 142.18352365415194,120.26259316958021 142.36704730830388,120.21489167842083 142.55057096245582,120.09563785960927 142.6973898857541,120.03998603307264 142.95432300161337,120.02408550601831 143.16721044044243,120.06383681933221 143.35073409459437,120.03203576984379 143.57830342574744,119.88893093282968 143.68841761825024,119.76172647635394 143.89396411090274,119.42781407527218 144.0921696574078,119.28470844896947 144.13621533440892,119.07799999202689 144.2022838499106,119.01439731141 144.41517128871055,118.91899322126847 144.98042414351949,118.57712788256322 145.33278955952846,118.49762416251178 145.65579119086033,118.37041809042421 145.75122349098092,118.19550950008852 145.9934747145162,118.02855103969341 146.05954323001788,117.90929484073422 146.47063621532288,117.79003851197194 146.6908646002994,117.74233594408724 146.95513866230613,117.79003851197194 147.38091353996424,117.97289816299599 147.68189233276644,118.03650144833227 147.84339314844692,118.04445185639634 147.95350734092062,117.96494774972234 148.05628058724687,117.96494774972234 148.18841761825024,118.04445185639634 148.5114192495821,118.1001046967358 148.89314845021,118.30681499897037 148.98123980421224,118.2591126561747 149.13539967371617,118.26706304807158 149.28221859707264,118.5532767726254 149.65660685155308,118.74408550685621 149.81810766720446,118.74408550685621 150.0970636215352,118.93489390873583 150.11908646003576,119.10980131847464 150.15579119086033,119.14955296357948 150.36133768351283,118.89514218573458 150.54486133763567,118.8712911450275 150.78711256117094,118.74408550685621 151.3303425774793,118.1160055030632 151.60929853181005,117.75823680235771 151.76345840128488,117.4163678410041 151.92495921693626,117.26530912282033 152.26998368676868,117.12220067135058 152.46084828709718,116.89958715293324 152.6957585644268,116.85188419726182 152.78384991839994,116.77237922499626 152.97471451872843,116.37485349797498 153.1876019575575,116.27149657263362 153.39314845021,116.30329871389404 153.66476345836418,116.47821032579668 153.89233278954634,116.52591344420216 154.0391517128446,116.52591344420216 154.20799347467255,116.48616084698733 154.28874388252734,116.39075455476268 154.33278955949936,116.2635460358797 154.4208809135307,116.23174388305051 154.56035889068153,116.2635460358797 154.721859706362,116.35100190848607 154.9274061990145,116.4066556092439 155.0228384991642,116.35100190848607 155.16231647634413,116.13633736923657 155.16231647634413,115.97732632816769 155.1990212071687,115.92962297084159 155.33115823817207,115.92962297084159 155.68352365415194,115.78651277417521 156.2928221859911,115.94552409225435 156.57177814026363,115.91372184710053 156.7846655790927,115.79446334556269 156.93148450242006,115.79446334556269 157.18841761827935,115.97732632816769 157.43066884175641,116.01707911007543 157.6215334420558,116.27149657263362 157.72430668838206,116.5895175697733 157.7977161500894,116.33510084592126 157.83442088091397,116.32715031378757 157.80505709623685,116.3191997810718 157.81973898858996,116.32715031378757 157.86378466556198,116.24764496062562 157.8784665579151,116.152238460636 157.98123980424134,116.01707911007543 158.15008156606928,115.97732632816769 158.26019575857208,116.04093077229481 158.34828711254522,116.152238460636 158.6199021206994,116.20789226238412 159.0016313213564,116.00117799905274 159.0823817292112,115.99322744265373 159.42006525283796,115.83421619382716 159.4934747145162,115.82626562533551 159.70636215334525,115.92962297084159 159.86052202282008,116.18404063654452 159.9853181076469,116.23174388305051 160.34502446980332,116.04093077229481 160.52854812395526,115.98527688570175 160.6827079934592,115.99322744265373 160.83686786296312,115.92167240925482 160.9176182708179,115.8024139163681 160.9176182708179,115.70700702855538 160.9983686786436,115.54799536419887 161.1084828711173,115.4605388503769 161.19657422509044,115.44463765856199 161.3800978792715,115.26177378656575 161.55628058724687,115.21407011756673 161.73246329528047,115.22997134287289 161.93800978793297,115.16636642779486 162.22430668838206,115.30152682817425 162.5032626427419,115.22997134287289 162.65008156606928,115.0948108541852 162.76019575854298,114.91194639811874 162.87030995104578,114.8880944900302 163.09787928219885,114.64162446895352 163.09787928219885,114.56211789223016 163.17862969002454,114.4031045656011 163.2300163132022,114.37130187259027 163.67047308318433,114.42695657931472 163.8172920065117,114.48261125777935 164.00081566066365,114.47466059114959 164.15497553016758,114.49851258928538 164.28711256117094,114.37130187259027 164.4192495921452,114.31564713756234 164.7202283849765,114.33949917030986 165.07259380095638,114.31564713756234 165.17536704728263,114.37130187259027 165.35889070146368,114.36335119788419 165.53507340946817,114.39515389321605 165.7699836867978,114.57801921218925 166.0195758564514,114.53826590796234 166.24714518760447,114.64162446895352 166.50407830343465,114.55416723138478 166.75367047308828,114.55416723138478 166.9078303425631,114.6257231582349 167.18678629689384,114.64957512346155 167.56851549755083,114.76883487166924 167.74469820552622,114.91989703298168 167.8768352365296,114.9835020912069 168.08972267535864,115.182267660035 168.1924959216849,115.22997134287289 168.4787928221631,115.03120586059958 168.54486133766477,114.91989703298168 168.6843393148156,114.8483412983187 168.85318107664352,114.70522968878504 169.02202283847146,114.66547643072408 169.35236541597988,114.71318033865828 169.6313213702815,114.61777250198793 169.8075040783151,114.52236458221887 169.95432300164248,114.22818963967438 169.91027732464136,114.17253483193053 169.92495921693626,114.13278138049645 169.83686786296312,114.02942233927024 169.82218597061,113.92606320050254 170.19657422509044,113.63188665619964 170.32871125612292,113.58418227724906 170.57096247957088,113.56828081296408 170.81321370310616,113.59213300850388 170.93800978793297,113.6716402894308 171.06280587275978,113.6875417386982 171.76019575857208,113.35361081939482 171.8849918433989,113.3218078216014 172.15660685155308,113.16279269407096 172.31810766720446,113.2025464975959 172.43556280585472,113.31385707071604 172.56769983685808,113.52057640632847 172.6264274061832,113.55237934641627 172.80995106033515,113.50467493282486 172.89070146818995,113.52852714222536 173.1843393148447,113.44106901573832 173.5954323001788,113.44901975739049 173.73491027730051,113.59213300850388 173.83768352362677,113.61598519884137 174.1313213702815,113.53647787751834 174.43964110926026,113.56033007998485 174.60114192494075,113.50467493282486 174.93148450244917,113.48082271824387 175.0048939640692,113.42516753068776 175.12234910277766,113.38541380797687 175.3866231647553,113.10713734487945 175.65089722673292,113.05148196740629 175.7169657422637,112.99582656165876 175.79037520391284,113.01967888187937 175.93719412724022,112.95607268308959 176.0032626427419,112.95607268308959 176.0693311582727,112.91631879007764 176.61256117455196,112.91631879007764 176.77406199020334,112.96402345994284 177.04567699835752,112.95607268308959 177.221859706362,113.01172810904973 177.53017944536987,112.99582656165876 177.65497553019668,112.91631879007764 177.81647634581896,112.86861409941048 178.24225122350617,112.89246644734521 178.6973898858123,112.82886017467536 179.04975530179217,112.93222034901555 179.22593800979666,112.93222034901555 179.3800978793006,112.86861409941048 179.5048939641274,112.9004172288187 179.64437194127822,113.0435311968904 179.6957585644268,113.05148196740629 179.6957585644268,113.12303887610324 179.78384991842904,113.1945957380376 179.89396411093185,113.38541380797687 180.0921696574078,113.600083739213 180.1876019575575,113.65573883786419 180.34176182709052,113.7988518188431 180.3784665579442,113.88630965958873 180.48123980424134,113.9181124934621 180.63539967371617,114.11687999589776 180.71615008157096,114.16458414278168 180.65742251221673,114.39515389321605 180.7088091353944,114.45080858784786 180.6794453507173,114.42695657931472 180.6794453507173,114.49056192382704 180.59135399674415,114.56211789223016 180.66476345839328,114.70522968878504 180.65742251221673,114.78473616162955 181.03915171287372,115.00735397848621 181.1712887439062,115.19021827527467 181.30342577488045,115.21407011756673 181.3254486133519,115.31742804079113 181.38417618270614,115.36513166478107 181.5016313213855,115.56389654100349 181.87601957583684,115.93757353182446 181.97145187601564,116.09658463060623 181.92740619904362,116.21584280319803 181.92740619904362,116.30329871389404 182.0228384991933,116.44640823532973 182.05954322998878,116.62131961868727 181.9127243066614,116.78828022407833 181.95676998366253,116.98704251768504 181.94208809136762,117.05064637547184 181.90538336051395,117.07449781263131 181.83931484504137,117.38456602289807 181.80995106033515,117.64693074601382 182.00081566066365,118.4419715241529 182.16231647631503,118.49762416251178 182.27243066884694,118.5612271431819 182.4045676998503,118.52147528459318 182.485318107676,118.58507825140987 182.68352365418104,118.5135249111554 182.98450244698324,118.5135249111554 183.21941272431286,118.63278045228799 183.63050570961786,118.65663154490903 183.77732463294524,118.76793657527742 183.85807504077093,118.76793657527742 184.06362153345253,118.91104287667986 184.26916802607593,118.99849663550413 184.47471451875754,119.24495685291186 184.58482871126034,119.31650971540512 184.77569331158884,119.38806253117946 184.94453507341677,119.35626128548756 185.06199021209613,119.4357643823605 185.1794453507173,119.42781407527218 185.44371941272402,119.56296921736066 185.58319738990394,119.59477040303318 185.63458401305252,119.6901739046516 185.74469820552622,119.61862128623034 185.83278955955757,119.83327900128643 186.03099510603352,119.6504224557284 186.00897226753295,119.51526742155693 186.12642740621231,119.4834662127978 186.13376835235977,119.34831097262213 186.207177814038,119.30060908335145 186.28058727568714,119.31650971540512 186.42006525286706,119.49141651585524 186.5081566068402,119.84122927896533 186.39070146816084,120.38184680663835 186.3026101141877,120.62830391185707 186.37601957586594,120.9304118651271 186.51549755298765,121.14506700988568 186.6843393148156,121.26431968634279 186.89722675367375,121.55052558025636 187.0,121.62207693690289" stroke="#4dd2ff" stroke-linecap="round" stroke-linejoin="round" stroke-width="0.5"><title>2022-10-03 12.1km</title><desc>7903036677</desc></polyline><polyline fill="none" points="57.61082809633808,153.0 57.894950087647885,153.81614483863814 58.15065987990238,153.81614483863814 58.02754035027465,154.01155876775738 58.43478187121218,153.60923553778412 58.43478187121218,154.29893146836548 57.80971349024912,155.17253918202914 57.12782071105903,156.94271984761872 56.284925470128655,157.97722586515738 56.55957672838122,159.16114681548788 57.13729144411627,160.26459393983532 56.58798892755294,160.52895959201123 56.18074740661541,161.20711162329826 56.01974494487513,162.9656868901584 55.688269288337324,163.7127842559712 55.6598570891656,164.01162157044018 55.83980101702036,164.0001278448035 55.214732636057306,164.574812436098 55.04425944131799,165.98852185490978 54.37183739512693,166.99994343046274 54.665430119493976,168.33316464279778 54.94955211080378,168.56302849339409 55.375735097855795,168.52854895099154 55.925037614419125,168.82737123961124 56.436457198811695,169.6433812018222 56.398574266640935,170.01115806699818 56.64481332577998,170.32146869860298 56.26598400401417,170.85014375549508 56.673225524893496,171.28687312336842 56.45539866492618,172.25226781808306 56.45539866492618,172.4361514186603 56.64481332577998,172.309731481153 56.26598400401417,173.36705672971584 56.44592793186894,173.71183417878638 56.161805940559134,174.49332513559784 56.000803478760645,176.25165647837275 56.25651327101514,176.74582222237223 56.5785181944957,178.17084404684283 56.55010599538218,179.1016936316737 56.73004992317874,179.63032023345295 56.5311645292677,179.9980587577811 56.597459660551976,180.15894391830807 56.8626401858055,179.9980587577811 56.89105238491902,180.1244685495185 56.70163772406522,180.06700957395515 56.61640112666646,180.40027115254634 56.56904746143846,182.41130779810192 56.161805940559134,182.91693322806532 56.25651327101514,183.04333916863106 56.09551080921665,183.62940089583572 56.161805940559134,184.31888069122942 56.25651327101514,184.23844163743343 56.076569343102165,184.7555486620622 56.398574266640935,186.2149245459659 56.17127667355817,186.41027238689276 56.114452275272924,186.78947588241863 55.754564419563394,187.08824121586076 56.123923008330166,187.60533286077407 55.90609614836285,187.29507820871368 55.95344981353264,187.4674420283045 55.640915623051114,187.31806006922125 55.773505885736085,187.37551469644677 55.925037614419125,188.49012764734653 56.08604007615941,188.50161843500246 56.37963280052645,188.94975807829906 56.55957672838122,188.74292465721373 56.56904746143846,188.89230439499806 56.77740358840674,188.8578321684763 56.6258718597237,189.04168389992992 56.70163772406522,189.69665282637288 56.55957672838122,189.75410602735792 56.80581578757847,189.86901232608216 56.60693039360922,189.82304982312053 56.76793285540771,190.36310784045054 57.46876710065408,190.73080517449125 57.582415897224564,190.05286211741623 58.179072079015896,190.39757952545915 58.28325014247093,190.1562774700651 58.5105477355537,190.93763430484978 59.154557582573034,190.868691310985 59.29661857825704,191.24787716337596 59.46709177305456,190.868691310985 59.68491863308009,191.66153274564567 60.309987014043145,191.68451355893922 60.44257727666991,191.55811901747802 60.28157481487142,191.61557110245485 60.584638272295706,191.6730231529873 60.68881633580895,191.51215732467972 60.21527968358714,191.69600396355963 60.10163088707486,191.54662859632663 60.28157481487142,191.50066689802043 60.196338217530865,191.35129122631042 59.2871478451998,191.17893439271575 60.33839921315666,191.28234853009053 59.91221622610465,190.98359627316677 59.675447900022846,191.0180677349781 59.874333293992095,190.83421979543346 59.599682035681326,190.74229569342424 59.65650643396657,190.09882451013254 59.675447900022846,190.30565500456578 60.08268942096038,190.0873339140453 59.88380402704934,189.01870245275495 60.158455285360105,188.67398008429154 60.12057235313114,188.38671049654658 60.2058089505299,188.53609078965383 60.55622607318219,188.49012764734653 61.143411521974485,189.2370259780364 61.28547251760028,189.35193289682502 61.43700424634153,189.22553527857235 61.408592047169805,189.4093863044909 61.46541644545505,189.0646653415315 61.294943250657525,188.82335992957815 61.46541644545505,188.7199431384288 61.38965058111353,188.8003784300672 61.35176764894277,188.61652623565897 61.38965058111353,188.94975807829906 61.19076518714428,188.93826734438335 61.32335544977104,188.94975807829906 61.294943250657525,188.22583915123687 61.730596970708575,187.86962306837086 61.59800670808181,187.68576908807154 61.91054089850513,188.26031160514685 61.59800670808181,188.03049501171336 61.61694817413809,187.15718692976225 61.493828644626774,187.2146416534306 61.455945712397806,188.26031160514685 61.22864811931504,188.9612488108105 61.31388471677201,189.61621828702482 61.50329937762581,189.85752170240448 61.531711576797534,192.19009005784028 61.7116555046523,192.36244507280935 61.68324330548057,192.95994005804096 62.65872880903771,193.92511639559234 62.87655566906324,194.92475306908455 62.677670275152195,195.0971031657973 62.8670849360642,195.22349303973897 62.592433677753434,195.29243290074373 62.601904410810675,195.47627228759666 62.34619461855618,195.59117172531842 62.33672388555715,196.7401585259795 62.15677995770238,197.01591330845258 62.14730922464514,197.57891019240196 61.78742136899382,198.11892450424057 61.730596970708575,198.50957125867717 61.50329937762581,198.67042534182838 61.143411521974485,201.39341421212885 61.36123838200001,201.8070260069071 61.55065304291202,201.1521398408804 61.531711576797534,201.29001098455046 61.70218477159506,201.1521398408804 61.92001163162058,201.57724189681176 62.21360435598763,201.33596798832878 61.79689210199285,201.50830655636673 61.93895309767686,202.43892946930282 62.20413362298859,202.74913509906764 62.40301901684143,203.56485622342734 62.70608247432392,203.72570182294294 62.97126299951924,203.6337900848157 62.715553207322955,203.78314661449986 62.80078980472172,203.90952503477456 62.61137514380971,203.9899475791026 62.46931414818391,204.54141463669657 61.97683602984762,205.03543451506266 61.34229691582732,203.93250291144795 61.171823721088,203.96696971614438 61.020291992346756,204.25419260677154 61.20023592025973,204.41503704956995 60.96346759411972,204.48397029959597 60.75511146709323,205.24223277794226 60.31945774710039,205.3341429737775 60.40469434444094,205.75922648330015 60.64146267058095,205.55242933576665 60.16792601835914,205.0699009231903 60.12057235313114,204.38057040598505 60.508872407954186,205.01245690276846 60.470989475783426,205.51796310113423 60.08268942096038,204.52992577203258 59.637564967852086,204.25419260677154 59.62809423485305,204.07037005593884 59.362913709599525,204.15079246530513 59.49550397222629,204.25419260677154 58.80414045997895,204.01292543648742 58.77572826080723,204.87459111327917 57.92336228681961,205.03543451506266 57.5445329649956,204.49545916976786 57.31723537197104,204.50694803858642 56.711108457122464,203.8635692648386 57.118349978059996,204.00143650847167 57.05205484671751,203.00189449956815 57.5918866302236,203.11678491581551 57.67712322762236,202.737646019581 57.857067155477125,202.74913509906764 57.79077202419285,202.45041858461627 56.33227913535666,203.3695433468747 47.96962185704615,204.46099255506124 46.35959723946871,204.94352403278754 46.009180116816424,204.82863580605044 44.1434457070427,204.96650166162726 36.58580073749181,206.03495531938825 35.506137170421425,206.0579326865991 35.420900573022664,206.21877410282468 20.9212082818849,206.95404571172548 17.07609066576697,206.4715243544706 17.322329724906012,206.75873974065325 17.881102974526584,207.0 18.231520097178873,206.5404561256437 17.615922449331265,206.98851143000502 17.40756632236298,206.63236507674446 17.189739462337457,206.68980812645896 17.303388258849736,206.44854708639468 17.028737000538968,205.66731669504225" stroke="#4dd2ff" stroke-linecap="round" stroke-linejoin="round" stroke-width="0.5"><title>2020-11-14 12.8km</title><desc>1605366584000</desc></polyline><polyline fill="none" points="157.55470409925329,205.91493432258721 157.48461600020528,206.38857548771193 156.83046040890622,205.35517381483078 157.5235538330162,206.58664297489304 157.76496839645552,206.21634258507402 157.6870927308628,206.11300270727952 157.88178189491737,206.069944394716 157.5624916658271,206.0096627273233 157.5235538330162,206.1043910462031 157.6559424645675,206.16467265896063 157.46904086708673,206.50052672223683 157.46904086708673,206.8105448997594 157.26656413645833,206.776098480972 156.9939993067528,207.0 156.55010801265598,206.85360290721292 156.40993181450176,206.30245907187054 155.56108705917723,206.16467265896063 155.54551192602958,206.27662413330108 155.14055846480187,206.2680124856779 154.87578120161197,206.42302203417785 155.0471076660324,205.73408894788736 155.20285899730516,205.5790783776538 155.0860454988433,205.303503462972 155.20285899730516,205.07959830979235 155.10940819853568,204.94181028478488 155.20285899730516,204.58011585494387 155.52993679294013,204.19258471966168 155.60002489201725,203.77060473813617 155.51436165979248,203.58114378405298 155.15613359792042,203.36584682841203 155.0860454988433,202.90941581564402 155.26515952980844,202.86635618324362 155.14055846480187,203.1247137115497 155.17949629758368,202.99553502722847 155.23400926351314,203.13332561817515 155.22622169696842,203.05581843312393 154.7511801366345,203.25389223620732 155.0159573997662,203.34001116392756 155.17170873103896,203.13332561817515 154.40852720788098,202.16878766648733 153.9101229478547,202.04821979659755 153.92569808097323,201.8673677309198 154.3773769416439,202.08266777360404 154.70445473724976,201.41954222132335 155.14055846480187,201.1353442679174 155.45984869386302,200.6358429616812 155.9193151210493,200.23107291045744 156.23860535013955,199.52487459897384 157.10302523861174,199.11148800692172 157.16532577111502,198.98230436153972 157.6870927308628,198.93924311090086 158.6605385511939,199.19761034847033 158.7617769165081,199.11148800692172 159.01097904652124,197.35457674493227 159.14336767807254,197.13926696023555 159.04991687933216,196.47611003540806 159.0966422786878,196.66558387201076 159.15894281119108,196.6139092233716 159.37699467496714,195.68376117757725 159.1978806440311,195.7182112528899 159.41593250780716,195.02920758866094 159.25239360996056,194.8914063105185 159.5950465387432,194.8914063105185 159.4315076409548,194.86556855063827 159.32248170903767,194.39187515361846 159.29133144280058,194.69331665477512 159.40814494120423,194.71054185713 159.21345577714965,194.83111819418264 159.37699467496714,194.5210644749095 159.11221741183545,194.98614470876055 159.36920710842242,194.4952266234177 159.33805684215622,194.71054185713 159.47823304028134,194.43493827845668 159.36920710842242,194.7708300430604 159.43929520749953,194.39187515361846 159.3302692755824,194.40910040568997 159.32248170903767,194.7536048506372 159.4704454737075,194.62441581691382 159.65734707124648,193.71147542515246 159.4704454737075,193.61673587097903 159.61062167186174,193.61673587097903 159.61840923843556,193.41864379824256 159.87539893499343,193.10858588681003 160.00778756654472,192.48846730311197 160.2959275293979,192.53153121260402 160.00778756654472,192.50569286903192 160.01557513314765,192.33343708200846 159.96106216718908,192.49708008644666 159.71964760372066,192.5143056509478 159.82088596906397,192.68656113972975 159.71186003717594,192.5487567714299 159.54053357278462,192.61765897829173 159.58725897216937,192.74685049369145 159.58725897216937,192.58320788054698 159.57168383905082,192.66072283450922 159.2991190093453,192.50569286903192 159.18230551091256,192.66072283450922 159.43929520749953,192.59182065605273 159.2290309102682,192.56598232738907 159.15115524467546,192.34204987811245 159.4704454737075,192.09227850296156 159.61840923843556,191.77360381244216 159.54053357278462,191.7305395904841 159.71186003717594,191.89418353939982 159.75079787001596,191.78221665467572 159.2679687431082,191.8338936933069 159.57168383905082,191.7219267439723 159.61840923843556,191.87695787264238 159.57947140562464,191.80805517718545 159.6962849040574,191.81666801661777 159.71964760372066,191.7133138967547 159.48602060688427,191.6788625007248 159.51717087309225,191.5841211030929 159.39256980811479,191.74776528139046 159.2290309102682,191.60995967462077 159.00319147997652,192.1008913189362 159.01876661309507,192.32482428520598 159.2290309102682,192.557369549766 159.30690657591913,192.34204987811245 159.44708277404425,192.50569286903192 159.37699467496714,192.37650105540524 159.8676113684487,192.36788826214615 159.40814494120423,192.48846730311197 160.1635388978175,192.66072283450922 160.14796376469894,192.73823773096228 159.80531083591632,192.68656113972975 159.25239360996056,192.28176029051247 159.1978806440311,192.66933560363395 160.08566323222476,192.53153121260402 160.34265292875352,192.56598232738907 160.37380319501972,192.66933560363395 160.22583943034988,192.44540337588842 160.070088099048,192.46262894893152 159.75858543653158,192.62627175096713 159.33805684215622,192.57459510432818 159.25239360996056,192.7726887776007 159.08106714559835,192.29037309088744 159.15894281119108,192.13534257576248 158.97204121371033,192.0750528688659 159.22124334375258,192.13534257576248 159.6651346377912,191.90279637170897 159.7975232693716,191.95447335068457 160.05451296592946,191.3085092760084 159.01097904652124,190.7658963661379 159.78194813622395,188.79351775811665 158.90195311463322,186.56270405234682 158.72283908369718,184.89171585372242 158.2322223902156,183.10872473283962 158.7929271827743,181.98034264109447 160.24920213001315,178.15581186384225 160.436103727523,176.05398304273695 161.26158578321338,172.573812765404 161.79892787602148,169.34335284202825 163.2785655229818,163.20951106096618 163.7769697830081,162.23598896965268 165.87182518839836,159.2722905718765 166.0898770521453,158.32457854936365 165.59926035869285,153.85298475229501 165.20209446398076,153.60312125444034 163.81590761581901,153.3877212068328 163.44989198734402,153.7409770514132 163.20068985733087,153.64620121058397 163.06051365920575,153.7409770514132 162.95927529389155,153.54280928596563 162.21945647042594,153.25848096473055 162.9748504270101,153.1464726253471 162.437508334202,153.0 161.53415061286069,153.21540084842854" stroke="#4dd2ff" stroke-linecap="round" stroke-linejoin="round" stroke-width="0.5"><title>2019-10-05 11.6km</title><desc>1570246647000</desc></polyline><polyline fill="none" points="52.166169754229486,213.0 52.25525258714333,213.26137124146044 51.33897201984655,213.38517854751262 51.377150376851205,213.72908731205098 51.72075558960205,214.08675177380792 51.73348170850659,214.73329737962922 52.56067944288952,215.03593500040006 51.13535411603516,215.17349739761266 51.606220518646296,215.07720372990298 51.74620782752754,215.4623781110713 52.06436080223648,217.31945803608687 51.92437349341344,217.6908718662453 52.43341825297102,219.31407943571685 52.280704825068824,220.44206305778062 52.624310037877876,220.97854074863426 52.57340556185227,221.45999381084403 52.87883241765667,221.90017841165536 52.96791525057051,222.53294200806704 53.14608091645641,222.6292319378408 52.94246301258681,224.19737542865914 53.17153315444011,224.72008708078647 53.28606822527945,226.16441451452556 52.90428465558216,226.6458545793139 52.82792794163106,227.1823149445554 52.891558536619414,227.05851653171703 53.14608091645641,227.5124436555634 53.604221200046595,229.24561008124147 53.24788986839121,230.09843226549856 53.38787717727246,232.61561115314544 53.64239955705125,233.61972249209066 53.502412248111796,234.00485969560395 53.756934627948795,235.54540079037542 53.69330403296044,236.86585475610627 50.944462331186514,237.40228658799606 50.00272952596424,237.34726800749195 50.29543026268948,237.23723079920455 49.88819445500849,236.94838282771525 49.7100287891808,237.0859295349801 49.74820714612724,236.82459070705227 49.404601933434606,236.6320250274439 49.353697457467206,234.47252526208467 49.022818363737315,235.07773783500306 49.175531791639514,235.28405986735015 49.81183774105739,234.73386728877085 49.175531791639514,234.94018969035824 49.4555064093438,234.83015110374254 49.430054171418305,235.11900225922 49.18825791060226,235.1877762798249 49.404601933434606,234.81639627595723 48.93373553082347,233.97734992094047 48.81920045992592,232.35426624544198 48.590130318072625,232.02414585389488 48.34833405731479,232.06541093385022 48.717391507991124,232.46430624989443 48.462869128154125,232.106676004958 48.24652510537999,230.78618933416146 48.182894510391634,231.07504656884703 47.253887824190315,230.85496490563673 46.10853711509844,231.0337812762009 46.19761994801229,231.1850873059593 28.661027980037034,253.31574993606773 28.68648021807894,253.1094472578843 27.99926979263546,253.71460115286754 27.655664579884615,253.32950344010897 27.833830245770514,253.20572186858044 27.426594438089523,252.50429145823 26.904823559510987,252.40801649630885 26.472135513846297,252.68308768820134 26.192160896083806,253.41202444347437 25.555854946549516,254.0584377446794 24.51231318945065,253.46703842605348 23.97781619185116,253.46703842605348 23.64693709812127,253.05443317300524 23.150618457468227,252.9856655447511 23.099713981559034,252.71059478576353 21.954363272408955,253.38451744629128 22.641573697852436,252.82062313659117 22.297968485218007,252.29798790936184 22.3488729611272,251.981655371128 19.841827520169318,251.7340904129378 19.96908871002961,251.39024966442958 20.796286444354337,251.67907593450218 21.178070014109835,251.56904693038086 21.763471487676725,251.04640830091375 22.3997774370946,251.26646684439038 23.048809505591635,251.95414816930133 23.41786695626797,252.05042335847975 23.914185596862808,252.47678433115652 24.117803500732407,253.04067964933347 25.199523614894133,253.13695429444488 25.67039001750527,252.94440495599702 26.00126911123516,253.34325694310246 26.62484894169029,253.5082989026705 27.324785486096516,254.12720498922863 28.037448149581905,253.8383823967597 29.220977215620223,254.23723252938362 30.20088837784715,254.25098596750468 30.32814956776565,254.30599971002084 30.099079425970558,254.53980794017843 30.48086299560964,253.962163560951 31.320786848955322,254.34726000658702 32.70793381886324,255.40627125525498 33.076991269539576,255.39251789977425 33.35696588730207,256.35525040603534 33.21697857842082,256.17645759077277 32.70793381886324,256.2727306658053 32.822468889760785,256.38275697825884 33.06426515051862,255.98391129610536 33.91691512282705,256.5477963288722 34.73138673818903,257.8130933110806 35.46950163965812,258.1294162557606 35.78765461436706,259.3396905444097 37.9001903666649,259.7935414389358 38.75284033897333,260.1648731923051 39.121897789649665,259.5047273572418 39.51640747836791,259.55973959674884 39.300063455535565,260.01358997193165 40.81447161536198,260.72874596524343 41.10717235202901,261.1000759128656 41.36169473192422,261.0588170652045 41.9725484434166,261.9114981180319 42.09980963327689,261.7464633706113 41.5398603976937,261.498910983908 41.48895592178451,261.7602162716212 42.545223797962535,261.9390038955171 45.20498266676441,265.3084318796464 46.744843064574525,264.8133359570202 46.973913206369616,264.3594969083497 47.41932737099705,264.0569369476434 47.508410203969106,264.6620563930919 48.19562062941259,264.6758090856456 48.34833405731479,265.3496898156736 48.47559524717508,265.0196260796656 49.82456386007834,264.70331446778437 50.93173621222377,265.4597109351598 51.351698138867505,265.98231039325765 51.784386184532195,266.1198363304138 51.66985111357644,266.174846677779 52.10253915924113,266.54616611082747 53.349698820267804,266.91748482706316 54.36778833944118,267.0 54.953189813008066,266.6286814430641 56.42941961577162,266.72494928591186 57.16753451724071,266.2573621692718 57.56204420590075,266.33987762540346 58.07108896551654,265.9548051939928 58.55468148709042,266.1610940924147 59.203713555587456,266.0373207799421 59.53459264931735,266.2986199017614 59.54731876828009,265.83103174876305 59.95455457596108,265.47346357065544 59.99273293296574,264.6620563930919 60.158172479772475,264.48327130055986 60.06908964685863,264.09819515213894 59.661853839235846,263.75437651098764 60.04363740893314,261.8427336571476 59.54731876828009,261.21009946335107 58.898286699841265,261.07257001542894 58.440146416192874,260.24739126235363 58.185624036355875,260.261144270582 57.12935616023606,261.5539226529072 56.49305021070177,262.0077683219715 56.68394199560862,261.88399233664677 57.10390392219415,260.5637102028559 56.56940692465287,260.5224512401328 56.034909927111585,260.8662756590493 56.81120318546891,261.08632296460564 56.92573825636646,261.16884063927864 56.798477066506166,261.22385240273434 56.67121587658767,261.22385240273434 56.67121587658767,260.5637102028559 56.81120318546891,260.6324751210486" stroke="#4dd2ff" stroke-linecap="round" stroke-linejoin="round" stroke-width="0.5"><title>2019-09-21 12.8km</title><desc>1569055670000</desc></polyline><polyline fill="none" points="142.48472695877354,213.13378638069298 142.9442823048812,213.19693965667102 143.5058758163177,213.25427588168077 143.88564192036938,213.26757119717513 143.97080159218604,213.26092354135926 144.2822865179296,213.3232451630265 145.67399502852277,213.31410467975456 145.81822942763392,213.3357094466328 146.6759637798059,213.53513613808263 147.53446533622628,213.55258580824466 147.68023414384152,213.53762894973443 147.810658866445,213.47946320304163 147.88431047450285,213.41548054023497 148.1029636859239,213.16619402637662 148.16587443447497,213.12381477893723 148.24029324678122,213.09473089085623 148.34156420786167,213.0822663447625 148.77043138394583,213.07395663982334 149.4018404821909,213.00083097613515 149.57906466407803,213.0 149.75322002896792,213.01578853627416 150.08004903972324,213.09057604366717 151.2132097178619,213.46616813371838 151.39043389974904,213.5500929998525 151.50244572033625,213.64481933715706 151.5868381879045,213.76613437858305 151.63747366844473,213.8907717806851 151.74948548903194,214.26966115006599 151.81316344183142,214.3843225666169 151.88834945839335,214.4699024407746 152.03718708300585,214.58954701787934 152.6156590879582,214.98087575806312 152.8711381034118,215.1113157001164 153.15270206338027,215.2143372795781 153.3514079642846,215.26335528642358 153.57850042246355,215.2974185235862 154.51602401670243,215.37966836159376 154.71856593885605,215.37966836159376 154.84899066145954,215.3547442306217 154.93952076302958,215.32151197163512 155.74201640916,214.9393340633551 155.90543091453947,214.87452871873666 156.00746907986832,214.85292685570676 156.08802552618363,214.85126517224762 156.1601427257374,214.86954367703856 156.21154541052965,214.91773232256128 156.2299583125423,214.97090576507617 156.24300078480155,215.11796228159164 156.22688949553776,215.27249421365377 156.19006369151248,215.4536096310785 156.09032713893248,215.74272372169617 155.75889490267218,216.42726363356724 155.64611587783656,216.72632163572325 155.58704115053843,216.9439644988106 155.5502153465095,217.1499737842214 155.53103524024846,217.33521284408107 155.5248976062394,217.5594893153584 155.54637932525657,217.84771967321285 155.60929007380764,218.1749810970632 155.88394919551865,218.99143273413029 155.96220402908148,219.3236446471974 155.99059058635612,219.62345764446218 155.9967282203579,220.23634738735473 156.03278682013843,220.50707146468085 156.08802552618363,220.70637345567866 156.25374164431196,221.14565605033658 156.3833991626634,221.53094869611323 156.44400829845836,221.76344662895372 156.48313571523977,221.97684237758494 156.5061518427574,222.3288951865443 156.4862045322443,222.66101059512766 156.4309658261991,222.9565852406604 156.3304620693707,223.28038020551776 156.21538143177895,223.5360887613333 156.08725832192795,223.75775359161798 155.91770618255032,223.98854614233642 155.74048200065954,224.1852972871411 155.40444653889426,224.49992609288984 154.32499015830035,225.44874136366525 154.21911597171493,225.5217877664245 154.0917600661196,225.5724219327676 153.97974824552875,225.5915134458819 153.76723266811314,225.59317357595955 153.5738971969622,225.5674415328349 153.234025713944,225.41470822231076 153.18262302915173,225.35743270853982 153.15346926763232,225.27193394772985 153.15730528888525,224.7273832497831 153.1235483018536,224.62527712589417 153.0307165875347,224.528981089642 153.00156282601165,224.44762691388587 152.98084831124652,224.42853350359746 152.62793435596905,224.30235016958432 152.58266930518585,224.30068985333583 152.5343354373981,224.3247644155008 152.6240983347161,224.30982158973984 152.97931390274607,224.4326842476612 153.00156282601165,224.4567585336963 153.02151013652838,224.52981123132759 153.11971228060793,224.62859766449765 153.14349561237032,224.68089602114742 153.15500367613276,224.7514569193927 153.14656442937485,225.284385263074 153.17648539514994,225.36822376914915 153.2194488331843,225.41802853321315 153.2593434542141,225.4445909859578 153.53016655467582,225.55748072651113 153.56699235870474,225.5906833807503 153.60611977548615,225.58321279189568 153.74344933634347,225.60064415835404 154.02194447931106,225.60147422276532 154.15773963166794,225.56661146597253 154.26361381824972,225.51597727407898 154.54978100372318,225.28604543743586 155.17812128496735,226.0912017946921 155.28169385880028,226.20906532168465 155.4696589001942,226.32692764266267 155.6614599628483,226.387518366515 156.07805187092163,226.57177860962838 157.74518670747784,227.74533101134693 157.95846948914914,227.8050843722267 158.5791377278838,228.05654303849315 158.89906190038528,228.16774743230144 159.4859731520919,228.5486558468947 159.5834080919194,228.5967871694911 159.6608957212302,228.6216826023583 159.75909786530974,228.6357899904624 160.26928869195763,228.63744968204537 160.35598277227473,228.66234502713542 160.41812631657376,228.6971984199845 160.47259781836692,228.74449928466674 160.51709566490172,228.8075668024867 161.1300918611305,229.84149299873843 161.30961765577013,230.10369390428696 161.47686818240618,230.53681020199656 161.48760904191295,230.63969367720256 161.47379936540165,230.701921140605 161.18993379268068,231.46106919198246 161.1822617501748,231.5116772877427 161.19607142668247,231.57058151338515 161.4691961399003,231.9538664620477 161.65869558979466,232.11066118488088 161.69859021082448,232.15628887910952 161.77070741038187,232.2890229650484 161.79525794640358,232.38857252885282 161.78144826989228,232.67145452491332 161.87504718846685,232.93525026428506 162.25481329251488,233.34005717505352 162.3062159773035,233.36908991279324 162.45198478491875,233.41968965286924 162.48804338469563,233.45535818902772 162.7688401404157,233.93894632021966 162.89159282051332,234.35035357815104 162.9429955053056,234.45237367812024 163.22302505676998,234.74184044559388 163.59818793531667,235.09930946734403 163.9664459756059,235.3613911071643 164.04393360491667,235.42939866401957 164.4121916452059,235.9427598887769 164.71216850718702,236.31843631019 164.83261957453215,236.4494640711764 164.9760867693949,236.68332006122455 165.0037061224175,236.767075845235 165.01367977767586,236.91882983167125 165.09346901973913,237.15101787497224 165.1310620280201,237.4130530765542 165.15561256403453,237.72649246303536 165.12952761951237,238.03494834315188 165.15100933853319,238.14688594662312 165.26762438462174,238.52497830291122 165.36659373295333,238.68002576917843 165.51159533631653,239.0348859625019 165.56990285936263,239.37149564110769 165.63895124191913,239.60031831680226 165.7954609090375,239.8896564686729 165.81924424080717,239.96012455309483 165.84993241083066,240.26271793235537 165.8123394025497,240.67804558356147 165.83151950881802,240.7800099796159 166.09160174976932,241.32131815365938 166.13763400480457,241.46140758139427 166.1690893790801,241.520261215378 166.3455463567152,241.67775538812748 166.8795205151364,242.20327311817073 167.03756459076249,242.37899298422144 167.34137747400018,242.78844311244666 167.47180219660004,243.09427802315986 167.57153874918004,243.2401476652949 167.58227960869044,243.31308179965527 167.57153874918004,243.4125366996932 167.58611562993974,243.46392139788077 167.60989896171304,243.49624391420002 167.70503228878442,243.55260090711454 167.7295828248025,243.58492317678883 167.73725486730837,243.63879342648306 167.7104027185378,243.72830036617506 167.71116992278985,243.76808100700146 167.77024465008435,243.8791345753816 167.8101392711178,244.02913808399444 167.97815700199862,244.2114601844105 168.083263984332,244.3523434854078 168.34641504228784,244.78244135516707 168.49832148390487,245.18932084358312 168.6387198617631,245.8315151081406 168.67170964454272,245.8886893951194 168.82821931166472,246.0676679555072 168.83128812866562,246.11572654455085 168.79522952888874,246.35270220214352 168.80213436714257,246.5084737822308 168.7691445843666,246.68578570331465 168.77374780987157,246.76615517047776 168.79753114164123,246.91115022831855 168.84279619242443,247.07105696950384 169.00544349355187,247.4140619492946 169.07219026335224,247.81256470885728 169.06451822085,247.86890079723435 169.03152843807402,247.96583137037578 169.02922682532517,248.0279659288999 169.10748165888435,248.22016673167218 169.24634562824212,248.68574346363675 169.49108378418532,249.70795879069647 169.53634883496852,250.05254278351276 169.52560797545812,250.10969635541187 169.45579238865685,250.2728724031922 169.45349077590436,250.35321713098256 169.4880149671808,250.4244501380672 169.6882552765892,250.69943859551404 169.827886450199,250.99347028631837 169.84706655646005,251.16077515158304 169.86624666272837,251.21212566864415 170.01968751284585,251.45562343100755 170.12019126967425,251.56411909686813 170.1900068564828,251.74466690028657 170.31199233232473,251.95005733569087 170.363395017117,252.292090644959 170.53141274800146,252.5587537305255 170.55903210102042,252.62417635214842 170.50379339497886,253.01836059301422 170.50993102898065,253.09785832339276 170.53755038200688,253.14671603503757 170.66107026634927,253.2485712851858 170.72167940214786,253.37775227602924 170.7224466063999,253.42992111734384 170.68868961937187,253.59139462574603 170.72704983190124,253.91350690632862 170.72321381065194,254.0799419057539 170.8390616524921,254.42936488819487 170.84903530774682,254.49643303330868 170.8390616524921,254.54611289266995 170.67257833011172,254.94106026264944 170.55596328401953,255.46101255441135 170.4777084504567,255.73505453749385 170.51760307149016,256.110920408998 170.4968885567214,256.4983642164834 170.53064554374942,256.6879420881469 170.6441917728407,257.0157638235514 170.8129767079663,257.3435763761854 170.9809944388544,257.558801847249 171.1582186207379,257.82617259420294 171.5118997802674,258.2027990465931 171.7144417024283,258.37827800395917 171.9300260968448,258.6001061306215 172.179367478293,258.9518771954572 172.30749058814035,259.0553372630102 172.3496868219263,259.11327450174485 172.74479701098244,260.16685459968903 172.79236367452177,260.4085108369045 172.85067119756786,261.13675978513584 172.74863303223538,261.6283022615344 172.80847496378192,261.69946663704013 172.83149109129954,261.86579099396386 172.9074443121135,261.9890846422313 172.8851953888443,262.0627292234676 172.86141205707463,262.09831014767224 172.84223195081358,262.27786804934294 173.06702279623642,262.88520022178 173.06779000048846,262.92574307621 173.10921903002236,263.010137956735 173.3754389049791,263.704304202427 173.6209442651707,264.3719557884169 173.84189908934786,264.9154805470598 173.89253456988445,265.00151564692715 174.12499745781315,265.3117331328567 174.18867541061627,265.3580582414188 174.31449690771478,265.4118282277632 174.4073286220373,265.4862785720179 174.51090119587025,265.52763967062583 174.5577006551539,265.56651897061874 174.7472001050519,265.82460808510496 174.87455601065085,265.9337979279444 174.91598504018475,266.05374014716926 174.94897482296074,266.09758079092444 175.0740291158072,266.14721151111735 175.22133233192653,266.22579305634645 175.38091081604944,266.24978100237695 175.4215726413313,266.26797872189854 175.4806473686258,266.33249768236965 175.54816134268185,266.4780776260768 175.76834896260698,266.6691485674892 175.83586293665576,266.6765928270588 175.94557314448684,266.6277914840839 176.0844371138519,266.655087175448 176.21869785770832,266.62531005445635 176.31843441028468,266.61869290622235 176.66060750605175,266.66087716244147 176.8309268496887,266.6319271989696 176.9843676998098,266.706369818221 177.09484511189294,266.7179497388697 177.16772951570238,266.8006631262524 177.29124940004476,266.8891658066368 177.51527304122283,267.0 177.31273111906194,266.9114981534867 177.06415694186944,266.7113326427525 176.96135157228855,266.70223412951054 176.87235587921896,266.6534328929274 176.86468383670945,266.6592228807349 176.86851985796602,266.6517786101713 176.8761919004719,266.6534328929274 176.86851985796602,266.671629987869 176.8900015769832,266.6807285247842 176.86851985796602,266.6666671465846 176.87235587921896,266.65426003421544 176.87158867496692,266.66832142724525 176.8570117942072,266.6724571278801 176.8708214707185,266.655087175448 176.86468383670945,266.6633585845675 176.87312308346736,266.65756859879457 176.96135157228855,266.706369818221 177.048045652602,266.7088512307473 177.1071203799038,266.757652237402 177.12860209891733,266.7700592407109 177.12783489466892,266.75930650526607 177.13704134567524,266.7617879066265 177.12860209891733,266.76592357439586 177.15698865619197,266.8031445188881 177.21299456648558,266.84615524139735 177.3948219738777,266.9487186373535" stroke="red" stroke-linecap="round" stroke-linejoin="round" stroke-width="0.5"><title>2018-10-02 115.6km</title><desc>1538462679000</desc></polyline></svg>