<?xml version="1.0" encoding="utf-8" ?>
<svg baseProfile="full" height="300mm" version="1.1" viewBox="0,0,200,300" width="200mm" xmlns="http://www.w3.org/2000/svg" xmlns:ev="http://www.w3.org/2001/xml-events" xmlns:xlink="http://www.w3.org/1999/xlink"><defs /><rect fill="#222222" height="300" width="200" x="0" y="0" /><text fill="#FFFFFF" style="font-size:12px; font-family:Arial; font-weight:bold;" x="10" y="20">MY TRACKS</text><text fill="#FFFFFF" style="font-size:4px; font-family:Arial" x="10" y="280">ATHLETE</text><text fill="#FFFFFF" style="font-size:9px; font-family:Arial" x="10" y="290">cashplk</text><text fill="#FFFFFF" style="font-size:4px; font-family:Arial" x="120" y="280">STATISTICS</text><text fill="#FFFFFF" style="font-size:3px; font-family:Arial" x="120" y="285">Number: 9</text><text fill="#FFFFFF" style="font-size:3px; font-family:Arial" x="120" y="290">Weekly: 1.5</text><text fill="#FFFFFF" style="font-size:3px; font-family:Arial" x="141" y="285">Total: 32.6 km</text><text fill="#FFFFFF" style="font-size:3px; font-family:Arial" x="141" y="290">Avg: 3.6 km</text><text fill="#FFFFFF" style="font-size:3px; font-family:Arial" x="167" y="285">Min: 1.2 km</text><text fill="#FFFFFF" style="font-size:3px; font-family:Arial" x="167" y="290">Max: 12.8 km</text><polyline fill="none" points="18.827722772257403,74.64276349998545 27.542574257589877,67.63984188385075 13.0,69.8969886029954 24.013861386105418,64.63030301913386 26.794059405801818,62.14163732982706 28.237623762339354,58.09030453232117 28.398019801825285,53.28655477281427 30.964356435462832,45.53104247560259 33.79801980196498,42.058400658133905 36.47128712851554,41.19023784820456 40.427722772117704,41.59538061008789 45.4000000001397,42.984439950145315 49.03564356430434,46.74646355013829 51.655445544514805,47.67249741521664 54.16831683157943,53.46018478466431 56.306930692866445,55.6016184987966 62.13465346535668,57.62729376339121 65.28910891083069,57.80092283315025 67.0,59.074201526585966 65.18217821791768,64.10942014335888 65.77029702952132,68.68160269921646 61.011881188023835,67.75559315242572 58.92673267330974,69.26035812176997 59.51485148514621,68.79735381732462 57.162376237567514,67.46621494926512 54.22178217815235,67.63984188385075 50.53267326718196,71.22812342678662 50.53267326718196,73.94826161471428 49.03564356430434,78.23101363680325 47.21782178198919,78.80976215185365 40.90891089104116,77.88376432680525 39.625742574222386,78.63613764120964" stroke="#4dd2ff" stroke-linecap="round" stroke-linejoin="round" stroke-width="0.5"><title>2020-09-23 2.9km</title></polyline><polyline fill="none" points="76.34595392784104,81.03456706256839 75.48710807971656,70.42066267604241 78.63620952377096,66.23705102439271 82.14316340442747,64.37766282219673 85.14912387309596,61.12372570083244 90.08748750109226,38.578318364627194 92.16303163440898,36.02159272128483 98.46123452205211,33.0 110.98606980964541,35.78916281484999 114.77930563967675,40.670180259330664 119.50295780552551,43.691751337843016 120.93436755239964,46.2484586678911 120.43337414087728,47.333120539668016 124.51289192028344,53.68611801206134 121.72164291376248,70.18824023520574 117.7852661088109,75.45646984135965 116.21071538701653,82.19666699378286 113.92045979155228,83.82360477937618 104.11530302325264,83.04887280875118 99.8926442693919,85.52801314205863 91.94832017272711,87.0 86.43739264598116,85.6829592223512 83.21672071469948,86.302743319422 80.71175365708768,84.36591682530707 78.92249147314578,84.98570168449078" stroke="#4dd2ff" stroke-linecap="round" stroke-linejoin="round" stroke-width="0.5"><title>2020-09-27 2.4km</title></polyline><polyline fill="none" points="171.56488549662754,65.65238433238119 171.19847328262404,64.8591136012692 154.84732824447565,65.00785193336196 153.29007633589208,64.51205736777047 153.1984732823912,57.02551583235618 155.03053435124457,49.88595633220393 157.27480916050263,46.762375662336126 159.88549618329853,45.07662779826205 162.5419847331941,44.77914245071588 169.00000000023283,46.46489104646025 171.47328244289383,49.489311956916936 173.80916030565277,50.580083436565474 175.18320610723458,53.852387459075544 175.45801526750438,52.3153981216019 176.6030534352176,52.51371952024056 180.5419847331941,42.597579288703855 182.92366412235424,39.37480281869648 184.43511450407095,59.306192776188254 187.0,59.15745320683345 186.5419847331941,60.24820929917041 184.29770992393605,61.23980424035108 183.8396946566645,62.38013664924074 179.67175572551787,63.76836484699743 178.57251908420585,65.30532850051532 175.3664122140035,67.33808158751344 172.57251908420585,70.80862170591718 168.5419847331941,72.09767498855945 166.43511450407095,71.70104346756125 166.02290076343343,70.75904268503655 161.67175572551787,70.95735874673119 159.10687022912316,72.29599066311494 157.45801526750438,74.32872301834868 156.679389313329,78.5429050399689 155.580152672017,79.48489512555534 149.80916030541994,78.69164040271426 147.61068702302873,79.08826787874568 146.09923664154485,80.22857059445232 141.70229007629678,80.62519718124531 139.0,79.78236540983198 136.02290076343343,80.0302572149667 134.053435114678,78.3941696449765 133.0,78.59248349774862" stroke="#4dd2ff" stroke-linecap="round" stroke-linejoin="round" stroke-width="0.5"><title>2020-09-28 3.7km</title></polyline><polyline fill="none" points="14.048450094182044,168.416365665209 13.8321871785447,161.0031719590188 16.859868000727147,158.11591431027045 23.708193670026958,154.4483056134195 26.88004976976663,149.84426853363402 28.826416012831032,137.28060974454274 32.6470608599484,126.58967925637262 40.288350554183125,123.0 51.822372734081,125.65324234141735 55.85928049730137,130.64756316010607 59.679925344418734,132.52042750484543 66.16781282098964,142.9771936639445 63.14013199834153,159.36445910675684 59.53575006732717,163.42221971513936 56.580156883690506,172.16195995541057 52.038635650184005,173.80065336806 44.90195942623541,173.02032348199282 39.92791236098856,176.06360684591345 32.21453502820805,177.0 23.78028130857274,176.21967242792016 21.689739788882434,174.26885102887172 19.887548822909594,174.97114713897463 16.211079253349453,169.82096504798392" stroke="#4dd2ff" stroke-linecap="round" stroke-linejoin="round" stroke-width="0.5"><title>2020-09-29 2.4km</title></polyline><polyline fill="none" points="117.61082809633808,123.0 117.89495008764789,123.81614483863814 118.15065987990238,123.81614483863814 118.02754035027465,124.01155876775738 118.43478187121218,123.60923553778412 118.43478187121218,124.29893146836548 117.80971349024912,125.17253918202914 117.12782071105903,126.94271984761872 116.28492547012866,127.97722586515738 116.55957672838122,129.16114681548788 117.13729144411627,130.26459393983532 116.58798892755294,130.52895959201123 116.18074740661541,131.20711162329826 116.01974494487513,132.9656868901584 115.68826928833732,133.7127842559712 115.6598570891656,134.01162157044018 115.83980101702036,134.0001278448035 115.2147326360573,134.574812436098 115.04425944131799,135.98852185490978 114.37183739512693,136.99994343046274 114.66543011949398,138.33316464279778 114.94955211080378,138.56302849339409 115.3757350978558,138.52854895099154 115.92503761441913,138.82737123961124 116.4364571988117,139.6433812018222 116.39857426664094,140.01115806699818 116.64481332577998,140.32146869860298 116.26598400401417,140.85014375549508 116.6732255248935,141.28687312336842 116.45539866492618,142.25226781808306 116.45539866492618,142.4361514186603 116.64481332577998,142.309731481153 116.26598400401417,143.36705672971584 116.44592793186894,143.71183417878638 116.16180594055913,144.49332513559784 116.00080347876064,146.25165647837275 116.25651327101514,146.74582222237223 116.5785181944957,148.17084404684283 116.55010599538218,149.1016936316737 116.73004992317874,149.63032023345295 116.5311645292677,149.9980587577811 116.59745966055198,150.15894391830807 116.8626401858055,149.9980587577811 116.89105238491902,150.1244685495185 116.70163772406522,150.06700957395515 116.61640112666646,150.40027115254634 116.56904746143846,152.41130779810192 116.16180594055913,152.91693322806532 116.25651327101514,153.04333916863106 116.09551080921665,153.62940089583572 116.16180594055913,154.31888069122942 116.25651327101514,154.23844163743343 116.07656934310216,154.7555486620622 116.39857426664094,156.2149245459659 116.17127667355817,156.41027238689276 116.11445227527292,156.78947588241863 115.7545644195634,157.08824121586076 116.12392300833017,157.60533286077407 115.90609614836285,157.29507820871368 115.95344981353264,157.4674420283045 115.64091562305111,157.31806006922125 115.77350588573609,157.37551469644677 115.92503761441913,158.49012764734653 116.0860400761594,158.50161843500246 116.37963280052645,158.94975807829906 116.55957672838122,158.74292465721373 116.56904746143846,158.89230439499806 116.77740358840674,158.8578321684763 116.6258718597237,159.04168389992992 116.70163772406522,159.69665282637288 116.55957672838122,159.75410602735792 116.80581578757847,159.86901232608216 116.60693039360922,159.82304982312053 116.76793285540771,160.36310784045054 117.46876710065408,160.73080517449125 117.58241589722456,160.05286211741623 118.1790720790159,160.39757952545915 118.28325014247093,160.1562774700651 118.5105477355537,160.93763430484978 119.15455758257303,160.868691310985 119.29661857825704,161.24787716337596 119.46709177305456,160.868691310985 119.68491863308009,161.66153274564567 120.30998701404314,161.68451355893922 120.44257727666991,161.55811901747802 120.28157481487142,161.61557110245485 120.5846382722957,161.6730231529873 120.68881633580895,161.51215732467972 120.21527968358714,161.69600396355963 120.10163088707486,161.54662859632663 120.28157481487142,161.50066689802043 120.19633821753087,161.35129122631042 119.2871478451998,161.17893439271575 120.33839921315666,161.28234853009053 119.91221622610465,160.98359627316677 119.67544790002285,161.0180677349781 119.8743332939921,160.83421979543346 119.59968203568133,160.74229569342424 119.65650643396657,160.09882451013254 119.67544790002285,160.30565500456578 120.08268942096038,160.0873339140453 119.88380402704934,159.01870245275495 120.1584552853601,158.67398008429154 120.12057235313114,158.38671049654658 120.2058089505299,158.53609078965383 120.55622607318219,158.49012764734653 121.14341152197449,159.2370259780364 121.28547251760028,159.35193289682502 121.43700424634153,159.22553527857235 121.4085920471698,159.4093863044909 121.46541644545505,159.0646653415315 121.29494325065752,158.82335992957815 121.46541644545505,158.7199431384288 121.38965058111353,158.8003784300672 121.35176764894277,158.61652623565897 121.38965058111353,158.94975807829906 121.19076518714428,158.93826734438335 121.32335544977104,158.94975807829906 121.29494325065752,158.22583915123687 121.73059697070858,157.86962306837086 121.59800670808181,157.68576908807154 121.91054089850513,158.26031160514685 121.59800670808181,158.03049501171336 121.61694817413809,157.15718692976225 121.49382864462677,157.2146416534306 121.4559457123978,158.26031160514685 121.22864811931504,158.9612488108105 121.31388471677201,159.61621828702482 121.50329937762581,159.85752170240448 121.53171157679753,162.19009005784028 121.7116555046523,162.36244507280935 121.68324330548057,162.95994005804096 122.65872880903771,163.92511639559234 122.87655566906324,164.92475306908455 122.6776702751522,165.0971031657973 122.8670849360642,165.22349303973897 122.59243367775343,165.29243290074373 122.60190441081068,165.47627228759666 122.34619461855618,165.59117172531842 122.33672388555715,166.7401585259795 122.15677995770238,167.01591330845258 122.14730922464514,167.57891019240196 121.78742136899382,168.11892450424057 121.73059697070858,168.50957125867717 121.50329937762581,168.67042534182838 121.14341152197449,171.39341421212885 121.36123838200001,171.8070260069071 121.55065304291202,171.1521398408804 121.53171157679753,171.29001098455046 121.70218477159506,171.1521398408804 121.92001163162058,171.57724189681176 122.21360435598763,171.33596798832878 121.79689210199285,171.50830655636673 121.93895309767686,172.43892946930282 122.20413362298859,172.74913509906764 122.40301901684143,173.56485622342734 122.70608247432392,173.72570182294294 122.97126299951924,173.6337900848157 122.71555320732296,173.78314661449986 122.80078980472172,173.90952503477456 122.61137514380971,173.9899475791026 122.46931414818391,174.54141463669657 121.97683602984762,175.03543451506266 121.34229691582732,173.93250291144795 121.171823721088,173.96696971614438 121.02029199234676,174.25419260677154 121.20023592025973,174.41503704956995 120.96346759411972,174.48397029959597 120.75511146709323,175.24223277794226 120.31945774710039,175.3341429737775 120.40469434444094,175.75922648330015 120.64146267058095,175.55242933576665 120.16792601835914,175.0699009231903 120.12057235313114,174.38057040598505 120.50887240795419,175.01245690276846 120.47098947578343,175.51796310113423 120.08268942096038,174.52992577203258 119.63756496785209,174.25419260677154 119.62809423485305,174.07037005593884 119.36291370959952,174.15079246530513 119.49550397222629,174.25419260677154 118.80414045997895,174.01292543648742 118.77572826080723,174.87459111327917 117.92336228681961,175.03543451506266 117.5445329649956,174.49545916976786 117.31723537197104,174.50694803858642 116.71110845712246,173.8635692648386 117.11834997806,174.00143650847167 117.05205484671751,173.00189449956815 117.5918866302236,173.11678491581551 117.67712322762236,172.737646019581 117.85706715547713,172.74913509906764 117.79077202419285,172.45041858461627 116.33227913535666,173.3695433468747 107.96962185704615,174.46099255506124 106.35959723946871,174.94352403278754 106.00918011681642,174.82863580605044 104.1434457070427,174.96650166162726 96.58580073749181,176.03495531938825 95.50613717042143,176.0579326865991 95.42090057302266,176.21877410282468 80.9212082818849,176.95404571172548 77.07609066576697,176.4715243544706 77.32232972490601,176.75873974065325 77.88110297452658,177.0 78.23152009717887,176.5404561256437 77.61592244933126,176.98851143000502 77.40756632236298,176.63236507674446 77.18973946233746,176.68980812645896 77.30338825884974,176.44854708639468 77.02873700053897,175.66731669504225" stroke="#ffff00" stroke-linecap="round" stroke-linejoin="round" stroke-width="0.5"><title>2020-11-14 12.8km</title></polyline><polyline fill="none" points="176.95580110501032,137.03032630411326 181.80883977899794,139.85039797454374 183.99668508279137,142.95029328175588 184.03646408836357,144.9092382658273 185.36906077340245,146.1793165919953 186.02541436464526,146.4161102573271 187.0,147.8583948817395 185.44861878454685,150.7859959320922 184.27513812156394,150.18325689103222 183.8574585635215,150.52767934952863 183.8773480663076,151.36720742401667 182.92265193373896,150.9582068627351 182.96243093919475,152.2282594020071 184.01657458557747,152.93862541057752 183.65856353589334,153.49830652747187 182.0475138121983,153.90730360196903 181.01325966848526,153.75662053460837 180.37679558002856,154.12256499461364 179.89944751386065,155.13429145683767 179.24309392261785,155.22039567795582 179.06408839777578,155.47870819206582 179.32265193364583,155.56481231370708 178.944751381292,155.26344777917257 178.06961325963493,155.3064998741902 177.29392265190836,155.80159851984354 177.0353591159219,157.63130376802292 176.23977900552563,158.7291215240839 176.37900552491192,159.6977808912634 176.4585635359399,159.48252352621057 176.10055248613935,159.33184327816707 175.7624309392413,159.7193066192267 174.40994475129992,158.44928600959247 172.89834254141897,158.599966703885 170.2331491712248,157.91114005068084 168.02541436452884,157.91114005068084 167.36906077351887,158.66454412098392 166.73259668506216,158.599966703885 165.65856353589334,160.34355205338215 165.2408839778509,159.82693523564376 164.48508287291043,159.99914094110136 163.55027624301147,161.46288541940157 163.3911602209555,162.66831665011705 162.8939226520015,162.96967369588674 162.05856353591662,162.51763801291236 160.3480662982911,162.47458695972455 159.1546961326385,161.979499401059 158.3988950275816,162.1301783103263 157.88176795572508,161.54898781189695 155.87292817689013,161.37678300205152 154.56022099452093,160.51575746029266 152.96906077349558,160.40812909265514 151.09944751381408,159.50404926974443 148.87182320433203,159.05200832965784 148.17569060774986,158.556915084715 148.67292817670386,157.88961419212865 148.21546961332206,157.09315633188817 147.32044198887888,157.48062258388381 146.26629834249616,156.74874146273942 145.4110497237416,157.0716304142843 145.01325966848526,155.86617654340807 144.53591160220094,155.392604045599 143.04419889498968,156.2966963428189 142.60662983427756,155.6939684494282 142.2287292816909,155.65091641043546 141.83093922643457,156.49043004959822 140.79668508283794,156.98552672806545 140.4585635359399,157.9757176171115 138.31049723760225,157.41604491020553 136.7591160221491,157.56672612699913 135.18784530379344,155.93075455297367 134.2530386740109,156.1244884976768 134.03425414359663,156.53348196737352 133.05966850824188,155.90922855131794 133.0,156.83484521735227 133.27845303865615,156.447378125682 133.5370165745262,156.6626376832428 134.2132596685551,158.08334686327726" stroke="#4dd2ff" stroke-linecap="round" stroke-linejoin="round" stroke-width="0.5"><title>2020-12-19 3.7km</title></polyline><polyline fill="none" points="19.521354933734983,264.40651042119134 14.113402062095702,261.56559582729824 13.0,257.00290062080603 15.942562591750175,252.35409883467946 21.50957290129736,249.68533404904883 24.213549337349832,246.75829482183326 26.837997054681182,238.66585478547495 26.360824742354453,233.15607688843738 28.985272459685802,222.7390833401587 30.89396170852706,219.3815205314895 34.15463917516172,217.57359817204997 42.10751104541123,215.59348957880866 52.20765832159668,217.74578137218487 55.38880706951022,219.98416070779786 57.217967599630356,223.85826883779373 61.75110456580296,226.09663667483255 64.5346097201109,234.01698136655614 67.0,237.4605930504622 65.8865979379043,249.857512602699" stroke="#4dd2ff" stroke-linecap="round" stroke-linejoin="round" stroke-width="0.5"><title>2020-12-28 1.5km</title></polyline><polyline fill="none" points="73.0,264.69684855348896 73.0,257.76763675012626 75.8723404253833,254.214179634233 82.93009118549526,250.03885438444559 86.21276595722884,244.35328228131402 87.85410334356129,239.64489795744885 87.19756838912144,235.38068525504787 90.80851063830778,221.3442138467217 96.96352583589032,216.90225909184664 102.46200607903302,215.30315144651104 116.49544072942808,219.30091665545478 119.03951367782429,224.00937898654956 124.1276595746167,226.8522154261591 127.0,233.8704397053225" stroke="#4dd2ff" stroke-linecap="round" stroke-linejoin="round" stroke-width="0.5"><title>2020-12-29 1.2km</title></polyline><polyline fill="none" points="135.30358368973248,257.11288347508525 134.81176316575147,251.40873549628304 135.93592436332256,247.91017609176924 143.94557289639488,243.04259581508813 146.755975890439,238.85950100969058 148.0909173125401,234.5242761032423 147.80987701308914,230.7974895258667 151.74444120493717,216.65079164708732 159.54330951347947,213.0 171.55778231285512,216.04232725303154 175.21130620525219,220.52974387956783 180.27003159420565,224.25656685658032 182.30757376505062,229.80874801246682 185.18823683424853,233.30736765317852 181.95627339091152,248.822844884824 178.30274949851446,254.8312279971433 176.1949472532142,262.6648911226657 173.73584463330917,263.72965636249864 166.70983714819886,263.5775471084635 162.91579310619272,267.0" stroke="#4dd2ff" stroke-linecap="round" stroke-linejoin="round" stroke-width="0.5"><title>2021-01-04 2.0km</title></polyline></svg>