<?xml version="1.0" encoding="utf-8" ?>
<svg baseProfile="full" height="200mm" version="1.1" viewBox="0,0,200,200" width="200mm" xmlns="http://www.w3.org/2000/svg" xmlns:ev="http://www.w3.org/2001/xml-events" xmlns:xlink="http://www.w3.org/1999/xlink"><defs /><rect fill="#1a1a1a" height="200" width="200" x="0" y="0" /><text alignment-baseline="middle" fill="#e1ed5e" style="dominant-baseline: central; font-size:9.0px; font-family:Arial;" text-anchor="middle" x="100.0" y="100.0">2024</text><line stroke="#e1ed5e" stroke-width="0.3" x1="100.0" x2="100.0" y1="15.0" y2="10.0" /><path d="M 100.0 14.0 a86.0,86.0 0 0,1 42.35913384403234,11.155469271406648" fill="none" id="id73" stroke="none" /><text fill="#e1ed5e" style="font-size:6.75px; font-family:Arial;" text-anchor="middle"><textPath startOffset="22.145653131862478" xlink:href="#id73">January</textPath></text><line stroke="#e1ed5e" stroke-width="0.3" x1="143.13028292997686" x2="145.6673583964461" y1="26.7553504044142" y2="22.446841604673864" /><path d="M 143.63769802327073 25.89364864446614 a86.0,86.0 0 0,1 29.32050498858742,28.57503671076993" fill="none" id="id74" stroke="none" /><text fill="#e1ed5e" style="font-size:6.75px; font-family:Arial;" text-anchor="middle"><textPath startOffset="20.669276256404974" xlink:href="#id74">February</textPath></text><path d="M 114.13192950727249 84.46653392183569 l 10.434365012400661 -11.469194980338708 a36.505431522825724,36.505431522825724 0 0,0 0.4599166841083998,0.4256920166533244 l -10.629711467823025 11.288385217553008" fill="#ffb510" stroke="none" /><path d="M 116.7966241395341 87.39550010848427 l 29.565267437431633 -22.186327866361193 a57.96401199600133,57.96401199600133 0 0,0 0.5903992906077896,0.8009900271763253 l -29.941768747623247 21.675531529915993" fill="#4cff2c" stroke="none" /><path d="M 117.42321728460499 88.27688183743584 l 7.797194539561649 -5.246300463953238 a30.39786737754082,30.39786737754082 0 0,0 0.2875863503260158,0.4354423887021423 l -7.886105328808389 5.111678196912037" fill="#ff6108" stroke="none" /><line stroke="#e1ed5e" stroke-width="0.3" x1="172.87174338648825" x2="177.1583165268699" y1="56.24261187166439" y2="53.66864786411523" /><path d="M 173.72905801456457 55.72781907015455 a86.0,86.0 0 0,1 12.242430191666344,42.057860355516425" fill="none" id="id75" stroke="none" /><text fill="#e1ed5e" style="font-size:6.75px; font-family:Arial;" text-anchor="middle"><textPath startOffset="22.145653131862474" xlink:href="#id75">March</textPath></text><path d="M 119.71291397450082 92.76114493625339 l 12.03072374018603 -4.417848400283878 a33.81622792402533,33.81622792402533 0 0,0 0.19542531764833201,0.5466393946315293 l -12.104789227878305 4.210674049271432" fill="#ff900d" stroke="none" /><line stroke="#e1ed5e" stroke-width="0.3" x1="184.99686870605535" x2="189.99668451229388" y1="99.2704041080226" y2="99.22748670261217" /><path d="M 185.99683186730306 99.26182062694052 a86.0,86.0 0 0,1 -10.086455211305974,41.156179273409016" fill="none" id="id76" stroke="none" /><text fill="#e1ed5e" style="font-size:6.75px; font-family:Arial;" text-anchor="middle"><textPath startOffset="21.40746469413373" xlink:href="#id76">April</textPath></text><path d="M 120.96210409425399 101.26102812881392 l 16.42648499222059 0.9881765465713829 a37.456181272909035,37.456181272909035 0 0,0 -0.044119883551190585,0.6414934238508889 l -16.407101147504335 -1.2700133945766154" fill="#ffc112" stroke="none" /><path d="M 120.9064616781168 101.97986365728391 l 7.952490132497922 0.7531090837203694 a28.98807064311896,28.98807064311896 0 0,0 -0.051167544062517695,0.49499957335073214 l -7.938390195953738 -0.889513179354033" fill="#ff4d07" stroke="none" /><path d="M 120.86939407059847 102.33845913500097 l 7.566806960419258 0.8478765027639344 a28.614161946017994,28.614161946017994 0 0,0 -0.058887827749286685,0.4876756900008297 l -7.551137046410307 -0.9776458696881728" fill="#ff4706" stroke="none" /><path d="M 120.43855184770803 104.8234425847677 l 7.796979486943602 1.8400659288442407 a29.011162945684774,29.011162945684774 0 0,0 -0.1185485548099045,0.4837185584179453 l -7.7642434056174015 -1.9736403118702854" fill="#ff4d07" stroke="none" /><path d="M 120.26092885502905 105.52220625578681 l 7.714591149065823 2.1026461229409272 a28.996001332889037,28.996001332889037 0 0,0 -0.13501298733987555,0.4791134619528714 l -7.677359669651368 -2.234767508796807" fill="#ff4d07" stroke="none" /><path d="M 119.31412917781788 108.2440532568976 l 7.214641388981621 3.079501399860786 a28.84438520493169,28.84438520493169 0 0,0 -0.19829294845920278,0.4537330717707325 l -7.160714558505453 -3.202896541407363" fill="#ff4b07" stroke="none" /><path d="M 118.8641267826498 109.22738970284198 l 14.599111780307958 7.1411571425693 a37.25208263912029,37.25208263912029 0 0,0 -0.28591875775319653,0.5720290448891366 l -14.474373109343029 -7.390718043622183" fill="#ffbf11" stroke="none" /><line stroke="#e1ed5e" stroke-width="0.3" x1="174.33088141563837" x2="178.70328620479359" y1="141.23008692659167" y2="143.65538615756765" /><path d="M 175.20536237346943 141.71514677278685 a86.0,86.0 0 0,1 -30.301960400862466,31.631185727798858" fill="none" id="id77" stroke="none" /><text fill="#e1ed5e" style="font-size:6.75px; font-family:Arial;" text-anchor="middle"><textPath startOffset="22.145653131862474" xlink:href="#id77">May</textPath></text><path d="M 118.18653347947321 110.5 l 14.372674187098957 8.298067310896364 a37.596134621792736,37.596134621792736 0 0,0 -0.3274914961822106,0.5561521569970642 l -14.228108980786981 -8.543570636186978" fill="#ffc312" stroke="none" /><path d="M 117.21940702142032 112.02048342749411 l 6.973448628245974 4.868008727828895 a29.504498500499835,29.504498500499835 0 0,0 -0.293478298199992,0.41281397971248296 l -6.888855231516021 -4.986999934250882" fill="#ff5407" stroke="none" /><path d="M 117.01052211995028 112.31430620078461 l 12.954108708940481 9.377775712895632 a36.99223592135955,36.99223592135955 0 0,0 -0.37678878831701795,0.5111863557340829 l -12.791217901039635 -9.598768377898592" fill="#ffbb11" stroke="none" /><path d="M 116.79662413953412 112.60449989151573 l 6.701112360810687 5.028639643490637 a29.378073975341554,29.378073975341554 0 0,0 -0.306158733268689,0.4007716096760856 l -6.613801650187694 -5.1429321664076" fill="#ff5207" stroke="none" /><line stroke="#e1ed5e" stroke-width="0.3" x1="143.1302829299769" x2="145.66735839644613" y1="173.24464959558577" y2="177.55315839532614" /><path d="M 143.63769802327073 174.10635135553383 a86.0,86.0 0 0,1 -40.68552437913181,11.842963189579606" fill="none" id="id78" stroke="none" /><text fill="#e1ed5e" style="font-size:6.75px; font-family:Arial;" text-anchor="middle"><textPath startOffset="21.407464694133747" xlink:href="#id78">June</textPath></text><path d="M 100.72087961077811 120.9876233191556 l 0.2774862036156329 8.078708054263442 a29.083472175941353,29.083472175941353 0 0,0 -0.49910934060967793,0.012855286151389832 l -0.13876354893521117 -8.082281057764877" fill="#ff4e07" stroke="none" /><line stroke="#e1ed5e" stroke-width="0.3" x1="101.45913802915013" x2="101.54496967792366" y1="184.9874750549273" y2="189.98673829345242" /><path d="M 101.47630435890484 185.9873277026323 a86.0,86.0 0 0,1 -42.54439059252881,-10.42667462771756" fill="none" id="id79" stroke="none" /><text fill="#e1ed5e" style="font-size:6.75px; font-family:Arial;" text-anchor="middle"><textPath startOffset="22.145653131862474" xlink:href="#id79">July</textPath></text><path d="M 98.19965949673042 120.92268563240118 l -0.7727886121165509 8.98097507790896 a30.014161946017992,30.014161946017992 0 0,0 -0.5129569441456532,-0.048577555929917665 l 0.9268451196472194 -8.96638576647386" fill="#ff5b08" stroke="none" /><path d="M 97.48249496171623 120.84855314841334 l -1.8718403561336838 15.501523356156715 a36.61412862379207,36.61412862379207 0 0,0 -0.6233506197689888,-0.08070521764327089 l 2.137668797793467 -15.467106542313047" fill="#ffb610" stroke="none" /><path d="M 96.76829788921471 120.74984581791261 l -1.8102629029102861 11.623186431668907 a32.76331222925692,32.76331222925692 0 0,0 -0.5549832016401605,-0.09132227463401008 l 2.0095236076035103 -11.590398158539228" fill="#ff820c" stroke="none" /><path d="M 95.70440661134978 120.55596938700252 l -4.334383985395436 20.741596434782505 a42.18963678773741,42.18963678773741 0 0,0 -0.7076559859918574,-0.1542303284791723 l 4.68980238800643 -20.664134648169615" fill="#fffe18" stroke="none" /><path d="M 95.35216902796893 120.47920084513623 l -0.6096954768375762 2.6864307673115504 a23.754748417194268,23.754748417194268 0 0,0 -0.39689416264722666,-0.09366594169796949 l 0.6557217932246908 -2.6755686819673534" fill="#ff0000" stroke="none" /><path d="M 95.00130118170881 120.39639698878247 l -1.9055353042736152 7.7752343069533945 a29.00533155614795,29.00533155614795 0 0,0 -0.4825861578076659,-0.12267151417621953 l 2.03872675530666 -7.741377560941912" fill="#ff4d07" stroke="none" /><path d="M 92.59220618246901 119.65005319985036 l -5.951413160302306 15.786830478120375 a37.871376207930695,37.871376207930695 0 0,0 -0.6063527208880458,-0.234550258379515 l 6.22153814368388 -15.68234033160282" fill="#ffc712" stroke="none" /><path d="M 92.25597844496254 119.51999308798841 l -3.007377825489002 7.580556684831044 a29.15531489503499,29.15531489503499 0 0,0 -0.46363273056118215,-0.18855539529473114 l 3.1370650172406247 -7.527814032957021" fill="#ff4f07" stroke="none" /><path d="M 91.92203290615298 119.3841803445677 l -6.608266982803875 15.857435103603361 a38.17927357547484,38.17927357547484 0 0,0 -0.6028051415761837,-0.25730166992945425 l 6.87950719955049 -15.741658784014504" fill="#ffcb12" stroke="none" /><path d="M 90.28995756902619 118.62028667847754 l -3.926942629254209 7.53043027838906 a29.49283572142619,29.49283572142619 0 0,0 -0.44690238955844847,-0.23795035056267744 l 4.055633834599219 -7.46190946010381" fill="#ff5407" stroke="none" /><line stroke="#e1ed5e" stroke-width="0.3" x1="58.13341422392154" x2="55.67067388415222" y1="173.97424548756322" y2="178.32567169271397" /><path d="M 57.64086615596768 174.84453072859336 a86.0,86.0 0 0,1 -31.369924170532247,-30.572349798747897" fill="none" id="id80" stroke="none" /><text fill="#e1ed5e" style="font-size:6.75px; font-family:Arial;" text-anchor="middle"><textPath startOffset="22.145653131862474" xlink:href="#id80">August</textPath></text><path d="M 89.65649057296885 118.27599006163327 l -8.105919850213878 14.322383681089335 a37.457114295234916,37.457114295234916 0 0,0 -0.5568758673898208,-0.32151243194272183 l 8.350588185464098 -14.18112435187044" fill="#ffc112" stroke="none" /><path d="M 88.72937992617639 117.7192867562869 l -11.377279723972423 17.88697344201784 a42.198733755414864,42.198733755414864 0 0,0 -0.6078915838844815,-0.3940279803361658 l 11.682656940113915 -17.689031619977783" fill="#fffe18" stroke="none" /><path d="M 88.1277618465304 117.32195027204791 l -8.825650148808833 12.876887324862276 a36.61109630123292,36.61109630123292 0 0,0 -0.5153533230549738,-0.3597566438484323 l 9.045398563037573 -12.723485865208714" fill="#ffb610" stroke="none" /><path d="M 86.68645165197938 116.24036423190432 l -24.248462627642795 29.57918166085208 a59.24808397200933,59.24808397200933 0 0,0 -0.7810185854849322,-0.6515534819000934 l 24.75265554728962 -29.158565995040114" fill="#3fff2d" stroke="none" /><path d="M 86.13680546590413 115.77377054828092 l -10.334185400113757 11.758405965080854 a36.6542485838054,36.6542485838054 0 0,0 -0.4690608814275447,-0.4194371325454353 l 10.53451130836467 -11.579273302652036" fill="#ffb710" stroke="none" /><path d="M 85.34317274990678 115.03919595460226 l -5.5775064044006815 5.723012922411125 a28.99133622125958,28.99133622125958 0 0,0 -0.35342934851768254,-0.35040860300655247 l 5.674927673048327 -5.6264243091759125" fill="#ff4d07" stroke="none" /><line stroke="#e1ed5e" stroke-width="0.3" x1="26.387840678322732" x2="22.057713659400548" y1="142.50000000000003" y2="145.00000000000006" /><path d="M 25.521815274538298 143.00000000000003 a86.0,86.0 0 0,1 -11.493303480769221,-40.785679425670985" fill="none" id="id81" stroke="none" /><text fill="#e1ed5e" style="font-size:6.75px; font-family:Arial;" text-anchor="middle"><textPath startOffset="21.40746469413373" xlink:href="#id81">September</textPath></text><path d="M 81.81346652052679 110.50000000000001 l -25.26883786457073 14.588970343218937 a50.17794068643785,50.17794068643785 0 0,0 -0.4242822894213162,-0.7496661514637006 l 25.515553519013427 -14.153047421656115" fill="#a1ff22" stroke="none" /><path d="M 81.63589988554817 110.18625677009913 l -14.1376849820355 7.841935540770529 a37.166944351882705,37.166944351882705 0 0,0 -0.3046886814649936,-0.5605928560941832 l 14.270219013115824 -7.598087851201759" fill="#ffbd11" stroke="none" /><path d="M 81.29705330413844 109.54985784667822 l -14.761471546904747 7.53731255149855 a37.574441852715765,37.574441852715765 0 0,0 -0.2883929428019652,-0.576979072377536 l 14.888684402918448 -7.282801622957262" fill="#ffc312" stroke="none" /><path d="M 80.68587082218212 108.24405325689762 l -22.00969768963929 9.394631166182506 a44.93085638120627,44.93085638120627 0 0,0 -0.29670231251982093,-0.7119775393632477 l 22.167725846695596 -9.015421117377977" fill="#deff1b" stroke="none" /><path d="M 80.5471966667186 107.91128576633889 l -14.71114200762483 5.982893384440563 a36.88120626457847,36.88120626457847 0 0,0 -0.23347792522193975,-0.5885168906284252 l 14.811678607812894 -5.729475476598572" fill="#ffba11" stroke="none" /><path d="M 80.28708602549918 107.23885506374661 l -15.03703617903859 5.521807969596781 a37.01882705764745,37.01882705764745 0 0,0 -0.21393326461375084,-0.5984094162786389 l 15.129609613696285 -5.262863596937222" fill="#ffbb11" stroke="none" /><path d="M 79.83685265289637 105.86919833188381 l -21.038832186903424 6.124097426381925 a42.91202932355881,42.91202932355881 0 0,0 -0.1998096635903635,-0.7090540068817714 l 21.140860342568363 -5.762035495597158" fill="#f7ff18" stroke="none" /><path d="M 79.56144815229197 104.8234425847677 l -23.51875035342504 5.550361045171215 a45.16481172942352,45.16481172942352 0 0,0 -0.17160292456194787,-0.7561141484844409 l 23.610564139544653 -5.145812562747748" fill="#dbff1b" stroke="none" /><path d="M 79.2786578344484 103.40968896794605 l -15.228563860754438 2.5058543881389554 a36.433355548150615,36.433355548150615 0 0,0 -0.09625086677177945,-0.6179996103878392 l 15.269336219664485 -2.244066595819666" fill="#ffb410" stroke="none" /><path d="M 79.17382384314188 102.69636545807758 l -15.510331126483809 2.008122891970475 a36.63978673775408,36.63978673775408 0 0,0 -0.07540453060460289,-0.6244576833152553 l 15.542517743348073 -1.7415715317318203" fill="#ffb610" stroke="none" /><path d="M 79.01933749520258 100.90099992219065 l -62.94198751439227 2.7029997665719474 a84.0,84.0 0 0,0 -0.049501252012607466,-1.4411749417435205 l 62.97911345340172 -1.6221185602643071" fill="#4dd2ff" stroke="none" /><line stroke="#e1ed5e" stroke-width="0.3" x1="15.003131293944662" x2="10.003315487706104" y1="100.72959589197737" y2="100.7725132973878" /><path d="M 14.003168132696942 100.73817937305945 a86.0,86.0 0 0,1 10.791469493833604,-42.45332614584628" fill="none" id="id82" stroke="none" /><text fill="#e1ed5e" style="font-size:6.75px; font-family:Arial;" text-anchor="middle"><textPath startOffset="22.145653131862435" xlink:href="#id82">October</textPath></text><path d="M 79.00077361379809 99.81974689727619 l -15.879454985811682 -0.13630602280836648 a36.88003998667111,36.88003998667111 0 0,0 0.010868316671497437,-0.6330249596371557 l 15.874775237541519 0.4088778984145745" fill="#ffba11" stroke="none" /><path d="M 79.00696218219943 99.45929381324524 l -15.953123129430681 -0.41089586219053376 a36.95841386204599,36.95841386204599 0 0,0 0.021779616173464748,-0.634089761244813 l 15.943718826260366 0.6846918879994852" fill="#ffbb11" stroke="none" /><path d="M 79.03789590574601 98.7389718711861 l -16.310766168108135 -0.9812151894679652 a37.34025324891703,37.34025324891703 0 0,0 0.04398333116531267,-0.6395079821293258 l 16.291518875777758 1.2610665957516158" fill="#ffc011" stroke="none" /><path d="M 79.06263194458094 98.37931529534042 l -44.177079149254745 -3.419585321527657 a65.30923025658115,65.30923025658115 0 0,0 0.0961177005538032,-1.117033377155206 l 44.1118678260032 4.1774397460585435" fill="#35ff66" stroke="none" /><path d="M 79.13060592940154 97.66154086499901 l -8.212847183397798 -0.9202666572596376 a29.264245251582807,29.264245251582807 0 0,0 0.060225696521848414,-0.49875516264784725 l 8.195839400616281 1.061115496830921" fill="#ff5107" stroke="none" /><path d="M 79.22317932658666 96.9465228501225 l -8.139492004346202 -1.1962250258378213 a29.22692435854715,29.22692435854715 0 0,0 0.07721267394285326,-0.4957607553480986 l 8.117757838265081 1.33577396311737" fill="#ff5007" stroke="none" /><path d="M 79.2786578344484 96.59031103205396 l -42.82456746297007 -7.046766279372565 a64.40046651116296,64.40046651116296 0 0,0 0.1888625944607249,-1.089309256568054 l 42.69729005101711 7.780868568861212" fill="#34ff5b" stroke="none" /><path d="M 79.34024301695615 96.23510406497455 l -23.594989145324345 -4.299793012720775 a44.983572142619124,44.983572142619124 0 0,0 0.14496214825161954,-0.7585032148257276 l 23.517700704790567 4.704198792579818" fill="#deff1b" stroke="none" /><path d="M 79.56144815229197 95.17655741523228 l -13.145328292676723 -3.1022616841984854 a34.50643118960346,34.50643118960346 0 0,0 0.14100391483214417,-0.5753440902190683 l 13.090136851328282 3.3274615990256713" fill="#ff9a0e" stroke="none" /><path d="M 79.73907114497095 94.47779374421319 l -7.9535904431238125 -2.167786443319088 a29.243718760413195,29.243718760413195 0 0,0 0.13616642465428747,-0.4832066040701037 l 7.915205526394943 2.304000971292205" fill="#ff5107" stroke="none" /><path d="M 79.94057633289273 93.78553927170692 l -41.88126032107245 -12.97492150502332 a64.84505164945018,64.84505164945018 0 0,0 0.3385383651440909,-1.060466607062014 l 41.652357240151105 13.691957145776726" fill="#35ff61" stroke="none" /><path d="M 80.05021161711548 93.44210830539832 l -18.731040897536694 -6.157265188766859 a40.717094301899365,40.717094301899365 0 0,0 0.22397228490867452,-0.6621342630655375 l 18.622583191055657 6.477901126306558" fill="#ffeb16" stroke="none" /><path d="M 80.28708602549916 92.7611449362534 l -7.332950005620714 -2.692760814005039 a28.81172942352549,28.81172942352549 0 0,0 0.17447466328158248,-0.462814773191372 l 7.285644658524696 2.818243867390556" fill="#ff4a06" stroke="none" /><path d="M 80.41425534168474 92.42381321644754 l -14.840177247713367 -5.740499362732582 a36.91176274575142,36.91176274575142 0 0,0 0.23367136422647525,-0.5890044832835652 l 14.73944720852076 5.994404863229731" fill="#ffba11" stroke="none" /><path d="M 80.83023694016515 91.42560881287825 l -19.85538604164834 -8.881061626114656 a42.75108297234255,42.75108297234255 0 0,0 0.3053965042915365,-0.6673464771708878 l 19.700005072501757 9.220597085500215" fill="#f9ff18" stroke="none" /><path d="M 80.9802524753101 91.09779779509293 l -38.94474461222881 -18.228106913957504 a63.99950016661113,63.99950016661113 0 0,0 0.4742690336249147,-0.9910398727745384 l 38.62609632064399 18.893959288797127" fill="#33ff57" stroke="none" /><path d="M 81.1358732173502 90.77261029715801 l -10.662432740072207 -5.215530154487617 a32.86967677440853,32.86967677440853 0 0,0 0.2522827312000519,-0.5047344599019215 l 10.571330095660413 5.397796470553308" fill="#ff830c" stroke="none" /><path d="M 81.46374523516351 90.13048839642627 l -12.530656461654045 -6.671868773798741 a35.19616794401866,35.19616794401866 0 0,0 0.28853257082294936,-0.5308674322134974 l 12.414278541215745 6.885991039486858" fill="#ffa30f" stroke="none" /><line stroke="#e1ed5e" stroke-width="0.3" x1="26.387840678322718" x2="22.05771365940052" y1="57.49999999999999" y2="54.99999999999999" /><path d="M 25.521815274538284 56.99999999999999 a86.0,86.0 0 0,1 29.574782752854787,-30.34633250058573" fill="none" id="id83" stroke="none" /><text fill="#e1ed5e" style="font-size:6.75px; font-family:Arial;" text-anchor="middle"><textPath startOffset="21.40746469413373" xlink:href="#id83">November</textPath></text><path d="M 82.18462484594161 88.88188828441811 l -14.704857748230953 -9.176918801472906 a38.333455514828394,38.333455514828394 0 0,0 0.3531831171888218,-0.5552625223773451 l 14.545156939416241 9.427994998528924" fill="#ffcd13" stroke="none" /><path d="M 82.576782715395 88.27688183743585 l -7.012636915749715 -4.718415080958288 a29.452249250249917,29.452249250249917 0 0,0 0.2858414605273536,-0.4170512333849494 l 6.930605718407048 4.838101049413273" fill="#ff5307" stroke="none" /><path d="M 82.98947788004972 87.6856937992154 l -6.80383096233933 -4.92544892025162 a29.399533488837054,29.399533488837054 0 0,0 0.2994524208781016,-0.406264720423775 l 6.718276521877409 5.0415199499442584" fill="#ff5307" stroke="none" /><path d="M 83.64595745247003 86.82634096563983 l -13.886313257202364 -11.1858309994631 a38.831222925691435,38.831222925691435 0 0,0 0.4226190244057435,-0.5155264928828546 l 13.69224741355799 11.422559774044448" fill="#ffd313" stroke="none" /><path d="M 85.34317274990677 84.96080404539775 l -9.41224555663823 -9.657793114687644 a34.48567144285238,34.48567144285238 0 0,0 0.42750329142779797,-0.40953848267214504 l 9.24506977934513 9.817943727665357" fill="#ff9a0e" stroke="none" /><line stroke="#e1ed5e" stroke-width="0.3" x1="56.869717070023135" x2="54.33264160355391" y1="26.7553504044142" y2="22.446841604673864" /><path d="M 56.362301976729285 25.89364864446614 a86.0,86.0 0 0,1 42.16139366436587,-11.88097634709845" fill="none" id="id84" stroke="none" /><text fill="#e1ed5e" style="font-size:6.75px; font-family:Arial;" text-anchor="middle"><textPath startOffset="22.145653131862474" xlink:href="#id84">December</textPath></text><path d="M 89.34428304082924 81.90426304109057 l -7.629318173810364 -12.95625018739645 a36.035654781739424,36.035654781739424 0 0,0 0.5357429927829263,-0.30931136109967655 l 7.405782713167038 13.0853084457723" fill="#ffae10" stroke="none" /><path d="M 89.97174638481275 81.54914285379989 l -3.8267316777713893 -7.040755273327832 a29.0134955014995,29.0134955014995 0 0,0 0.4396389886525436,-0.23408299869296287 l 3.7053038733322836 7.10540873974337" fill="#ff4d07" stroke="none" /><path d="M 91.26138138417902 80.90454125486306 l -18.63491249800758 -40.720646874404174 a65.7820393202266,65.7820393202266 0 0,0 1.0308565463386312,-0.4610890212113526 l 17.93314254881333 41.03453964652537" fill="#36ff6c" stroke="none" /><path d="M 92.25597844496254 80.48000691201159 l -2.9932711995306995 -7.544998772286 a29.117060979673443,29.117060979673443 0 0,0 0.46618873981112097,-0.1803318194337058 l 2.863310197226049 7.595270479857747" fill="#ff4f07" stroke="none" /><path d="M 92.592206182469 80.34994680014964 l -3.0836597678508184 -8.179773895043786 a29.741719426857713,29.741719426857713 0 0,0 0.47928192869085,-0.17599896296173384 l 2.9427886875058413 8.231503707014241" fill="#ff5808" stroke="none" /><path d="M 93.61358852112211 79.99465700312896 l -11.595986720561687 -36.324263242236 a59.130289903365544,59.130289903365544 0 0,0 0.969622343297182,-0.3003914805177857 l 10.970723744392888 36.517971310560426" fill="#40ff2d" stroke="none" /><path d="M 95.35216902796891 79.52079915486377 l -2.6658302314088806 -11.746139878275514 a33.044851716094634,33.044851716094634 0 0,0 0.554268510078893,-0.12080024202058193 l 2.4637993047108693 11.79017157842981" fill="#ff860c" stroke="none" /><path d="M 96.05791012581881 79.37332000966035 l -9.87865041112982 -51.689273271359866 a73.62479173608797,73.62479173608797 0 0,0 1.2434360180156636,-0.22659546351555174 l 8.989879659563117 51.851236908806776" fill="#40ffc4" stroke="none" /><path d="M 96.41257539226777 79.30868818359171 l -2.630299881777232 -15.17087074309798 a36.397200933022326,36.397200933022326 0 0,0 0.6165382475130347,-0.10145113400795189 l 2.3694841312111246 15.2137878756016" fill="#ffb310" stroke="none" /><path d="M 97.48249496171623 79.15144685158666 l -2.141039745265733 -17.730880472226634 a38.85968010663112,38.85968010663112 0 0,0 0.6629537265468358,-0.07428534784871904 l 1.8363501171180978 17.765021580582324" fill="#ffd413" stroke="none" /></svg>