<?xml version="1.0" encoding="utf-8" ?>
<svg baseProfile="full" height="200mm" version="1.1" viewBox="0,0,200,200" width="200mm" xmlns="http://www.w3.org/2000/svg" xmlns:ev="http://www.w3.org/2001/xml-events" xmlns:xlink="http://www.w3.org/1999/xlink"><defs /><rect fill="#1a1a1a" height="200" width="200" x="0" y="0" /><text alignment-baseline="middle" fill="#e1ed5e" style="dominant-baseline: central; font-size:9.0px; font-family:Arial;" text-anchor="middle" x="100.0" y="100.0">2025</text><line stroke="#e1ed5e" stroke-width="0.3" x1="100.0" x2="100.0" y1="15.0" y2="10.0" /><path d="M 100.0 14.0 a86.0,86.0 0 0,1 42.46469731375804,11.215312516191453" fill="none" id="id85" stroke="none" /><text fill="#e1ed5e" style="font-size:6.75px; font-family:Arial;" text-anchor="middle"><textPath startOffset="22.20632615414155" xlink:href="#id85">January</textPath></text><path d="M 100.36148047927253 79.00311137660856 l 0.28879053690592965 -16.774634002661195 a37.77711971398677,37.77711971398677 0 0,0 0.6500783268423663,0.01678960526445723 l -0.5774954989431638 16.76717760525438" fill="#ff880c" stroke="none" /><path d="M 101.44485096284872 79.0497635885617 l 4.334552888546152 -62.8507092343149 a84.0,84.0 0 0,0 1.4416392425506352,0.11189895124614191 l -5.415782320459128 62.76678502088029" fill="#4dd2ff" stroke="none" /><path d="M 101.80526077348638 79.07773832637324 l 0.7500284230851783 -8.692534154021583 a29.72483195564633,29.72483195564633 0 0,0 0.5093914343953367,0.04837285459343065 l -0.8995449845707592 8.678335754912975" fill="#ff0901" stroke="none" /><path d="M 102.52436894288641 79.15227682838746 l 1.9179176879023567 -15.839292087633149 a36.95498612017343,36.95498612017343 0 0,0 0.6308484872513881,0.08190223911804408 l -2.190280903661591 15.803931525350968" fill="#ff7b0b" stroke="none" /><path d="M 102.88285421437855 79.19881850522331 l 2.2383972964076286 -16.151114471124743 a37.30548745410391,37.30548745410391 0 0,0 0.6353142625627225,0.09362880761404989 l -2.516080539399007 16.110191179349723" fill="#ff810b" stroke="none" /><path d="M 103.59715602781102 79.31037775812273 l 2.2757123756978146 -13.089126248717266 a34.28548428819076,34.28548428819076 0 0,0 0.5805754994395462,0.10609646157737587 l -2.5006829962402617 13.04801430578915" fill="#ff5207" stroke="none" /><path d="M 103.95276090670814 79.375362276772 l 8.041604995873687 -41.959327585872124 a63.722974877320866,63.722974877320866 0 0,0 1.0755029897716668,0.2157357819413788 l -8.762674395112478 41.814687847853534" fill="#31ff3b" stroke="none" /><path d="M 104.307194497241 79.44645832069477 l 3.5086617336574375 -16.743015721139454 a38.10670285588532,38.10670285588532 0 0,0 0.6408409224797826,0.14006300440694702 l -3.7963453802907483 16.680139218636636" fill="#ff8d0d" stroke="none" /><path d="M 104.66035177308747 79.52364482259891 l 3.5780001924153604 -15.720788114706805 a37.12281812601107,37.12281812601107 0 0,0 0.6218537185680465,0.1471726838972133 l -3.8480775979459305 15.656869518668723" fill="#ff7e0b" stroke="none" /><path d="M 105.01212808612495 79.60689891045804 l 3.9630235682851156 -16.124556048757942 a37.60442301232776,37.60442301232776 0 0,0 0.6272616727307956,0.159902966942826 l -4.2399941297009365 16.053950085646246" fill="#ff850c" stroke="none" /><path d="M 105.36241919743992 79.69619591428918 l 2.2088465719556782 -8.363387195427194 a29.650158874788133,29.650158874788133 0 0,0 0.4923368087852831,0.13457424797171555 l -2.352481269964672 8.324126406629185" fill="#ff0701" stroke="none" /><line stroke="#e1ed5e" stroke-width="0.3" x1="143.23703022742887" x2="145.7803849466894" y1="26.81831364943548" y2="22.513508569990506" /><path d="M 143.74570117128098 25.957352633546492 a86.0,86.0 0 0,1 28.547481713284135,27.462654790039103" fill="none" id="id86" stroke="none" /><text fill="#e1ed5e" style="font-size:6.75px; font-family:Arial;" text-anchor="middle"><textPath startOffset="19.985693538727396" xlink:href="#id86">February</textPath></text><path d="M 110.99172775467656 82.1063720568725 l 8.358218272209893 -13.606491296761078 a36.9686072684733,36.9686072684733 0 0,0 0.53935586812056,0.33774459513649224 l -8.591193292702716 13.460602360301642" fill="#ff7c0b" stroke="none" /><path d="M 113.06298171725822 83.55741782278167 l 12.110325007810705 -15.243458074405376 a40.468512677165656,40.468512677165656 0 0,0 0.5416933989857653,0.4380117230623346 l -12.370921805360961 15.032740254078913" fill="#ffb010" stroke="none" /><path d="M 113.6212207817346 84.01681056812373 l 10.332467638768318 -12.124154671262488 a36.92968970190225,36.92968970190225 0 0,0 0.48027272722096354,0.416487776359977 l -10.539634164636047 11.94450190148284" fill="#ff7b0b" stroke="none" /><path d="M 115.19652480421416 85.50635884689758 l 5.9827636656862015 -5.706043374484488 a29.26755054843654,29.26755054843654 0 0,0 0.3445664238788006,0.36755943679477027 l -6.080097411535465 5.602214520811662" fill="#ff0100" stroke="none" /><path d="M 115.68641384162765 86.03803664274999 l 6.799006509822615 -6.051573081919773 a30.102089116594403,30.102089116594403 0 0,0 0.3411686730025796,0.39001477021037556 l -6.902167046403043 5.933642755506449" fill="#ff0f01" stroke="none" /><path d="M 117.2510076193507 88.02491185347247 l 7.143267481729833 -4.958623845947737 a29.695643780718044,29.695643780718044 0 0,0 0.2878717404747919,0.42241625763971213 l -7.227563687873357 4.834929565037619" fill="#ff0801" stroke="none" /><line stroke="#e1ed5e" stroke-width="0.3" x1="172.23445277983987" x2="176.4835382374775" y1="55.19839476539836" y2="52.563006222186495" /><path d="M 173.08426987136738 54.67131705675599 a86.0,86.0 0 0,1 12.851231095245387,41.99856678651699" fill="none" id="id87" stroke="none" /><text fill="#e1ed5e" style="font-size:6.75px; font-family:Arial;" text-anchor="middle"><textPath startOffset="22.20632615414155" xlink:href="#id87">March</textPath></text><path d="M 117.84615892207809 88.93136811851018 l 51.215938456965425 -31.765399586566986 a81.2670138875483,81.2670138875483 0 0,0 0.7270851442821127,1.1951368030334562 l -51.75513939953376 30.87909501032645" fill="#49efff" stroke="none" /><path d="M 118.03404312379186 89.2402003453031 l 10.123639727241482 -6.040150536057124 a32.78861738395191,32.78861738395191 0 0,0 0.28501166147306983,0.4871773173449504 l -10.226111063184879 5.864993806358278" fill="#ff3a05" stroke="none" /><path d="M 118.21658344932153 89.55222093294921 l 14.244099611367716 -8.169435622362911 a37.42053751027956,37.42053751027956 0 0,0 0.31565534660361466,0.5615156398377467 l -14.382612599263762 7.92303647259037" fill="#ff820c" stroke="none" /><path d="M 118.3937258080291 89.86733742301442 l 7.557002051703998 -4.162971258932189 a29.627781274009784,29.627781274009784 0 0,0 0.24223095632734828,0.44881717356804696 l -7.627541107249811 4.0322731020316835" fill="#ff0701" stroke="none" /><path d="M 119.04729006885535 91.15688171328212 l 45.15882011124179 -20.965963477676176 a70.78845908829422,70.78845908829422 0 0,0 0.5036015130250504,1.1096191790405008 l -45.51302394123019 20.185522289793614" fill="#3aff97" stroke="none" /><path d="M 119.196687751892 91.48605970444005 l 48.77553218669863 -21.632480263726002 a74.3574431776502,74.3574431776502 0 0,0 0.5088502560463481,1.1744965480180785 l -49.14067315258766 20.78968457112132" fill="#3fffc2" stroke="none" /><path d="M 120.08093135843002 93.85539295169968 l 35.36059358271854 -10.820063506130253 a57.97898528622557,57.97898528622557 0 0,0 0.28380465613673195,0.9568482136410056 l -35.54160413596698 10.209785905742718" fill="#67ff28" stroke="none" /><path d="M 120.37134235888165 94.90015583598534 l 8.270163002198402 -2.0703860246020036 a29.52537942696972,29.52537942696972 0 0,0 0.11918017786957309,0.494078779595081 l -8.304575980328794 1.9277220133475164" fill="#ff0500" stroke="none" /><path d="M 120.45610955862082 95.25157060432595 l 16.301136303755236 -3.78394506471638 a37.734553625549694,37.734553625549694 0 0,0 0.14142481782397018,0.6339797276848329 l -16.363855508581246 3.5027871674815834" fill="#ff870c" stroke="none" /><path d="M 120.6074358757038 95.95851677861258 l 48.976364921709234 -9.605132742836968 a70.90934677945555,70.90934677945555 0 0,0 0.22459446995524934,1.1997926392166656 l -49.134445115574344 8.76066202615774" fill="#3bff98" stroke="none" /><path d="M 120.67395015179393 96.31383870115 l 14.31721074838047 -2.552755897187831 a35.54300815801767,35.54300815801767 0 0,0 0.10220838564924828,0.6032396777868386 l -14.359030995549942 2.3059304310851547" fill="#ff6609" stroke="none" /><path d="M 120.73433829027371 96.67025291283417 l 10.82390913145068 -1.7382218519653447 a31.962592033481464,31.962592033481464 0 0,0 0.08256105943906443,0.5439742268102876 l -10.852226084329045 1.551648512762975" fill="#ff2d04" stroke="none" /><path d="M 120.83666639777658 97.38593545837742 l 9.659269360194573 -1.2118038965753362 a30.734986042956038,30.734986042956038 0 0,0 0.061337734071424246,0.5255042472010296 l -9.678697447269586 1.0453559110494537" fill="#ff1902" stroke="none" /><path d="M 120.87857604477298 97.74499172005257 l 8.46883003781278 -0.9146831573083443 a29.518082383237648,29.518082383237648 0 0,0 0.050212892718000876,0.5056369771396634 l -8.483320056213008 0.7687706494642459" fill="#ff0500" stroke="none" /><path d="M 120.98425023603335 99.18683210126433 l 16.267494970804634 -0.6303872930559742 a37.279704566250594,37.279704566250594 0 0,0 0.01932918161526764,0.6414414359506151 l -16.275935846875544 0.35027570968036015" fill="#ff800b" stroke="none" /><line stroke="#e1ed5e" stroke-width="0.3" x1="184.98032266829074" x2="189.97916517819016" y1="98.17113171792111" y2="98.06355123074" /><path d="M 185.9800911702706 98.14961562048488 a86.0,86.0 0 0,1 -9.607161424134198,41.387399972396054" fill="none" id="id88" stroke="none" /><text fill="#e1ed5e" style="font-size:6.75px; font-family:Arial;" text-anchor="middle"><textPath startOffset="21.466115282336823" xlink:href="#id88">April</textPath></text><path d="M 120.8583938346157 102.4346265915055 l 16.278645644472654 1.90007072807093 a37.38916022223166,37.38916022223166 0 0,0 -0.08011694192991453,0.638610854943736 l -16.24352719329589 -2.179999337302061" fill="#ff820c" stroke="none" /><path d="M 120.81339534386255 102.79330883721812 l 15.87372056351679 2.130368601424629 a37.01603805273176,37.01603805273176 0 0,0 -0.0901886054558865,0.6307788965007396 l -15.834697907044301 -2.403292969905778" fill="#ff7c0b" stroke="none" /><path d="M 120.64145759157962 103.86396538481128 l 13.280523297998126 2.4860396649787897 a34.51120617430283,34.51120617430283 0 0,0 -0.11433080603032962,0.5829703167934244 l -13.235762558992132 -2.714273708840159" fill="#ff5607" stroke="none" /><path d="M 120.5718875245553 104.21870165774334 l 16.47965381480906 3.379502380838248 a37.82260461991668,37.82260461991668 0 0,0 -0.13628017792911026,0.6366556212774622 l -16.419039598155504 -3.6626718215318794" fill="#ff880c" stroke="none" /><path d="M 120.49622156327973 104.57218783832717 l 8.000608043397222 1.7847329900443287 a29.19725569381759,29.19725569381759 0 0,0 -0.11364605508540923,0.489584230914345 l -7.968701422381259 -1.9221858783072385" fill="#ff0000" stroke="none" /><path d="M 120.23288151984713 105.62410040840565 l 60.45281187363873 16.803967522584045 a83.74484670416858,83.74484670416858 0 0,0 -0.3980167773295664,1.3855486167799105 l -60.15460245942306 -17.842073614868536" fill="#4dd5ff" stroke="none" /><path d="M 120.13307415673323 105.97154293290107 l 20.590522127314845 6.107223662760358 a42.47714558181376,42.47714558181376 0 0,0 -0.21394975156739557,0.6992001671720273 l -20.482345603241317 -6.4607508024844424" fill="#ffcd13" stroke="none" /><path d="M 120.02730092923936 106.31721596034902 l 36.48398963145025 11.508152916427926 a59.255967939338014,59.255967939338014 0 0,0 -0.31520718058842323,0.9701079504964242 l -36.28049019984558 -12.134459766902147" fill="#58ff2a" stroke="none" /><path d="M 119.9155931802556 106.66101706037122 l 47.26751810052364 15.809207469709555 a70.84124103795621,70.84124103795621 0 0,0 -0.39674188063925375,1.1531176158954237 l -46.988385388941154 -16.62049778869428" fill="#3bff97" stroke="none" /><path d="M 119.12269723197855 108.67885076344098 l 44.32516725818034 20.117011059245087 a69.67663285831767,69.67663285831767 0 0,0 -0.5050739111508479,1.0878842711344199 l -43.97231873018966 -20.877015397658337" fill="#39ff89" stroke="none" /><path d="M 118.97047184881838 109.00673069616215 l 14.70856285565253 6.983277254471017 a37.282136914161285,37.282136914161285 0 0,0 -0.28023161420689063,0.5773601271285683 l -14.586177984830925 -7.235426337564861" fill="#ff800b" stroke="none" /><path d="M 118.81262510543309 109.33194174019688 l 14.22882316118105 7.058161634941522 a36.88323185680807,36.88323185680807 0 0,0 -0.28702413393433485,0.5663258462390846 l -14.105220357460446 -7.3020416928833" fill="#ff7a0b" stroke="none" /><line stroke="#e1ed5e" stroke-width="0.3" x1="174.80103733775053" x2="179.2010983576182" y1="140.37084112569926" y2="142.7455964860345" /><path d="M 175.68104954172406 140.8457921977663 a86.0,86.0 0 0,1 -30.038265399797805,32.042727171017184" fill="none" id="id89" stroke="none" /><text fill="#e1ed5e" style="font-size:6.75px; font-family:Arial;" text-anchor="middle"><textPath startOffset="22.206326154141568" xlink:href="#id89">May</textPath></text><path d="M 118.48025628344425 109.97397251340804 l 26.912454268200474 14.524911073871493 a51.58191028110992,51.58191028110992 0 0,0 -0.4284334285038708,0.7777311196361316 l -26.658444430245094 -14.98601271190543" fill="#b6ff1f" stroke="none" /><path d="M 118.12598468904814 110.60418214915192 l 44.66542318576873 26.13045808854857 a72.74747209556425,72.74747209556425 0 0,0 -0.6416296703194315,1.0754082339250493 l -44.20901263975107 -26.895428416359724" fill="#3dffaf" stroke="none" /><path d="M 117.94076556474637 110.91462005526583 l 33.48918892873828 20.373811351419917 a60.199718928685876,60.199718928685876 0 0,0 -0.5461988160935485,0.8806464050319851 l -33.13352547297677 -20.947254087817175" fill="#4dff2c" stroke="none" /><path d="M 117.75023020441432 111.22182372390056 l 41.5421135737417 26.263224210289465 a70.14777864861838,70.14777864861838 0 0,0 -0.65402828115727,1.0150664164193437 l -41.08388042920738 -26.97441222663026" fill="#3aff8f" stroke="none" /><path d="M 117.55443506779139 111.5257021239791 l 7.593012094231489 4.9853381942466335 a30.083360037682088,30.083360037682088 0 0,0 -0.2879362831612054,0.4304256756180797 l -7.506072705659562 -5.11530078407052" fill="#ff0f01" stroke="none" /><path d="M 117.14729908036423 112.12312394758627 l 13.092401677674642 9.256315386240097 a37.03403742727087,37.03403742727087 0 0,0 -0.37249224164561184,0.5173591445536343 l -12.931129643653428 -9.480308136244862" fill="#ff7d0b" stroke="none" /><path d="M 116.93607887273984 112.41649034213515 l 7.948564520036967 5.82739814442721 a30.855873734117345,30.855873734117345 0 0,0 -0.3177254786324626,0.42564520058383876 l -7.847077774709412 -5.963356224520364" fill="#ff1b02" stroke="none" /><path d="M 116.27256486870786 113.27417163493432 l 12.420750145915944 10.13209476206045 a37.029172731449485,37.029172731449485 0 0,0 -0.40715162401545774,0.49044035969725763 l -12.244502522006943 -10.34439637887148" fill="#ff7c0b" stroke="none" /><path d="M 116.0416608686014 113.55231037782055 l 12.73874192577839 10.761939540750054 a37.67617727569312,37.67617727569312 0 0,0 -0.42279397075029973,0.491804905110358 l -12.551605445457312 -10.97962154502194" fill="#ff860c" stroke="none" /><path d="M 115.80600337817218 113.82643327865902 l 11.985904441570746 10.484769873870865 a36.9245817712898,36.9245817712898 0 0,0 -0.4225950694840852,0.47479004046494266 l -11.803650522438323 -10.689534084076675" fill="#ff7b0b" stroke="none" /><path d="M 115.56566222782051 114.09645910891815 l 11.991153142620634 10.859338810629904 a37.1775459540016,37.1775459540016 0 0,0 -0.43365587730175265,0.47064780673509704 l -11.80245085732316 -11.064137872166334" fill="#ff7f0b" stroke="none" /><line stroke="#e1ed5e" stroke-width="0.3" x1="143.8653032363475" x2="146.44561519142675" y1="172.8068346515853" y2="177.08958963109032" /><path d="M 144.38136562736335 173.6633856474863 a86.0,86.0 0 0,1 -40.68145358897372,12.25698825130547" fill="none" id="id90" stroke="none" /><text fill="#e1ed5e" style="font-size:6.75px; font-family:Arial;" text-anchor="middle"><textPath startOffset="21.466115282336833" xlink:href="#id90">June</textPath></text><line stroke="#e1ed5e" stroke-width="0.3" x1="102.19456741930631" x2="102.32365962044197" y1="184.97166512339345" y2="189.96999836594603" /><path d="M 102.22038585953345 185.97133177190398 a86.0,86.0 0 0,1 -42.740103519485714,-10.115201625700543" fill="none" id="id91" stroke="none" /><text fill="#e1ed5e" style="font-size:6.75px; font-family:Arial;" text-anchor="middle"><textPath startOffset="22.20632615414155" xlink:href="#id91">July</textPath></text><line stroke="#e1ed5e" stroke-width="0.3" x1="58.666819895761336" x2="56.23545636021788" y1="174.27360380694188" y2="178.64263932499728" /><path d="M 58.180547188652646 175.14741091055294 a86.0,86.0 0 0,1 -31.652253787137756,-30.449443065178592" fill="none" id="id92" stroke="none" /><text fill="#e1ed5e" style="font-size:6.75px; font-family:Arial;" text-anchor="middle"><textPath startOffset="22.20632615414155" xlink:href="#id92">August</textPath></text><line stroke="#e1ed5e" stroke-width="0.3" x1="26.63291911575756" x2="22.317208475507996" y1="142.92168965132927" y2="145.44649492493687" /><path d="M 25.769776987707644 143.4266507060508 a86.0,86.0 0 0,1 -11.730757126820373,-40.83630448921669" fill="none" id="id93" stroke="none" /><text fill="#e1ed5e" style="font-size:6.75px; font-family:Arial;" text-anchor="middle"><textPath startOffset="21.46611528233685" xlink:href="#id93">September</textPath></text><line stroke="#e1ed5e" stroke-width="0.3" x1="15.007084014347285" x2="10.007500721073583" y1="101.09737516637583" y2="101.16192664675087" /><path d="M 14.007167355692545 101.11028546245083 a86.0,86.0 0 0,1 10.666146001902534,-42.60595125391555" fill="none" id="id94" stroke="none" /><text fill="#e1ed5e" style="font-size:6.75px; font-family:Arial;" text-anchor="middle"><textPath startOffset="22.20632615414155" xlink:href="#id94">October</textPath></text><line stroke="#e1ed5e" stroke-width="0.3" x1="26.266209847984243" x2="21.928928074336255" y1="57.711370442889674" y2="55.22380399835377" /><path d="M 25.398753493254645 57.213857153982495 a86.0,86.0 0 0,1 29.58750427330803,-30.492523968695096" fill="none" id="id95" stroke="none" /><text fill="#e1ed5e" style="font-size:6.75px; font-family:Arial;" text-anchor="middle"><textPath startOffset="21.46611528233685" xlink:href="#id95">November</textPath></text><line stroke="#e1ed5e" stroke-width="0.3" x1="56.762969772571076" x2="54.21961505331055" y1="26.818313649435495" y2="22.513508569990535" /><path d="M 56.25429882871897 25.957352633546506 a86.0,86.0 0 0,1 42.265352541879196,-11.944610805530505" fill="none" id="id96" stroke="none" /><text fill="#e1ed5e" style="font-size:6.75px; font-family:Arial;" text-anchor="middle"><textPath startOffset="22.20632615414155" xlink:href="#id96">December</textPath></text></svg>