<?xml version="1.0" encoding="utf-8" ?>
<svg baseProfile="full" height="200mm" version="1.1" viewBox="0,0,200,200" width="200mm" xmlns="http://www.w3.org/2000/svg" xmlns:ev="http://www.w3.org/2001/xml-events" xmlns:xlink="http://www.w3.org/1999/xlink"><defs /><rect fill="#1a1a1a" height="200" width="200" x="0" y="0" /><text alignment-baseline="middle" fill="#e1ed5e" style="dominant-baseline: central; font-size:9.0px; font-family:Arial;" text-anchor="middle" x="100.0" y="100.0">2023</text><line stroke="#e1ed5e" stroke-width="0.3" x1="100.0" x2="100.0" y1="15.0" y2="10.0" /><path d="M 100.0 14.0 a86.0,86.0 0 0,1 42.46469731375804,11.215312516191453" fill="none" id="id61" stroke="none" /><text fill="#e1ed5e" style="font-size:6.75px; font-family:Arial;" text-anchor="middle"><textPath startOffset="22.20632615414155" xlink:href="#id61">January</textPath></text><path d="M 100.0 79.0 l 0.0 -63.0 a84.0,84.0 0 0,0 1.4459219170901134,0.012445506434235476 l -1.084441437817585 62.990665870174325" fill="#4dd2ff" stroke="none" /><line stroke="#e1ed5e" stroke-width="0.3" x1="143.23703022742887" x2="145.7803849466894" y1="26.81831364943548" y2="22.513508569990506" /><path d="M 143.74570117128098 25.957352633546492 a86.0,86.0 0 0,1 28.547481713284135,27.462654790039103" fill="none" id="id62" stroke="none" /><text fill="#e1ed5e" style="font-size:6.75px; font-family:Arial;" text-anchor="middle"><textPath startOffset="19.985693538727396" xlink:href="#id62">February</textPath></text><line stroke="#e1ed5e" stroke-width="0.3" x1="172.23445277983987" x2="176.4835382374775" y1="55.19839476539836" y2="52.563006222186495" /><path d="M 173.08426987136738 54.67131705675599 a86.0,86.0 0 0,1 12.851231095245387,41.99856678651699" fill="none" id="id63" stroke="none" /><text fill="#e1ed5e" style="font-size:6.75px; font-family:Arial;" text-anchor="middle"><textPath startOffset="22.20632615414155" xlink:href="#id63">March</textPath></text><line stroke="#e1ed5e" stroke-width="0.3" x1="184.98032266829074" x2="189.97916517819016" y1="98.17113171792111" y2="98.06355123074" /><path d="M 185.9800911702706 98.14961562048488 a86.0,86.0 0 0,1 -9.607161424134198,41.387399972396054" fill="none" id="id64" stroke="none" /><text fill="#e1ed5e" style="font-size:6.75px; font-family:Arial;" text-anchor="middle"><textPath startOffset="21.466115282336823" xlink:href="#id64">April</textPath></text><path d="M 120.99513854157772 99.54816195383933 l 20.107949330844793 -0.432744776604073 a41.112605359164675,41.112605359164675 0 0,0 0.009136773170637668,0.707653151143197 l -20.112419111133146 0.0865553674004133" fill="#ffbb11" stroke="none" /><path d="M 120.49622156327973 104.57218783832717 l 26.289130882079885 5.864439166415949 a47.93529374764121,47.93529374764121 0 0,0 -0.18658113251832867,0.80378663560704 l -26.184289183631005 -6.316094459371554" fill="#e4ff1a" stroke="none" /><line stroke="#e1ed5e" stroke-width="0.3" x1="174.80103733775053" x2="179.2010983576182" y1="140.37084112569926" y2="142.7455964860345" /><path d="M 175.68104954172406 140.8457921977663 a86.0,86.0 0 0,1 -30.038265399797805,32.042727171017184" fill="none" id="id65" stroke="none" /><text fill="#e1ed5e" style="font-size:6.75px; font-family:Arial;" text-anchor="middle"><textPath startOffset="22.206326154141568" xlink:href="#id65">May</textPath></text><path d="M 117.94076556474637 110.91462005526583 l 9.489489095103298 5.773118634087957 a32.10762360045289,32.10762360045289 0 0,0 -0.29131607771989093,0.4696942743429549 l -9.388708377715444 -5.935609239796185" fill="#ff3204" stroke="none" /><path d="M 117.75023020441432 111.22182372390056 l 17.625851311171672 11.14319048935265 a41.852849415020756,41.852849415020756 0 0,0 -0.39021830329874896,0.60562747233166 l -17.43142814449587 -11.444939561605763" fill="#ffc612" stroke="none" /><path d="M 117.55443506779139 111.5257021239791 l 13.503708872911984 8.866119897169607 a37.15420178638823,37.15420178638823 0 0,0 -0.3556132942860702,0.5315936247123014 l -13.349092473215192 -9.097250436087714" fill="#ff810b" stroke="none" /><path d="M 116.498646956653 112.99209946851258 l 22.774110420414523 17.93380443052638 a49.987608504214364,49.987608504214364 0 0,0 -0.538157281048444,0.6714339535726679 l -22.462035227311222 -18.323166217677297" fill="#c9ff1d" stroke="none" /><path d="M 116.27256486870786 113.27417163493432 l 20.481138586827495 16.707270861966617 a47.431230343439424,47.431230343439424 0 0,0 -0.5215267055367098,0.6282125133938774 l -20.190515881397243 -17.057344632474265" fill="#ebff1a" stroke="none" /><path d="M 115.32070863581623 114.36230785411682 l 10.561054594282934 9.900398274831188 a35.47597182035476,35.47597182035476 0 0,0 -0.42147726441157063,0.4419172266916345 l -10.3890707784924 -10.080722618105328" fill="#ff6709" stroke="none" /><path d="M 115.07121518719521 114.62390073753431 l 8.037949833356986 7.799383064755295 a32.19995596930431,32.19995596930431 0 0,0 -0.38940384243827614,0.39446403650036077 l -7.902505365863174 -7.936587595236321" fill="#ff3404" stroke="none" /><path d="M 114.81725581225074 114.88116024355365 l 18.69445949692573 18.77508568154479 a47.49503082148698,47.49503082148698 0 0,0 -0.5843020702211563,0.5718625549953453 l -18.36850747432878 -19.09409833946271" fill="#eaff1a" stroke="none" /><path d="M 114.29624159901734 115.38237550388516 l 12.38264227062956 13.323393551924683 a39.18908038747012,39.18908038747012 0 0,0 -0.49807539101881243,0.4549800604421472 l -12.151467330143884 -13.534566378953413" fill="#ff9f0e" stroke="none" /><path d="M 114.0293411484842 115.62618273729858 l 13.263366301529597 14.77302343323673 a40.85344068436281,40.85344068436281 0 0,0 -0.5273160717892222,0.4652951233656215 l -13.007107876833787 -14.99914169837464" fill="#ffb711" stroke="none" /><path d="M 112.34349029814194 116.9893568818739 l 21.06576794371538 28.99454213857105 a56.83922505975595,56.83922505975595 0 0,0 -0.7964871733968107,0.5682724501725528 l -20.563553442469683 -29.352858850587822" fill="#73ff27" stroke="none" /><line stroke="#e1ed5e" stroke-width="0.3" x1="143.8653032363475" x2="146.44561519142675" y1="172.8068346515853" y2="177.08958963109032" /><path d="M 144.38136562736335 173.6633856474863 a86.0,86.0 0 0,1 -40.68145358897372,12.25698825130547" fill="none" id="id66" stroke="none" /><text fill="#e1ed5e" style="font-size:6.75px; font-family:Arial;" text-anchor="middle"><textPath startOffset="21.466115282336833" xlink:href="#id66">June</textPath></text><path d="M 110.21172684928248 118.3499491758327 l 8.956618391394832 16.094583677683424 a39.418920618945776,39.418920618945776 0 0,0 -0.5957460088197122,0.32484822431657623 l -8.67824957070647 -16.246372553759773" fill="#ffa20f" stroke="none" /><path d="M 107.93186726928326 119.44442032107085 l 10.051538806177836 24.640647502733287 a47.611932318530634,47.611932318530634 0 0,0 -0.7615164092721696,0.30302309515696624 l -9.625901320863802 -24.810017442296324" fill="#e8ff1a" stroke="none" /><path d="M 106.2309692047433 120.05430185196036 l 4.064749127084717 13.082347748564656 a34.69927034847151,34.69927034847151 0 0,0 -0.5719183731556915,0.17231431431385677 l -3.8389557794887796 -13.150377431984237" fill="#ff5b08" stroke="none" /><line stroke="#e1ed5e" stroke-width="0.3" x1="102.19456741930631" x2="102.32365962044197" y1="184.97166512339345" y2="189.96999836594603" /><path d="M 102.22038585953345 185.97133177190398 a86.0,86.0 0 0,1 -42.740103519485714,-10.115201625700543" fill="none" id="id67" stroke="none" /><text fill="#e1ed5e" style="font-size:6.75px; font-family:Arial;" text-anchor="middle"><textPath startOffset="22.20632615414155" xlink:href="#id67">July</textPath></text><path d="M 93.42475214034765 119.94407469862007 l -8.674835591412645 26.3125547091588 a48.70565479934583,48.70565479934583 0 0,0 -0.7939723721393975,-0.26935853664605347 l 9.12647769648927 -26.159333185614624" fill="#daff1c" stroke="none" /><path d="M 91.7346041902142 119.30500536409082 l -10.508667280415043 24.544484364278215 a47.69950937224809,47.69950937224809 0 0,0 -0.7520153039105023,-0.3296614095417471 l 10.92960325898329 -24.359958401442015" fill="#e7ff1a" stroke="none" /><line stroke="#e1ed5e" stroke-width="0.3" x1="58.666819895761336" x2="56.23545636021788" y1="174.27360380694188" y2="178.64263932499728" /><path d="M 58.180547188652646 175.14741091055294 a86.0,86.0 0 0,1 -31.652253787137756,-30.449443065178592" fill="none" id="id68" stroke="none" /><text fill="#e1ed5e" style="font-size:6.75px; font-family:Arial;" text-anchor="middle"><textPath startOffset="22.20632615414155" xlink:href="#id68">August</textPath></text><path d="M 89.7882731507175 118.34994917583269 l -13.208507049013747 23.735009427427073 a48.16275632154988,48.16275632154988 0 0,0 -0.7209534208644107,-0.40937616809529404 l 13.615109236799364 -23.504130093537146" fill="#e1ff1b" stroke="none" /><path d="M 89.1626897886671 117.98757091392108 l -13.275330086212268 22.034152079705372 a46.724273493521196,46.724273493521196 0 0,0 -0.6853356240026676,-0.4209891154304437 l 13.652644910147245 -21.80237449744655" fill="#f4ff19" stroke="none" /><path d="M 85.97065885151581 115.62618273729859 l -9.5549184941079 10.642474286474657 a35.30240281796452,35.30240281796452 0 0,0 -0.44867748652463385,-0.4098562458997235 l 9.736695530099388 -10.476425273988358" fill="#ff6409" stroke="none" /><path d="M 85.70375840098266 115.38237550388516 l -9.951166131518791 10.707189933547841 a35.61744244559064,35.61744244559064 0 0,0 -0.445496466719246,-0.4212447157704773 l 10.133998432628855 -10.534310581031432" fill="#ff6909" stroke="none" /><path d="M 85.44109423537348 115.13401014063109 l -20.1460163489759 20.941822184157967 a50.058938231224055,50.058938231224055 0 0,0 -0.6158442417168528,-0.6027332085509736 l 20.503510543068543 -20.591938872684423" fill="#c8ff1d" stroke="none" /><path d="M 83.95833913139862 113.55231037782056 l -23.237604036574137 19.63158459215113 a51.42014718832557,51.42014718832557 0 0,0 -0.565386555802262,-0.6810445284755354 l 23.572086592269937 -19.22867880656183" fill="#b6ff1f" stroke="none" /><path d="M 83.50135304334701 112.99209946851258 l -10.22889128998932 8.054889194325972 a34.01965656057366,34.01965656057366 0 0,0 -0.3583293386562622,-0.46318897349416494 l 10.36602744586365 -7.877622226718554" fill="#ff5007" stroke="none" /><path d="M 82.44556493220864 111.52570212397912 l -13.266859815040466 8.710612090804448 a36.870864259655306,36.870864259655306 0 0,0 -0.3437683764345531,-0.5335361543208338 l 13.414833054852064 -8.480954336562167" fill="#ff7c0b" stroke="none" /><line stroke="#e1ed5e" stroke-width="0.3" x1="26.63291911575756" x2="22.317208475507996" y1="142.92168965132927" y2="145.44649492493687" /><path d="M 25.769776987707644 143.4266507060508 a86.0,86.0 0 0,1 -11.730757126820373,-40.83630448921669" fill="none" id="id69" stroke="none" /><text fill="#e1ed5e" style="font-size:6.75px; font-family:Arial;" text-anchor="middle"><textPath startOffset="21.46611528233685" xlink:href="#id69">September</textPath></text><path d="M 81.35079622478065 109.6543875284942 l -23.796562321304553 12.319090791485298 a47.796200779972324,47.796200779972324 0 0,0 -0.3719485100297978,-0.7338896970530914 l 24.00508950112062 -11.907646882729521" fill="#e6ff1a" stroke="none" /><path d="M 80.20201598880116 107.00284435728193 l -7.561539748144377 2.6746302011206358 a29.02063152597811,29.02063152597811 0 0,0 -0.16252820758443018,-0.4723830490079348 l 7.606458786672036 -2.544074449023404" fill="#ff0000" stroke="none" /><line stroke="#e1ed5e" stroke-width="0.3" x1="15.007084014347285" x2="10.007500721073583" y1="101.09737516637583" y2="101.16192664675087" /><path d="M 14.007167355692545 101.11028546245083 a86.0,86.0 0 0,1 10.666146001902534,-42.60595125391555" fill="none" id="id70" stroke="none" /><text fill="#e1ed5e" style="font-size:6.75px; font-family:Arial;" text-anchor="middle"><textPath startOffset="22.20632615414155" xlink:href="#id70">October</textPath></text><path d="M 79.00019446554 99.90962569577889 l -26.63546224050941 -0.11462779327379416 a47.63570889420053,47.63570889420053 0 0,0 0.010586453064371804,-0.8199324565161801 l 26.629542780327323 0.5730965078504462" fill="#e8ff1a" stroke="none" /><path d="M 79.00486145842228 99.54816195383935 l -27.063364834101897 -0.5824328267687863 a48.06963140017612,48.06963140017612 0 0,0 0.024923658766173133,-0.8270948965314523 l 27.04932948088008 1.0481978707252328" fill="#e2ff1b" stroke="none" /><path d="M 81.26839172434947 90.50648371742162 l -16.56188525139525 -8.393861594292554 a39.56752421688263,39.56752421688263 0 0,0 0.3131309180026019,-0.6048692660116229 l 16.41494490023253 8.677703582564511" fill="#ffa50f" stroke="none" /><line stroke="#e1ed5e" stroke-width="0.3" x1="26.266209847984243" x2="21.928928074336255" y1="57.711370442889674" y2="55.22380399835377" /><path d="M 25.398753493254645 57.213857153982495 a86.0,86.0 0 0,1 29.58750427330803,-30.492523968695096" fill="none" id="id71" stroke="none" /><text fill="#e1ed5e" style="font-size:6.75px; font-family:Arial;" text-anchor="middle"><textPath startOffset="21.46611528233685" xlink:href="#id71">November</textPath></text><path d="M 82.34701348167596 88.62581576622439 l -29.848626317547634 -19.23208713202722 a56.50793810542206,56.50793810542206 0 0,0 0.5338745261477204,-0.8131275303488859 l 29.513155156041993 19.74303272635377" fill="#77ff26" stroke="none" /><path d="M 82.95767976084542 87.72973835380427 l -11.204001663326961 -8.06674384498327 a34.805868662724876,34.805868662724876 0 0,0 0.3542531160554482,-0.48320085218197634 l 11.06348593475788 8.258407140836747" fill="#ff5d08" stroke="none" /><path d="M 89.00827224532344 82.1063720568725 l -7.5230211157778095 -12.246859079706272 a35.37293999245188,35.37293999245188 0 0,0 0.5215620976699945,-0.31423532804803345 l 7.311096951890166 12.374541017212925" fill="#ff6509" stroke="none" /><line stroke="#e1ed5e" stroke-width="0.3" x1="56.762969772571076" x2="54.21961505331055" y1="26.818313649435495" y2="22.513508569990535" /><path d="M 56.25429882871897 25.957352633546506 a86.0,86.0 0 0,1 42.265352541879196,-11.944610805530505" fill="none" id="id72" stroke="none" /><text fill="#e1ed5e" style="font-size:6.75px; font-family:Arial;" text-anchor="middle"><textPath startOffset="22.20632615414155" xlink:href="#id72">December</textPath></text><path d="M 92.57280143429618 80.3572730644239 l -4.754285377012291 -12.573668067214982 a34.44248333123663,34.44248333123663 0 0,0 0.5563570995351969,-0.20491101504951983 l 4.537145951704525 12.653642350070823" fill="#ff5708" stroke="none" /><path d="M 92.91201910852362 80.23233633223022 l -4.441914305055932 -12.38805089457733 a34.160334633287206,34.160334633287206 0 0,0 0.5552160455981494,-0.19370397635636447 l 4.228016255394497 12.462675724105905" fill="#ff5307" stroke="none" /><path d="M 93.59665428221793 80.00007090966166 l -4.340322899409968 -13.556374127405084 a35.23424330104416,35.23424330104416 0 0,0 0.5792083889994982,-0.17996286590410882 l 4.106329137699742 13.62907712819172" fill="#ff6309" stroke="none" /><path d="M 94.63758080256005 79.69619591428918 l -6.917480288517911 -26.19175401503229 a48.08984148949554,48.08984148949554 0 0,0 0.8021640008722675,-0.20448946474886884 l 6.465607398960644 26.306946475950024" fill="#e2ff1b" stroke="none" /><path d="M 95.33964822691252 79.52364482259891 l -3.066369586564619 -13.472818322913975 a34.817360674298655,34.817360674298655 0 0,0 0.5855240118047449,-0.12797287028493315 l 2.8340028506063533 13.523604691294775" fill="#ff5d08" stroke="none" /></svg>