<?xml version="1.0" encoding="utf-8" ?>
<svg baseProfile="full" height="200mm" version="1.1" viewBox="0,0,200,200" width="200mm" xmlns="http://www.w3.org/2000/svg" xmlns:ev="http://www.w3.org/2001/xml-events" xmlns:xlink="http://www.w3.org/1999/xlink"><defs /><rect fill="#1a1a1a" height="200" width="200" x="0" y="0" /><text alignment-baseline="middle" fill="#e1ed5e" style="dominant-baseline: central; font-size:9.0px; font-family:Arial;" text-anchor="middle" x="100.0" y="100.0">2025</text><line stroke="#e1ed5e" stroke-width="0.3" x1="100.0" x2="100.0" y1="15.0" y2="10.0" /><path d="M 100.0 14.0 a86.0,86.0 0 0,1 42.46469731375804,11.215312516191453" fill="none" id="id85" stroke="none" /><text fill="#e1ed5e" style="font-size:6.75px; font-family:Arial;" text-anchor="middle"><textPath startOffset="22.20632615414155" xlink:href="#id85">January</textPath></text><path d="M 100.36148047927253 79.00311137660856 l 0.28879053690592965 -16.774634002661195 a37.77711971398677,37.77711971398677 0 0,0 0.6500783268423663,0.01678960526445723 l -0.5774954989431638 16.76717760525438" fill="#ff870c" stroke="none" /><path d="M 101.44485096284872 79.0497635885617 l 4.334552888546152 -62.8507092343149 a84.0,84.0 0 0,0 1.4416392425506352,0.11189895124614191 l -5.415782320459128 62.76678502088029" fill="#4dd2ff" stroke="none" /><path d="M 101.80526077348638 79.07773832637324 l 0.7500284230851783 -8.692534154021583 a29.72483195564633,29.72483195564633 0 0,0 0.5093914343953367,0.04837285459343065 l -0.8995449845707592 8.678335754912975" fill="#ff0801" stroke="none" /><path d="M 102.52436894288641 79.15227682838746 l 1.9179176879023567 -15.839292087633149 a36.95498612017343,36.95498612017343 0 0,0 0.6308484872513881,0.08190223911804408 l -2.190280903661591 15.803931525350968" fill="#ff7a0b" stroke="none" /><path d="M 102.88285421437855 79.19881850522331 l 2.2383972964076286 -16.151114471124743 a37.30548745410391,37.30548745410391 0 0,0 0.6353142625627225,0.09362880761404989 l -2.516080539399007 16.110191179349723" fill="#ff800b" stroke="none" /><path d="M 103.59715602781102 79.31037775812273 l 2.2757123756978146 -13.089126248717266 a34.28548428819076,34.28548428819076 0 0,0 0.5805754994395462,0.10609646157737587 l -2.5006829962402617 13.04801430578915" fill="#ff5107" stroke="none" /><path d="M 103.95276090670814 79.375362276772 l 8.041604995873687 -41.959327585872124 a63.722974877320866,63.722974877320866 0 0,0 1.0755029897716668,0.2157357819413788 l -8.762674395112478 41.814687847853534" fill="#30ff3a" stroke="none" /><path d="M 104.307194497241 79.44645832069477 l 3.5086617336574375 -16.743015721139454 a38.10670285588532,38.10670285588532 0 0,0 0.6408409224797826,0.14006300440694702 l -3.7963453802907483 16.680139218636636" fill="#ff8c0c" stroke="none" /><path d="M 104.66035177308747 79.52364482259891 l 3.5780001924153604 -15.720788114706805 a37.12281812601107,37.12281812601107 0 0,0 0.6218537185680465,0.1471726838972133 l -3.8480775979459305 15.656869518668723" fill="#ff7d0b" stroke="none" /><path d="M 105.01212808612495 79.60689891045804 l 3.9630235682851156 -16.124556048757942 a37.60442301232776,37.60442301232776 0 0,0 0.6272616727307956,0.159902966942826 l -4.2399941297009365 16.053950085646246" fill="#ff840c" stroke="none" /><path d="M 105.36241919743992 79.69619591428918 l 2.2088465719556782 -8.363387195427194 a29.650158874788133,29.650158874788133 0 0,0 0.4923368087852831,0.13457424797171555 l -2.352481269964672 8.324126406629185" fill="#ff0601" stroke="none" /><line stroke="#e1ed5e" stroke-width="0.3" x1="143.23703022742887" x2="145.7803849466894" y1="26.81831364943548" y2="22.513508569990506" /><path d="M 143.74570117128098 25.957352633546492 a86.0,86.0 0 0,1 28.547481713284135,27.462654790039103" fill="none" id="id86" stroke="none" /><text fill="#e1ed5e" style="font-size:6.75px; font-family:Arial;" text-anchor="middle"><textPath startOffset="19.985693538727396" xlink:href="#id86">February</textPath></text><path d="M 110.99172775467656 82.1063720568725 l 8.358218272209893 -13.606491296761078 a36.9686072684733,36.9686072684733 0 0,0 0.53935586812056,0.33774459513649224 l -8.591193292702716 13.460602360301642" fill="#ff7b0b" stroke="none" /><path d="M 113.06298171725822 83.55741782278167 l 12.110325007810705 -15.243458074405376 a40.468512677165656,40.468512677165656 0 0,0 0.5416933989857653,0.4380117230623346 l -12.370921805360961 15.032740254078913" fill="#ffaf10" stroke="none" /><path d="M 113.6212207817346 84.01681056812373 l 10.332467638768318 -12.124154671262488 a36.92968970190225,36.92968970190225 0 0,0 0.48027272722096354,0.416487776359977 l -10.539634164636047 11.94450190148284" fill="#ff7a0b" stroke="none" /><path d="M 115.19652480421416 85.50635884689758 l 5.9827636656862015 -5.706043374484488 a29.26755054843654,29.26755054843654 0 0,0 0.3445664238788006,0.36755943679477027 l -6.080097411535465 5.602214520811662" fill="#ff0000" stroke="none" /><path d="M 115.68641384162765 86.03803664274999 l 6.799006509822615 -6.051573081919773 a30.102089116594403,30.102089116594403 0 0,0 0.3411686730025796,0.39001477021037556 l -6.902167046403043 5.933642755506449" fill="#ff0e01" stroke="none" /><path d="M 117.2510076193507 88.02491185347247 l 7.143267481729833 -4.958623845947737 a29.695643780718044,29.695643780718044 0 0,0 0.2878717404747919,0.42241625763971213 l -7.227563687873357 4.834929565037619" fill="#ff0701" stroke="none" /><line stroke="#e1ed5e" stroke-width="0.3" x1="172.23445277983987" x2="176.4835382374775" y1="55.19839476539836" y2="52.563006222186495" /><path d="M 173.08426987136738 54.67131705675599 a86.0,86.0 0 0,1 12.851231095245387,41.99856678651699" fill="none" id="id87" stroke="none" /><text fill="#e1ed5e" style="font-size:6.75px; font-family:Arial;" text-anchor="middle"><textPath startOffset="22.20632615414155" xlink:href="#id87">March</textPath></text><path d="M 117.84615892207809 88.93136811851018 l 51.215938456965425 -31.765399586566986 a81.2670138875483,81.2670138875483 0 0,0 0.7270851442821127,1.1951368030334562 l -51.75513939953376 30.87909501032645" fill="#49efff" stroke="none" /><path d="M 118.03404312379186 89.2402003453031 l 10.123639727241482 -6.040150536057124 a32.78861738395191,32.78861738395191 0 0,0 0.28501166147306983,0.4871773173449504 l -10.226111063184879 5.864993806358278" fill="#ff3905" stroke="none" /><path d="M 118.21658344932153 89.55222093294921 l 14.244099611367716 -8.169435622362911 a37.42053751027956,37.42053751027956 0 0,0 0.31565534660361466,0.5615156398377467 l -14.382612599263762 7.92303647259037" fill="#ff810b" stroke="none" /><path d="M 118.3937258080291 89.86733742301442 l 7.557002051703998 -4.162971258932189 a29.627781274009784,29.627781274009784 0 0,0 0.24223095632734828,0.44881717356804696 l -7.627541107249811 4.0322731020316835" fill="#ff0601" stroke="none" /><path d="M 119.04729006885535 91.15688171328212 l 45.15882011124179 -20.965963477676176 a70.78845908829422,70.78845908829422 0 0,0 0.5036015130250504,1.1096191790405008 l -45.51302394123019 20.185522289793614" fill="#3aff96" stroke="none" /><path d="M 119.196687751892 91.48605970444005 l 48.77553218669863 -21.632480263726002 a74.3574431776502,74.3574431776502 0 0,0 0.5088502560463481,1.1744965480180785 l -49.14067315258766 20.78968457112132" fill="#3fffc2" stroke="none" /><line stroke="#e1ed5e" stroke-width="0.3" x1="184.98032266829074" x2="189.97916517819016" y1="98.17113171792111" y2="98.06355123074" /><path d="M 185.9800911702706 98.14961562048488 a86.0,86.0 0 0,1 -9.607161424134198,41.387399972396054" fill="none" id="id88" stroke="none" /><text fill="#e1ed5e" style="font-size:6.75px; font-family:Arial;" text-anchor="middle"><textPath startOffset="21.466115282336823" xlink:href="#id88">April</textPath></text><line stroke="#e1ed5e" stroke-width="0.3" x1="174.80103733775053" x2="179.2010983576182" y1="140.37084112569926" y2="142.7455964860345" /><path d="M 175.68104954172406 140.8457921977663 a86.0,86.0 0 0,1 -30.038265399797805,32.042727171017184" fill="none" id="id89" stroke="none" /><text fill="#e1ed5e" style="font-size:6.75px; font-family:Arial;" text-anchor="middle"><textPath startOffset="22.206326154141568" xlink:href="#id89">May</textPath></text><line stroke="#e1ed5e" stroke-width="0.3" x1="143.8653032363475" x2="146.44561519142675" y1="172.8068346515853" y2="177.08958963109032" /><path d="M 144.38136562736335 173.6633856474863 a86.0,86.0 0 0,1 -40.68145358897372,12.25698825130547" fill="none" id="id90" stroke="none" /><text fill="#e1ed5e" style="font-size:6.75px; font-family:Arial;" text-anchor="middle"><textPath startOffset="21.466115282336833" xlink:href="#id90">June</textPath></text><line stroke="#e1ed5e" stroke-width="0.3" x1="102.19456741930631" x2="102.32365962044197" y1="184.97166512339345" y2="189.96999836594603" /><path d="M 102.22038585953345 185.97133177190398 a86.0,86.0 0 0,1 -42.740103519485714,-10.115201625700543" fill="none" id="id91" stroke="none" /><text fill="#e1ed5e" style="font-size:6.75px; font-family:Arial;" text-anchor="middle"><textPath startOffset="22.20632615414155" xlink:href="#id91">July</textPath></text><line stroke="#e1ed5e" stroke-width="0.3" x1="58.666819895761336" x2="56.23545636021788" y1="174.27360380694188" y2="178.64263932499728" /><path d="M 58.180547188652646 175.14741091055294 a86.0,86.0 0 0,1 -31.652253787137756,-30.449443065178592" fill="none" id="id92" stroke="none" /><text fill="#e1ed5e" style="font-size:6.75px; font-family:Arial;" text-anchor="middle"><textPath startOffset="22.20632615414155" xlink:href="#id92">August</textPath></text><line stroke="#e1ed5e" stroke-width="0.3" x1="26.63291911575756" x2="22.317208475507996" y1="142.92168965132927" y2="145.44649492493687" /><path d="M 25.769776987707644 143.4266507060508 a86.0,86.0 0 0,1 -11.730757126820373,-40.83630448921669" fill="none" id="id93" stroke="none" /><text fill="#e1ed5e" style="font-size:6.75px; font-family:Arial;" text-anchor="middle"><textPath startOffset="21.46611528233685" xlink:href="#id93">September</textPath></text><line stroke="#e1ed5e" stroke-width="0.3" x1="15.007084014347285" x2="10.007500721073583" y1="101.09737516637583" y2="101.16192664675087" /><path d="M 14.007167355692545 101.11028546245083 a86.0,86.0 0 0,1 10.666146001902534,-42.60595125391555" fill="none" id="id94" stroke="none" /><text fill="#e1ed5e" style="font-size:6.75px; font-family:Arial;" text-anchor="middle"><textPath startOffset="22.20632615414155" xlink:href="#id94">October</textPath></text><line stroke="#e1ed5e" stroke-width="0.3" x1="26.266209847984243" x2="21.928928074336255" y1="57.711370442889674" y2="55.22380399835377" /><path d="M 25.398753493254645 57.213857153982495 a86.0,86.0 0 0,1 29.58750427330803,-30.492523968695096" fill="none" id="id95" stroke="none" /><text fill="#e1ed5e" style="font-size:6.75px; font-family:Arial;" text-anchor="middle"><textPath startOffset="21.46611528233685" xlink:href="#id95">November</textPath></text><line stroke="#e1ed5e" stroke-width="0.3" x1="56.762969772571076" x2="54.21961505331055" y1="26.818313649435495" y2="22.513508569990535" /><path d="M 56.25429882871897 25.957352633546506 a86.0,86.0 0 0,1 42.265352541879196,-11.944610805530505" fill="none" id="id96" stroke="none" /><text fill="#e1ed5e" style="font-size:6.75px; font-family:Arial;" text-anchor="middle"><textPath startOffset="22.20632615414155" xlink:href="#id96">December</textPath></text></svg>