<?xml version="1.0" encoding="utf-8" ?>
<svg baseProfile="full" height="200mm" version="1.1" viewBox="0,0,200,200" width="200mm" xmlns="http://www.w3.org/2000/svg" xmlns:ev="http://www.w3.org/2001/xml-events" xmlns:xlink="http://www.w3.org/1999/xlink"><defs /><rect fill="#1a1a1a" height="200" width="200" x="0" y="0" /><text alignment-baseline="middle" fill="#e1ed5e" style="dominant-baseline: central; font-size:9.0px; font-family:Arial;" text-anchor="middle" x="100.0" y="100.0">2024</text><line stroke="#e1ed5e" stroke-width="0.3" x1="100.0" x2="100.0" y1="15.0" y2="10.0" /><path d="M 100.0 14.0 a86.0,86.0 0 0,1 42.35913384403234,11.155469271406648" fill="none" id="id73" stroke="none" /><text fill="#e1ed5e" style="font-size:6.75px; font-family:Arial;" text-anchor="middle"><textPath startOffset="22.145653131862478" xlink:href="#id73">January</textPath></text><line stroke="#e1ed5e" stroke-width="0.3" x1="143.13028292997686" x2="145.6673583964461" y1="26.7553504044142" y2="22.446841604673864" /><path d="M 143.63769802327073 25.89364864446614 a86.0,86.0 0 0,1 29.32050498858742,28.57503671076993" fill="none" id="id74" stroke="none" /><text fill="#e1ed5e" style="font-size:6.75px; font-family:Arial;" text-anchor="middle"><textPath startOffset="20.669276256404974" xlink:href="#id74">February</textPath></text><path d="M 114.13192950727249 84.46653392183569 l 17.18687389052779 -18.891385102849103 a46.539637139807894,46.539637139807894 0 0,0 0.586333449573527,0.5427014874751233 l -17.508637111415283 18.593565869241605" fill="#d9ff1c" stroke="none" /><path d="M 116.7966241395341 87.39550010848427 l 48.69817400320726 -36.54401764552825 a81.88495197438634,81.88495197438634 0 0,0 0.8340488501807932,1.131547448989909 l -49.31832487297187 35.702663887269466" fill="#4ae7ff" stroke="none" /><path d="M 117.42321728460499 88.27688183743584 l 12.843081403812812 -8.641398336997288 a36.479615795090716,36.479615795090716 0 0,0 0.345124196954574,0.5225620219820755 l -12.98953003968811 8.419656436676153" fill="#ffa10e" stroke="none" /><line stroke="#e1ed5e" stroke-width="0.3" x1="172.87174338648825" x2="177.1583165268699" y1="56.24261187166439" y2="53.66864786411523" /><path d="M 173.72905801456457 55.72781907015455 a86.0,86.0 0 0,1 12.242430191666344,42.057860355516425" fill="none" id="id75" stroke="none" /><text fill="#e1ed5e" style="font-size:6.75px; font-family:Arial;" text-anchor="middle"><textPath startOffset="22.145653131862474" xlink:href="#id75">March</textPath></text><path d="M 119.71291397450082 92.76114493625339 l 19.81630233259243 -7.276820700915824 a42.11013874066168,42.11013874066168 0 0,0 0.24335615604726954,0.6807104802097316 l -19.938298658683642 6.935575264325176" fill="#ffed16" stroke="none" /><line stroke="#e1ed5e" stroke-width="0.3" x1="184.99686870605535" x2="189.99668451229388" y1="99.2704041080226" y2="99.22748670261217" /><path d="M 185.99683186730306 99.26182062694052 a86.0,86.0 0 0,1 -10.086455211305974,41.156179273409016" fill="none" id="id76" stroke="none" /><text fill="#e1ed5e" style="font-size:6.75px; font-family:Arial;" text-anchor="middle"><textPath startOffset="21.40746469413373" xlink:href="#id76">April</textPath></text><path d="M 120.96210409425399 101.26102812881392 l 27.056742378709306 1.6276664336847981 a48.105656350053366,48.105656350053366 0 0,0 -0.05666397065023359,0.8238816972222884 l -27.024814446894005 -2.09189155506143" fill="#c5ff1e" stroke="none" /><path d="M 120.9064616781168 101.97986365728391 l 13.098875193696381 1.2404770996922372 a34.157481323372465,34.157481323372465 0 0,0 -0.06029219578617105,0.5832723015603142 l -13.075650605428544 -1.465153923535483" fill="#ff800b" stroke="none" /><path d="M 120.86939407059847 102.33845913500097 l 12.46360049970811 1.3965724325751552 a33.54160085378869,33.54160085378869 0 0,0 -0.06902847678151577,0.5716548110324842 l -12.43778993666693 -1.6103209205310478" fill="#ff770b" stroke="none" /><path d="M 120.43855184770803 104.8234425847677 l 12.842727181756953 3.0308486459615227 a34.19551760939167,34.19551760939167 0 0,0 -0.13973342610083145,0.5701600626399836 l -12.788806229139826 -3.2508645332096058" fill="#ff810b" stroke="none" /><path d="M 120.26092885502905 105.52220625578681 l 12.707021945120832 3.4633553367593546 a34.170544290288156,34.170544290288156 0 0,0 -0.15910701653984458,0.5646146716500613 l -12.645696436506409 -3.680977932312424" fill="#ff800b" stroke="none" /><path d="M 119.31412917781788 108.2440532568976 l 11.883534031102585 5.0723740392645205 a33.92081109925294,33.92081109925294 0 0,0 -0.23319122939214143,0.5335871680977033 l -11.794708919693477 -5.2756232771380684" fill="#ff7d0b" stroke="none" /><path d="M 118.8641267826498 109.22738970284198 l 24.046800431427826 11.762495091547754 a47.76947705442903,47.76947705442903 0 0,0 -0.3666423074982397,0.7335302189414412 l -23.841338210717854 -12.173557166652941" fill="#caff1d" stroke="none" /><line stroke="#e1ed5e" stroke-width="0.3" x1="174.33088141563837" x2="178.70328620479359" y1="141.23008692659167" y2="143.65538615756765" /><path d="M 175.20536237346943 141.71514677278685 a86.0,86.0 0 0,1 -30.301960400862466,31.631185727798858" fill="none" id="id77" stroke="none" /><text fill="#e1ed5e" style="font-size:6.75px; font-family:Arial;" text-anchor="middle"><textPath startOffset="22.145653131862474" xlink:href="#id77">May</textPath></text><path d="M 118.18653347947321 110.5 l 23.67382571241688 13.668089647812161 a48.33617929562433,48.33617929562433 0 0,0 -0.42104561643100047,0.7150275060637724 l -23.43570638585611 -14.072468322169483" fill="#c3ff1e" stroke="none" /><path d="M 117.21940702142032 112.02048342749411 l 11.486255465790244 8.018298382676056 a35.00811099252935,35.00811099252935 0 0,0 -0.3482221816822236,0.48981810759459393 l -11.346918185578058 -8.214293716980155" fill="#ff8c0c" stroke="none" /><path d="M 117.01052211995028 112.31430620078461 l 21.337247880455763 15.446521983814486 a47.34147278548559,47.34147278548559 0 0,0 -0.48220216279726347,0.6541998434412889 l -21.06894369807467 -15.810528136524653" fill="#cfff1d" stroke="none" /><path d="M 116.79662413953412 112.60449989151573 l 11.037679143353307 8.282880203143078 a34.799871931696906,34.799871931696906 0 0,0 -0.3626611028845386,0.4747350252536646 l -10.893866063114464 -8.471136141637619" fill="#ff890c" stroke="none" /><line stroke="#e1ed5e" stroke-width="0.3" x1="143.1302829299769" x2="145.66735839644613" y1="173.24464959558577" y2="177.55315839532614" /><path d="M 143.63769802327073 174.10635135553383 a86.0,86.0 0 0,1 -40.68552437913181,11.842963189579606" fill="none" id="id78" stroke="none" /><text fill="#e1ed5e" style="font-size:6.75px; font-family:Arial;" text-anchor="middle"><textPath startOffset="21.407464694133747" xlink:href="#id78">June</textPath></text><path d="M 100.72087961077811 120.9876233191556 l 0.4570589951794255 13.306773949541165 a34.31462113127001,34.31462113127001 0 0,0 -0.5888825042103057,0.015167524398407777 l -0.22856317689837585 -13.312659191289619" fill="#ff820c" stroke="none" /><line stroke="#e1ed5e" stroke-width="0.3" x1="101.45913802915013" x2="101.54496967792366" y1="184.9874750549273" y2="189.98673829345242" /><path d="M 101.47630435890484 185.9873277026323 a86.0,86.0 0 0,1 -42.54439059252881,-10.42667462771756" fill="none" id="id79" stroke="none" /><text fill="#e1ed5e" style="font-size:6.75px; font-family:Arial;" text-anchor="middle"><textPath startOffset="22.145653131862474" xlink:href="#id79">July</textPath></text><path d="M 98.19965949673042 120.92268563240118 l -1.272892064318093 14.792935257157687 a35.84759871931697,35.84759871931697 0 0,0 -0.6126532777124585,-0.05801890237258137 l 1.5266449054155666 -14.768904599279923" fill="#ff980e" stroke="none" /><path d="M 97.48249496171623 120.84855314841334 l -3.083185618467124 25.533199836952992 a46.718676627534684,46.718676627534684 0 0,0 -0.7953791917264692,-0.10297776041516186 l 3.521042632084387 -25.476510480337435" fill="#d6ff1c" stroke="none" /><path d="M 96.76829788921471 120.74984581791261 l -2.981758850111535 19.14503078718984 a40.37583778014941,40.37583778014941 0 0,0 -0.6839330395942477,-0.11254092139818646 l 3.3099693927588465 -19.091023867295984" fill="#ffd614" stroke="none" /><path d="M 95.70440661134978 120.55596938700252 l -7.13934301335846 34.16434079018392 a55.90232657417289,55.90232657417289 0 0,0 -0.9376619246597375,-0.20435905228723417 l 7.7247673546373345 -34.03675027976297" fill="#6bff28" stroke="none" /><path d="M 95.35216902796893 120.47920084513623 l -1.0042546201497855 4.424931153792817 a25.537459978655285,25.537459978655285 0 0,0 -0.4266796943649804,-0.10069524608156127 l 1.080066468254654 -4.407039764065028" fill="#ff0000" stroke="none" /><path d="M 95.00130118170881 120.39639698878247 l -3.13868596024553 12.806909797012 a34.185912486659554,34.185912486659554 0 0,0 -0.5687798509094896,-0.14458161390488836 l 3.3580711043803984 -12.751142951271849" fill="#ff810b" stroke="none" /><path d="M 92.59220618246901 119.65005319985036 l -9.8028186032386 26.003140990001715 a48.78954108858058,48.78954108858058 0 0,0 -0.7811617625805948,-0.3021701510321169 l 10.247752628312723 -25.831030950831558" fill="#bdff1f" stroke="none" /><path d="M 92.25597844496254 119.51999308798841 l -4.9535763188676585 12.486248239097522 a34.43295624332978,34.43295624332978 0 0,0 -0.5475586726421302,-0.2226873453091351 l 5.16718945270023 -12.399373637209095" fill="#ff840c" stroke="none" /><path d="M 91.92203290615298 119.3841803445677 l -10.884749683704829 26.119436786901865 a49.296691568836714,49.296691568836714 0 0,0 -0.7783358968746564,-0.33222531166247266 l 11.331520655749916 -25.928736825579985" fill="#b7ff1f" stroke="none" /><path d="M 90.28995756902619 118.62028667847754 l -6.4682295150801625 12.40368296319623 a34.9889007470651,34.9889007470651 0 0,0 -0.5301837876690494,-0.2822930042131691 l 6.680202118535774 -12.29081949126049" fill="#ff8c0c" stroke="none" /><line stroke="#e1ed5e" stroke-width="0.3" x1="58.13341422392154" x2="55.67067388415222" y1="173.97424548756322" y2="178.32567169271397" /><path d="M 57.64086615596768 174.84453072859336 a86.0,86.0 0 0,1 -31.369924170532247,-30.572349798747897" fill="none" id="id80" stroke="none" /><text fill="#e1ed5e" style="font-size:6.75px; font-family:Arial;" text-anchor="middle"><textPath startOffset="22.145653131862474" xlink:href="#id80">August</textPath></text><path d="M 89.65649057296885 118.27599006163327 l -13.351595623383242 23.59099014133508 a48.107193169690504,48.107193169690504 0 0,0 -0.715210859889148,-0.4129271824843464 l 13.75459895113279 -23.358316061574563" fill="#c5ff1e" stroke="none" /><path d="M 88.72937992617639 117.7192867562869 l -18.739987684999008 29.46237327003872 a55.91731056563501,55.91731056563501 0 0,0 -0.8055138024595957,-0.5221243148126471 l 19.24298711971561 -29.13633511352218" fill="#6bff28" stroke="none" /><path d="M 88.1277618465304 117.32195027204791 l -14.537093146466098 21.210053346986143 a46.71368196371398,46.71368196371398 0 0,0 -0.6575616046581614,-0.45902906885918193 l 14.899049842298025 -20.957379462321832" fill="#d7ff1c" stroke="none" /><path d="M 86.68645165197938 116.24036423190432 l -39.94064504406185 48.72109269571299 a84.0,84.0 0 0,0 -1.1073026633524292,-0.9237512643525192 l 40.77112204157618 -48.0282792474486" fill="#4dd2ff" stroke="none" /><path d="M 86.13680546590413 115.77377054828092 l -17.021863910454183 19.36775646963676 a46.7847598719317,46.7847598719317 0 0,0 -0.5987000566313618,-0.5353612824075117 l 17.351828993908914 -19.07269965734587" fill="#d6ff1c" stroke="none" /><path d="M 85.34317274990678 115.03919595460226 l -9.186941331084496 9.426611131050594 a34.16286019210246,34.16286019210246 0 0,0 -0.4164746781261281,-0.4129150868818659 l 9.347407929340587 -9.267516033940067" fill="#ff800b" stroke="none" /><line stroke="#e1ed5e" stroke-width="0.3" x1="26.387840678322732" x2="22.057713659400548" y1="142.50000000000003" y2="145.00000000000006" /><path d="M 25.521815274538298 143.00000000000003 a86.0,86.0 0 0,1 -11.493303480769221,-40.785679425670985" fill="none" id="id81" stroke="none" /><text fill="#e1ed5e" style="font-size:6.75px; font-family:Arial;" text-anchor="middle"><textPath startOffset="21.40746469413373" xlink:href="#id81">September</textPath></text><path d="M 81.81346652052679 110.50000000000001 l -41.62134727148595 24.03009605122734 a69.06019210245464,69.06019210245464 0 0,0 -0.583942186790955,-1.0317698917999645 l 42.027722823298284 -23.312069389328254" fill="#39ff8d" stroke="none" /><path d="M 81.63589988554817 110.18625677009913 l -23.28676528006079 12.916776156162292 a47.62924226254002,47.62924226254002 0 0,0 -0.39045693094258777,-0.7183967748536894 l 23.505067560618706 -12.515124547834017" fill="#cbff1d" stroke="none" /><path d="M 81.29705330413844 109.54985784667822 l -24.31422991372771 12.415019039696555 a48.30044823906083,48.30044823906083 0 0,0 -0.37071763995637286,-0.741683613814699 l 24.523767466895823 -11.995803569718102" fill="#c3ff1e" stroke="none" /><path d="M 80.68587082218212 108.24405325689762 l -36.25308278087925 15.474285297601664 a60.41750266808965,60.41750266808965 0 0,0 -0.39896886465295067,-0.9573800356516611 l 36.513377490068684 -14.849672752508722" fill="#3aff2e" stroke="none" /><path d="M 80.5471966667186 107.91128576633889 l -24.23133004933307 9.854670981573726 a47.15859124866596,47.15859124866596 0 0,0 -0.29853931463469435,-0.7525140931937725 l 24.39692803893389 -9.437255871166387" fill="#d1ff1c" stroke="none" /><path d="M 80.28708602549918 107.23885506374661 l -24.768123809096103 9.095198136962312 a47.38527214514408,47.38527214514408 0 0,0 -0.2738413604741028,-0.7659830226501544 l 24.920605339614152 -8.668680157931236" fill="#ceff1d" stroke="none" /><path d="M 79.83685265289637 105.86919833188381 l -34.65393008300501 10.08725399537426 a57.09220917822839,57.09220917822839 0 0,0 -0.26583630020195037,-0.9433592472246626 l 34.82198487528153 -9.490886824246601" fill="#5eff2a" stroke="none" /><path d="M 79.56144815229197 104.8234425847677 l -38.73870579635048 9.142229087911533 a60.80286019210245,60.80286019210245 0 0,0 -0.23101942045511983,-1.0179141924689887 l 38.88993607836326 -8.475880561503518" fill="#36ff2e" stroke="none" /><line stroke="#e1ed5e" stroke-width="0.3" x1="15.003131293944662" x2="10.003315487706104" y1="100.72959589197737" y2="100.7725132973878" /><path d="M 14.003168132696942 100.73817937305945 a86.0,86.0 0 0,1 10.791469493833604,-42.45332614584628" fill="none" id="id82" stroke="none" /><text fill="#e1ed5e" style="font-size:6.75px; font-family:Arial;" text-anchor="middle"><textPath startOffset="22.145653131862435" xlink:href="#id82">October</textPath></text><line stroke="#e1ed5e" stroke-width="0.3" x1="26.387840678322718" x2="22.05771365940052" y1="57.49999999999999" y2="54.99999999999999" /><path d="M 25.521815274538284 56.99999999999999 a86.0,86.0 0 0,1 29.574782752854787,-30.34633250058573" fill="none" id="id83" stroke="none" /><text fill="#e1ed5e" style="font-size:6.75px; font-family:Arial;" text-anchor="middle"><textPath startOffset="21.40746469413373" xlink:href="#id83">November</textPath></text><line stroke="#e1ed5e" stroke-width="0.3" x1="56.869717070023135" x2="54.33264160355391" y1="26.7553504044142" y2="22.446841604673864" /><path d="M 56.362301976729285 25.89364864446614 a86.0,86.0 0 0,1 42.16139366436587,-11.88097634709845" fill="none" id="id84" stroke="none" /><text fill="#e1ed5e" style="font-size:6.75px; font-family:Arial;" text-anchor="middle"><textPath startOffset="22.145653131862474" xlink:href="#id84">December</textPath></text></svg>