<?xml version="1.0" encoding="utf-8" ?>
<svg baseProfile="full" height="200mm" version="1.1" viewBox="0,0,200,200" width="200mm" xmlns="http://www.w3.org/2000/svg" xmlns:ev="http://www.w3.org/2001/xml-events" xmlns:xlink="http://www.w3.org/1999/xlink"><defs /><rect fill="#1a1a1a" height="200" width="200" x="0" y="0" /><text alignment-baseline="middle" fill="#e1ed5e" style="dominant-baseline: central; font-size:9.0px; font-family:Arial;" text-anchor="middle" x="100.0" y="100.0">2022</text><line stroke="#e1ed5e" stroke-width="0.3" x1="100.0" x2="100.0" y1="15.0" y2="10.0" /><path d="M 100.0 14.0 a86.0,86.0 0 0,1 42.46469731375804,11.215312516191453" fill="none" id="id49" stroke="none" /><text fill="#e1ed5e" style="font-size:6.75px; font-family:Arial;" text-anchor="middle"><textPath startOffset="22.20632615414155" xlink:href="#id49">January</textPath></text><path d="M 104.307194497241 79.44645832069477 l 1.0096223728523492 -4.817826437620164 a25.922477924663127,25.922477924663127 0 0,0 0.4359386517649685,0.09527930436627449 l -1.0924037487708458 4.799733635158019" fill="#ff2103" stroke="none" /><path d="M 104.66035177308747 79.52364482259891 l 2.0415502060277095 -8.970032556882504 a30.199424510004082,30.199424510004082 0 0,0 0.5058782004753731,0.11972502578338498 l -2.1956520934656063 8.933561618958251" fill="#ff5f08" stroke="none" /><path d="M 105.01212808612495 79.60689891045804 l 1.4411754958748226 -5.863784219023914 a27.03829050122499,27.03829050122499 0 0,0 0.4510129917967253,0.11497325383215008 l -1.541897376356573 5.838107969022896" fill="#ff3204" stroke="none" /><path d="M 105.36241919743992 79.69619591428918 l 2.5721383425858364 -9.7389239942562 a31.072861371988566,31.072861371988566 0 0,0 0.5159605880129254,0.14103151922806048 l -2.7393968198224727 9.693205934201847" fill="#ff6b09" stroke="none" /><path d="M 106.74666289553966 80.11325718540242 l 3.0100552284781066 -8.872563386271096 a30.369248290118414,30.369248290118414 0 0,0 0.4935986173565748,0.17220686553279513 l -3.1623358498979552 8.819435667566093" fill="#ff6209" stroke="none" /><path d="M 108.43124777332544 80.76684994638697 l 3.819413982911003 -8.712750974132677 a30.513146309718252,30.513146309718252 0 0,0 0.4792276797516408,0.21501549075299195 l -3.9688237811294242 8.645715152863152" fill="#ff6409" stroke="none" /><line stroke="#e1ed5e" stroke-width="0.3" x1="143.23703022742887" x2="145.7803849466894" y1="26.81831364943548" y2="22.513508569990506" /><path d="M 143.74570117128098 25.957352633546492 a86.0,86.0 0 0,1 28.547481713284135,27.462654790039103" fill="none" id="id50" stroke="none" /><text fill="#e1ed5e" style="font-size:6.75px; font-family:Arial;" text-anchor="middle"><textPath startOffset="19.985693538727396" xlink:href="#id50">February</textPath></text><path d="M 113.6212207817346 84.01681056812373 l 6.032979957814519 -7.0791203703096315 a30.301117803184972,30.301117803184972 0 0,0 0.3940677704754645,0.34173168734802994 l -6.153941526936747 6.9742236895419305" fill="#ff6108" stroke="none" /><line stroke="#e1ed5e" stroke-width="0.3" x1="172.23445277983987" x2="176.4835382374775" y1="55.19839476539836" y2="52.563006222186495" /><path d="M 173.08426987136738 54.67131705675599 a86.0,86.0 0 0,1 12.851231095245387,41.99856678651699" fill="none" id="id51" stroke="none" /><text fill="#e1ed5e" style="font-size:6.75px; font-family:Arial;" text-anchor="middle"><textPath startOffset="22.20632615414155" xlink:href="#id51">March</textPath></text><path d="M 120.37134235888165 94.90015583598534 l 2.7444306322667753 -0.687051854361801 a23.82912349428338,23.82912349428338 0 0,0 0.09618705099283427,0.3987574244049046 l -2.7558504835204287 0.6397091982974903" fill="#ff0200" stroke="none" /><path d="M 120.45610955862082 95.25157060432595 l 3.15776573838066 -0.7330048567548858 a24.24172493875051,24.24172493875051 0 0,0 0.09085522959201675,0.4072861793407736 l -3.1699153549747145 0.6785405078641483" fill="#ff0801" stroke="none" /><line stroke="#e1ed5e" stroke-width="0.3" x1="184.98032266829074" x2="189.97916517819016" y1="98.17113171792111" y2="98.06355123074" /><path d="M 185.9800911702706 98.14961562048488 a86.0,86.0 0 0,1 -9.607161424134198,41.387399972396054" fill="none" id="id52" stroke="none" /><text fill="#e1ed5e" style="font-size:6.75px; font-family:Arial;" text-anchor="middle"><textPath startOffset="21.466115282336823" xlink:href="#id52">April</textPath></text><path d="M 120.70491114924044 103.5080841355445 l 4.823387229431759 0.8172383883800551 a25.89213071661903,25.89213071661903 0 0,0 -0.07823560997086898,0.4387868488385329 l -4.808605177121701 -0.9001439879518064" fill="#ff2103" stroke="none" /><path d="M 120.41448212921028 104.9243191809786 l 18.580791804995766 4.482001987804046 a40.113716695590035,40.113716695590035 0 0,0 -0.16769192702124397,0.6698458906401575 l -18.50088856367946 -4.801175717841599" fill="#ffe415" stroke="none" /><path d="M 119.67450827220406 107.3425965602758 l 23.255651382259884 8.679091923613557 a45.82240838097182,45.82240838097182 0 0,0 -0.282147596498195,0.7365983419220725 l -23.10280950616818 -9.078113832368773" fill="#d3ff1c" stroke="none" /><line stroke="#e1ed5e" stroke-width="0.3" x1="174.80103733775053" x2="179.2010983576182" y1="140.37084112569926" y2="142.7455964860345" /><path d="M 175.68104954172406 140.8457921977663 a86.0,86.0 0 0,1 -30.038265399797805,32.042727171017184" fill="none" id="id53" stroke="none" /><text fill="#e1ed5e" style="font-size:6.75px; font-family:Arial;" text-anchor="middle"><textPath startOffset="22.206326154141568" xlink:href="#id53">May</textPath></text><path d="M 117.35343817320211 111.8261652097733 l 11.676834657875407 7.957626287826283 a35.13054435483871,35.13054435483871 0 0,0 -0.34484659734318046,0.4967772433474204 l -11.538127153370091 -8.157444793360723" fill="#ffa30f" stroke="none" /><line stroke="#e1ed5e" stroke-width="0.3" x1="143.8653032363475" x2="146.44561519142675" y1="172.8068346515853" y2="177.08958963109032" /><path d="M 144.38136562736335 173.6633856474863 a86.0,86.0 0 0,1 -40.68145358897372,12.25698825130547" fill="none" id="id54" stroke="none" /><text fill="#e1ed5e" style="font-size:6.75px; font-family:Arial;" text-anchor="middle"><textPath startOffset="21.466115282336833" xlink:href="#id54">June</textPath></text><path d="M 104.83641907484287 120.43548508189849 l 0.8872034582985533 3.7487307770693743 a24.85228664761127,24.85228664761127 0 0,0 -0.41713953737122805,0.09493960061595595 l -0.8225437715344631 -3.7634471112630146" fill="#ff1202" stroke="none" /><path d="M 101.62511606390274 120.93702456842531 l 0.20895104811785306 2.692000482436653 a23.70009761637403,23.70009761637403 0 0,0 -0.40700656064947544,0.028069555373565053 l -0.16258172668944731 -2.6951983823265033" fill="#ff0000" stroke="none" /><path d="M 101.26447882468166 120.96189622390904 l 0.2979354009002004 4.939023756820133 a25.948001735402205,25.948001735402205 0 0,0 -0.4460732489194254,0.02305689173892027 l -0.21287408356729537 -4.943420455321256" fill="#ff2203" stroke="none" /><line stroke="#e1ed5e" stroke-width="0.3" x1="102.19456741930631" x2="102.32365962044197" y1="184.97166512339345" y2="189.96999836594603" /><path d="M 102.22038585953345 185.97133177190398 a86.0,86.0 0 0,1 -42.740103519485714,-10.115201625700543" fill="none" id="id55" stroke="none" /><text fill="#e1ed5e" style="font-size:6.75px; font-family:Arial;" text-anchor="middle"><textPath startOffset="22.20632615414155" xlink:href="#id55">July</textPath></text><path d="M 99.81925306533755 120.99922214144158 l -0.03983533928077963 4.628079254561089 a25.628250689056756,25.628250689056756 0 0,0 -0.44109918459814856,-0.007593922486097512 l 0.11949421377159616 -4.626707854795832" fill="#ff1d02" stroke="none" /><path d="M 94.81253420990036 120.34920634021253 l -2.180518889400869 8.5536619622309 a29.827219017966517,29.827219017966517 0 0,0 -0.4964237195778192,-0.131110016265478 l 2.3274330517901776 -8.51486059666184" fill="#ff5a08" stroke="none" /><path d="M 92.7421414339146 119.70592522655815 l -21.773575698256195 59.117775679674445 a84.0,84.0 0 0,0 -1.3525191169588682,-0.5114069995734671 l 22.787965035975347 -58.734220429994345" fill="#4dd2ff" stroke="none" /><path d="M 92.06813273071674 119.44442032107085 l -5.824560173528459 14.27850370593641 a36.42080313393222,36.42080313393222 0 0,0 -0.5784465387233649,-0.24179070009977077 l 6.069478171749286 -14.176127962816667" fill="#ffb410" stroke="none" /><line stroke="#e1ed5e" stroke-width="0.3" x1="58.666819895761336" x2="56.23545636021788" y1="174.27360380694188" y2="178.64263932499728" /><path d="M 58.180547188652646 175.14741091055294 a86.0,86.0 0 0,1 -31.652253787137756,-30.449443065178592" fill="none" id="id56" stroke="none" /><text fill="#e1ed5e" style="font-size:6.75px; font-family:Arial;" text-anchor="middle"><textPath startOffset="22.20632615414155" xlink:href="#id56">August</textPath></text><path d="M 83.72743513129214 113.27417163493432 l -2.0731074883776452 1.6911153736625202 a23.67537770518579,23.67537770518579 0 0,0 -0.25488470592753326,-0.318007860959749 l 2.101910106360039 -1.6551796791245115" fill="#ff0000" stroke="none" /><path d="M 82.85270091963577 112.12312394758628 l -50.721646351089255 35.86015515668204 a83.11792121784401,83.11792121784401 0 0,0 -0.8158977561150281,-1.1753615702138231 l 51.33140501436642 -34.9817523242812" fill="#4cdaff" stroke="none" /><line stroke="#e1ed5e" stroke-width="0.3" x1="26.63291911575756" x2="22.317208475507996" y1="142.92168965132927" y2="145.44649492493687" /><path d="M 25.769776987707644 143.4266507060508 a86.0,86.0 0 0,1 -11.730757126820373,-40.83630448921669" fill="none" id="id57" stroke="none" /><text fill="#e1ed5e" style="font-size:6.75px; font-family:Arial;" text-anchor="middle"><textPath startOffset="21.46611528233685" xlink:href="#id57">September</textPath></text><path d="M 81.18737489456691 109.33194174019688 l -2.9829226158650415 1.479669100445162 a24.32975193956717,24.32975193956717 0 0,0 -0.18287486243011442,-0.3767763823510608 l 3.007950734909875 -1.4281037621288164" fill="#ff0a01" stroke="none" /><path d="M 80.45479744820244 107.68017299344265 l -18.13563999409389 7.12629363304441 a40.485520237852185,40.485520237852185 0 0,0 -0.24928616001843068,-0.6508075007999116 l 18.25562043370583 -6.81306256541134" fill="#ffe915" stroke="none" /><path d="M 80.32549172779594 107.34259656027581 l -17.639913365290397 6.583278494565122 a39.828332355042875,39.828332355042875 0 0,0 -0.23418251287945,-0.6443696980570648 l 17.750620139175073 -6.27866099950194" fill="#ffe115" stroke="none" /><path d="M 80.20201598880116 107.00284435728193 l -18.016258922706307 6.372621427759418 a40.11009914761127,40.11009914761127 0 0,0 -0.22463406816834677,-0.6528917509737266 l 18.123283821817882 -6.061556973696395" fill="#ffe415" stroke="none" /><path d="M 79.23777060512086 103.15116336523772 l -9.721366563627333 1.4754491722793963 a30.832696381175992,30.832696381175992 0 0,0 -0.07512305571714015,-0.5254104767170165 l 9.745323670361072 -1.3078932235819791" fill="#ff6809" stroke="none" /><path d="M 79.18660465613746 102.79330883721812 l -13.20623320071413 1.772372421532656 a34.32463505512454,34.32463505512454 0 0,0 -0.07355032253015878,-0.5862684373732003 l 13.234785032491137 -1.544786229872047" fill="#ff980e" stroke="none" /><path d="M 79.1416061653843 102.43462659150553 l -5.287526183116522 0.6171688937684886 a26.32342282564312,26.32342282564312 0 0,0 -0.04865784241457827,-0.4505111897199152 l 5.297366327032152 -0.5260613821637913" fill="#ff2703" stroke="none" /><path d="M 79.07016306316243 101.71520430193888 l -15.722015022164513 1.2884222596929042 a36.77471991118824,36.77471991118824 0 0,0 -0.046272126390894355,-0.6313464012281343 l 15.741863707219743 -1.0176027219680093" fill="#ffb911" stroke="none" /><path d="M 79.04373962182676 101.35467743843564 l -6.312509207230656 0.4080601046482156 a27.325684590649246,27.325684590649246 0 0,0 -0.026302466670160365,-0.4696482113934387 l 6.318598024788348 -0.2993401769193393" fill="#ff3605" stroke="none" /><path d="M 79.0235259727143 100.99374915477108 l -12.404326352713964 0.5876482774216355 a33.41823831155574,33.41823831155574 0 0,0 -0.02227543143962223,-0.5748299068020233 l 12.412603917004787 -0.3740411236056154" fill="#ff8c0c" stroke="none" /><line stroke="#e1ed5e" stroke-width="0.3" x1="15.007084014347285" x2="10.007500721073583" y1="101.09737516637583" y2="101.16192664675087" /><path d="M 14.007167355692545 101.11028546245083 a86.0,86.0 0 0,1 10.666146001902534,-42.60595125391555" fill="none" id="id58" stroke="none" /><text fill="#e1ed5e" style="font-size:6.75px; font-family:Arial;" text-anchor="middle"><textPath startOffset="22.20632615414155" xlink:href="#id58">October</textPath></text><path d="M 79.00175016825051 100.2711162175752 l -13.751565396462375 0.17755157815056433 a34.75271156594528,34.75271156594528 0 0,0 -0.0025745184562029075,-0.5982274208481299 l 13.752584212208081 0.05918532090124086" fill="#ff9e0e" stroke="none" /><path d="M 79.00486145842228 99.54816195383935 l -24.328406121895057 -0.5235735628298345 a45.334039403838304,45.334039403838304 0 0,0 0.023505279647086562,-0.780025798781828 l 24.315789147792326 0.942269509036657" fill="#d9ff1c" stroke="none" /><path d="M 79.01574976396665 99.18683210126434 l -12.180989352158436 -0.47202970821455587 a33.19013181400572,33.19013181400572 0 0,0 0.027036352266295083,-0.5706946651312278 l 12.171059391658643 0.6816354799687928" fill="#ff890c" stroke="none" /><path d="M 79.05617556472873 98.46500227214037 l -19.693964404038432 -1.4433940040977975 a40.74678759187424,40.74678759187424 0 0,0 0.057289044587971356,-0.699071451802051 l 19.666200875630963 1.782179373107627" fill="#ffec16" stroke="none" /><path d="M 79.12142395522702 97.74499172005258 l -12.249126052145504 -1.3229772284505499 a33.32036354124132,33.32036354124132 0 0,0 0.06649736541930999,-0.5697088176559371 l 12.224538333722604 1.5336297844313487" fill="#ff8b0c" stroke="none" /><path d="M 79.21141760316559 97.0276538004421 l -11.833639504935471 -1.6919707528873777 a32.95398632094732,32.95398632094732 0 0,0 0.08512188312348778,-0.5608468553012109 l 11.802761728372682 1.895416720580681" fill="#ff850c" stroke="none" /><path d="M 79.62865764111835 94.90015583598534 l -9.761376523901765 -2.4437024434212575 a31.06261165271539,31.06261165271539 0 0,0 0.13431424189308058,-0.5175675642415538 l 9.717865950138378 2.6113664332116753" fill="#ff6b09" stroke="none" /><path d="M 79.91906864156998 93.8553929516997 l -10.898481688985619 -3.3348496743802674 a32.39728588199265,32.39728588199265 0 0,0 0.16776319906954715,-0.5318551864787066 l 10.839463006147868 3.521955027285389" fill="#ff7e0b" stroke="none" /><path d="M 80.02781315780177 93.51064311812611 l -22.020108192968877 -7.154766865075175 a44.153311938546345,44.153311938546345 0 0,0 0.2410827731339445,-0.7208068060759348 l 21.89368812606316 7.5327467740734315" fill="#e7ff1a" stroke="none" /><path d="M 80.2630227832202 92.82701384747504 l -27.271572298884763 -9.91127508072383 a50.016754287464266,50.016754287464266 0 0,0 0.3010422971417633,-0.806643687526316 l 27.096925413241372 10.379241905279486" fill="#a2ff22" stroke="none" /><path d="M 80.65960295795068 91.81776055985345 l -10.754776536292962 -4.549966402132069 a32.677645850347076,32.677645850347076 0 0,0 0.2236229185316975,-0.5161525276883947 l 10.674862907918584 4.734418074407063" fill="#ff820b" stroke="none" /><path d="M 81.10775173730289 90.83032412892265 l -11.020498242485868 -5.3489873421209255 a33.250022330543075,33.250022330543075 0 0,0 0.2543468169751036,-0.5127476625686566 l 10.926791412557352 5.537894593188544" fill="#ff8a0c" stroke="none" /><path d="M 81.26839172434947 90.50648371742162 l -6.130892102266689 -3.1072464864247573 a27.873341159657002,27.873341159657002 0 0,0 0.22058506509737724,-0.42610013495207766 l 6.076497604009198 3.2123193436371706" fill="#ff3e05" stroke="none" /><line stroke="#e1ed5e" stroke-width="0.3" x1="26.266209847984243" x2="21.928928074336255" y1="57.711370442889674" y2="55.22380399835377" /><path d="M 25.398753493254645 57.213857153982495 a86.0,86.0 0 0,1 29.58750427330803,-30.492523968695096" fill="none" id="id59" stroke="none" /><text fill="#e1ed5e" style="font-size:6.75px; font-family:Arial;" text-anchor="middle"><textPath startOffset="21.46611528233685" xlink:href="#id59">November</textPath></text><path d="M 82.54541684631803 88.32363383020206 l -13.901436907118464 -9.29946399663049 a37.725130155165374,37.725130155165374 0 0,0 0.36571016805019557,-0.5366345453491356 l 13.73930227339953 9.53737656525004" fill="#ffc612" stroke="none" /><path d="M 84.07557802195018 86.31012108654704 l -14.290587824894066 -12.285307259160156 a39.84541522049816,39.84541522049816 0 0,0 0.45159681055227596,-0.5162532208634298 l 14.076999150763946 12.529476036226528" fill="#ffe115" stroke="none" /><path d="M 86.10567301691215 84.25364557470407 l -11.085073065072494 -12.562644417782487 a37.75407053899551,37.75407053899551 0 0,0 0.490993847167944,-0.4257850259303259 l 10.867185419257776 12.751594437132493" fill="#ffc612" stroke="none" /><path d="M 88.09926311788651 82.69761687909137 l -7.030717784712011 -10.221902553690384 a33.406380793180894,33.406380793180894 0 0,0 0.4765902315478352,-0.321795851794055 l 6.853722858757637 10.341410317783104" fill="#ff8c0c" stroke="none" /><line stroke="#e1ed5e" stroke-width="0.3" x1="56.762969772571076" x2="54.21961505331055" y1="26.818313649435495" y2="22.513508569990535" /><path d="M 56.25429882871897 25.957352633546506 a86.0,86.0 0 0,1 42.265352541879196,-11.944610805530505" fill="none" id="id60" stroke="none" /><text fill="#e1ed5e" style="font-size:6.75px; font-family:Arial;" text-anchor="middle"><textPath startOffset="22.20632615414155" xlink:href="#id60">December</textPath></text><path d="M 92.23578459929587 80.48803036053334 l -6.440044553698839 -16.184243651610753 a38.41849351776235,38.41849351776235 0 0,0 0.6165561471827008,-0.23921420633242765 l 6.160505241516462 16.292700561833733" fill="#ffcf13" stroke="none" /></svg>