<?xml version="1.0" encoding="utf-8" ?>
<svg baseProfile="full" height="200mm" version="1.1" viewBox="0,0,200,200" width="200mm" xmlns="http://www.w3.org/2000/svg" xmlns:ev="http://www.w3.org/2001/xml-events" xmlns:xlink="http://www.w3.org/1999/xlink"><defs /><rect fill="#1a1a1a" height="200" width="200" x="0" y="0" /><text alignment-baseline="middle" fill="#e1ed5e" style="dominant-baseline: central; font-size:9.0px; font-family:Arial;" text-anchor="middle" x="100.0" y="100.0">2019</text><line stroke="#e1ed5e" stroke-width="0.3" x1="100.0" x2="100.0" y1="15.0" y2="10.0" /><path d="M 100.0 14.0 a86.0,86.0 0 0,1 42.46469731375804,11.215312516191453" fill="none" id="id13" stroke="none" /><text fill="#e1ed5e" style="font-size:6.75px; font-family:Arial;" text-anchor="middle"><textPath startOffset="22.20632615414155" xlink:href="#id13">January</textPath></text><line stroke="#e1ed5e" stroke-width="0.3" x1="143.23703022742887" x2="145.7803849466894" y1="26.81831364943548" y2="22.513508569990506" /><path d="M 143.74570117128098 25.957352633546492 a86.0,86.0 0 0,1 28.547481713284135,27.462654790039103" fill="none" id="id14" stroke="none" /><text fill="#e1ed5e" style="font-size:6.75px; font-family:Arial;" text-anchor="middle"><textPath startOffset="19.985693538727396" xlink:href="#id14">February</textPath></text><line stroke="#e1ed5e" stroke-width="0.3" x1="172.23445277983987" x2="176.4835382374775" y1="55.19839476539836" y2="52.563006222186495" /><path d="M 173.08426987136738 54.67131705675599 a86.0,86.0 0 0,1 12.851231095245387,41.99856678651699" fill="none" id="id15" stroke="none" /><text fill="#e1ed5e" style="font-size:6.75px; font-family:Arial;" text-anchor="middle"><textPath startOffset="22.20632615414155" xlink:href="#id15">March</textPath></text><line stroke="#e1ed5e" stroke-width="0.3" x1="184.98032266829074" x2="189.97916517819016" y1="98.17113171792111" y2="98.06355123074" /><path d="M 185.9800911702706 98.14961562048488 a86.0,86.0 0 0,1 -9.607161424134198,41.387399972396054" fill="none" id="id16" stroke="none" /><text fill="#e1ed5e" style="font-size:6.75px; font-family:Arial;" text-anchor="middle"><textPath startOffset="21.466115282336823" xlink:href="#id16">April</textPath></text><line stroke="#e1ed5e" stroke-width="0.3" x1="174.80103733775053" x2="179.2010983576182" y1="140.37084112569926" y2="142.7455964860345" /><path d="M 175.68104954172406 140.8457921977663 a86.0,86.0 0 0,1 -30.038265399797805,32.042727171017184" fill="none" id="id17" stroke="none" /><text fill="#e1ed5e" style="font-size:6.75px; font-family:Arial;" text-anchor="middle"><textPath startOffset="22.206326154141568" xlink:href="#id17">May</textPath></text><line stroke="#e1ed5e" stroke-width="0.3" x1="143.8653032363475" x2="146.44561519142675" y1="172.8068346515853" y2="177.08958963109032" /><path d="M 144.38136562736335 173.6633856474863 a86.0,86.0 0 0,1 -40.68145358897372,12.25698825130547" fill="none" id="id18" stroke="none" /><text fill="#e1ed5e" style="font-size:6.75px; font-family:Arial;" text-anchor="middle"><textPath startOffset="21.466115282336833" xlink:href="#id18">June</textPath></text><line stroke="#e1ed5e" stroke-width="0.3" x1="102.19456741930631" x2="102.32365962044197" y1="184.97166512339345" y2="189.96999836594603" /><path d="M 102.22038585953345 185.97133177190398 a86.0,86.0 0 0,1 -42.740103519485714,-10.115201625700543" fill="none" id="id19" stroke="none" /><text fill="#e1ed5e" style="font-size:6.75px; font-family:Arial;" text-anchor="middle"><textPath startOffset="22.20632615414155" xlink:href="#id19">July</textPath></text><line stroke="#e1ed5e" stroke-width="0.3" x1="58.666819895761336" x2="56.23545636021788" y1="174.27360380694188" y2="178.64263932499728" /><path d="M 58.180547188652646 175.14741091055294 a86.0,86.0 0 0,1 -31.652253787137756,-30.449443065178592" fill="none" id="id20" stroke="none" /><text fill="#e1ed5e" style="font-size:6.75px; font-family:Arial;" text-anchor="middle"><textPath startOffset="22.20632615414155" xlink:href="#id20">August</textPath></text><line stroke="#e1ed5e" stroke-width="0.3" x1="26.63291911575756" x2="22.317208475507996" y1="142.92168965132927" y2="145.44649492493687" /><path d="M 25.769776987707644 143.4266507060508 a86.0,86.0 0 0,1 -11.730757126820373,-40.83630448921669" fill="none" id="id21" stroke="none" /><text fill="#e1ed5e" style="font-size:6.75px; font-family:Arial;" text-anchor="middle"><textPath startOffset="21.46611528233685" xlink:href="#id21">September</textPath></text><path d="M 79.35854240842038 103.8639653848113 l -50.813566285615 9.512015337837644 a72.69619864603052,72.69619864603052 0 0,0 -0.21965868726227092,-1.231962571004562 l 50.969771415216464 -8.635934016099869" fill="#3dffb1" stroke="none" /><path d="M 79.29508885075956 103.50808413554451 l -16.451785764703782 2.787466617293433 a37.686258567762735,37.686258567762735 0 0,0 -0.10286239170433024,-0.6405242113326953 l 16.497329910769402 -2.503863176267524" fill="#ff950d" stroke="none" /><line stroke="#e1ed5e" stroke-width="0.3" x1="15.007084014347285" x2="10.007500721073583" y1="101.09737516637583" y2="101.16192664675087" /><path d="M 14.007167355692545 101.11028546245083 a86.0,86.0 0 0,1 10.666146001902534,-42.60595125391555" fill="none" id="id22" stroke="none" /><text fill="#e1ed5e" style="font-size:6.75px; font-family:Arial;" text-anchor="middle"><textPath startOffset="22.20632615414155" xlink:href="#id22">October</textPath></text><path d="M 79.03285615573316 98.82574320788736 l -46.779335085015944 -2.61985859219034 a67.85263973394964,67.85263973394964 0 0,0 0.07534683130410368,-1.1655821309775365 l 46.727307662707425 3.4246997874208884" fill="#37ff76" stroke="none" /><path d="M 79.62865764111835 94.90015583598534 l -6.816683833608919 -1.7065161762207974 a28.027046032799873,28.027046032799873 0 0,0 0.12118850412466566,-0.46698874229443865 l 6.786298997613946 1.8236013440641" fill="#ff0000" stroke="none" /><path d="M 80.2630227832202 92.82701384747504 l -8.962018818489023 -3.2570558387754067 a30.535522746019346,30.535522746019346 0 0,0 0.1837880934667155,-0.4924607167995725 l 8.90462613652068 3.4108396926043203" fill="#ff2803" stroke="none" /><path d="M 80.95270993114464 91.15688171328213 l -17.184591407178974 -7.978319959072872 a39.94633925593622,39.94633925593622 0 0,0 0.29492155179288077,-0.6211800024486815 l 17.04471166154434 8.272942377162085" fill="#ffb610" stroke="none" /><path d="M 81.10775173730289 90.83032412892265 l -11.230491547110251 -5.450911184732292 a33.483443961245406,33.483443961245406 0 0,0 0.25613238115283765,-0.5163472509943654 l 11.134999153004001 5.643418024225619" fill="#ff5608" stroke="none" /><path d="M 81.26839172434947 90.50648371742162 l -18.390553962980473 -9.320663817219835 a41.617644119998964,41.617644119998964 0 0,0 0.3293552317544417,-0.6362094760848296 l 18.22738929806592 9.635846015564999" fill="#ffcd13" stroke="none" /><path d="M 81.6062741919709 89.86733742301443 l -55.18117742408733 -30.39798773095671 a84.0,84.0 0 0,0 0.7085694348302773,-1.2604659602608617 l 54.64975034796462 31.34333720115236" fill="#4dd2ff" stroke="none" /><line stroke="#e1ed5e" stroke-width="0.3" x1="26.266209847984243" x2="21.928928074336255" y1="57.711370442889674" y2="55.22380399835377" /><path d="M 25.398753493254645 57.213857153982495 a86.0,86.0 0 0,1 29.58750427330803,-30.492523968695096" fill="none" id="id23" stroke="none" /><text fill="#e1ed5e" style="font-size:6.75px; font-family:Arial;" text-anchor="middle"><textPath startOffset="21.46611528233685" xlink:href="#id23">November</textPath></text><path d="M 82.7489923806493 88.02491185347247 l -36.495640928212914 -25.334086374707454 a65.42688081783581,65.42688081783581 0 0,0 0.6501792548703832,-0.9196324468274154 l 36.05414905353865 25.958545321866655" fill="#33ff57" stroke="none" /><path d="M 85.83668400450813 84.49514656593479 l -21.68195218737051 -23.735648554095157 a53.14790915345725,53.14790915345725 0 0,0 0.6807715997394047,-0.6112034639238213 l 21.270169600035132 24.105351026788256" fill="#9aff23" stroke="none" /><path d="M 86.10567301691215 84.25364557470407 l -18.80384348649686 -21.310278969004745 a49.42028359467013,49.42028359467013 0 0,0 0.6427136153495018,-0.5573549138259501 l 18.434236072500582 21.630798876250374" fill="#c8ff1d" stroke="none" /><path d="M 88.09926311788651 82.69761687909137 l -16.628693776286653 -24.176320623474215 a50.34293672410005,50.34293672410005 0 0,0 0.718214643444238,-0.48494173329464224 l 16.21007443843588 24.458974269067525" fill="#bcff1f" stroke="none" /><line stroke="#e1ed5e" stroke-width="0.3" x1="56.762969772571076" x2="54.21961505331055" y1="26.818313649435495" y2="22.513508569990535" /><path d="M 56.25429882871897 25.957352633546506 a86.0,86.0 0 0,1 42.265352541879196,-11.944610805530505" fill="none" id="id24" stroke="none" /><text fill="#e1ed5e" style="font-size:6.75px; font-family:Arial;" text-anchor="middle"><textPath startOffset="22.20632615414155" xlink:href="#id24">December</textPath></text><path d="M 89.63071344664047 81.73862282372117 l -9.09648829584683 -16.019848896570974 a39.422314132199695,39.422314132199695 0 0,0 0.5929790184474547,-0.32999218176124956 l 8.81938518832733 16.174056475892407" fill="#ffae10" stroke="none" /><path d="M 89.94658935756843 81.56283822128135 l -23.194070626467706 -42.53609522745822 a69.44878026766996,69.44878026766996 0 0,0 1.0544803619482788,-0.5632668903852248 l 22.458445217991123 42.929040844345195" fill="#39ff8a" stroke="none" /></svg>