<?xml version="1.0" encoding="utf-8" ?>
<svg baseProfile="full" height="200mm" version="1.1" viewBox="0,0,200,200" width="200mm" xmlns="http://www.w3.org/2000/svg" xmlns:ev="http://www.w3.org/2001/xml-events" xmlns:xlink="http://www.w3.org/1999/xlink"><defs /><rect fill="#1a1a1a" height="200" width="200" x="0" y="0" /><text alignment-baseline="middle" fill="#e1ed5e" style="dominant-baseline: central; font-size:9.0px; font-family:Arial;" text-anchor="middle" x="100.0" y="100.0">2025</text><line stroke="#e1ed5e" stroke-width="0.3" x1="100.0" x2="100.0" y1="15.0" y2="10.0" /><path d="M 100.0 14.0 a86.0,86.0 0 0,1 42.46469731375804,11.215312516191453" fill="none" id="id85" stroke="none" /><text fill="#e1ed5e" style="font-size:6.75px; font-family:Arial;" text-anchor="middle"><textPath startOffset="22.20632615414155" xlink:href="#id85">January</textPath></text><path d="M 100.36148047927253 79.00311137660856 l 0.18903522498286016 -10.980265304645743 a31.98189239050772,31.98189239050772 0 0,0 0.5503525745711156,0.014213983302918811 l -0.37801443474884355 10.975384529200465" fill="#ff5608" stroke="none" /><path d="M 101.44485096284872 79.0497635885617 l 2.8372923478214016 -41.1405376635009 a62.238259748793254,62.238259748793254 0 0,0 1.0681561624038096,0.08290947611041587 l -3.5450386995875522 41.08560292520202" fill="#30ff35" stroke="none" /><path d="M 101.80526077348638 79.07773832637324 l 0.490950268732768 -5.689920338393633 a26.71106168970659,26.71106168970659 0 0,0 0.45774475861275266,0.04346838041272412 l -0.5888201544357649 5.68062641346573" fill="#ff0600" stroke="none" /><path d="M 102.52436894288641 79.15227682838746 l 1.2554220284209898 -10.368013354711453 a31.44374383987465,31.44374383987465 0 0,0 0.5367675736746288,0.06968783639548158 l -1.433704330603465 10.344867195151833" fill="#ff4e07" stroke="none" /><path d="M 102.88285421437855 79.19881850522331 l 1.465200144924672 -10.572124663376755 a31.673173443857564,31.673173443857564 0 0,0 0.5393956815136574,0.07949290212464821 l -1.646964806866985 10.545337277091138" fill="#ff5207" stroke="none" /><path d="M 103.59715602781102 79.31037775812273 l 1.4896256835328545 -8.56782203379921 a29.696353205792413,29.696353205792413 0 0,0 0.5028651469252996,0.09189539136747013 l -1.6368859515610552 8.540911161081002" fill="#ff3404" stroke="none" /><path d="M 103.95276090670814 79.375362276772 l 5.263838025667183 -27.4655499979508 a48.96541484495438,48.96541484495438 0 0,0 0.8264279902585192,0.16577368021498057 l -5.735832425392827 27.37087236165861" fill="#c1ff1e" stroke="none" /><path d="M 104.307194497241 79.44645832069477 l 2.2966841895748673 -10.95956875057901 a32.19762945740352,32.19762945740352 0 0,0 0.5414679575186071,0.11834392321058722 l -2.4849948712470025 10.918411329272551" fill="#ff5908" stroke="none" /><path d="M 104.66035177308747 79.52364482259891 l 2.3420714494612196 -10.290443551270172 a31.55360256766661,31.55360256766661 0 0,0 0.5285623797287433,0.1250936381162204 l -2.518857516152486 10.248604001013083" fill="#ff5007" stroke="none" /><path d="M 105.01212808612495 79.60689891045804 l 2.5940983380877944 -10.554740169407227 a31.86884935176527,31.86884935176527 0 0,0 0.531589269321875,0.13551394107896936 l -2.775396496094695 10.508523232159389" fill="#ff5507" stroke="none" /><path d="M 105.36241919743992 79.69619591428918 l 1.4458569631672984 -5.474468786424732 a26.662182516616543,26.662182516616543 0 0,0 0.44272187244985056,0.12101261165616374 l -1.5398767248408598 5.448769633942275" fill="#ff0500" stroke="none" /><line stroke="#e1ed5e" stroke-width="0.3" x1="143.23703022742887" x2="145.7803849466894" y1="26.81831364943548" y2="22.513508569990506" /><path d="M 143.74570117128098 25.957352633546492 a86.0,86.0 0 0,1 28.547481713284135,27.462654790039103" fill="none" id="id86" stroke="none" /><text fill="#e1ed5e" style="font-size:6.75px; font-family:Arial;" text-anchor="middle"><textPath startOffset="19.985693538727396" xlink:href="#id86">February</textPath></text><path d="M 110.99172775467656 82.1063720568725 l 5.471085335658753 -8.906476545484573 a31.452659910536028,31.452659910536028 0 0,0 0.4588806001684268,0.2873509897276817 l -5.623585088199444 8.810981214433946" fill="#ff4e07" stroke="none" /><path d="M 113.06298171725822 83.55741782278167 l 7.927122671657215 -9.977994976859822 a33.74361242386717,33.74361242386717 0 0,0 0.4516768939288607,0.36522463620130335 l -8.097702964150567 9.840064243394389" fill="#ff700a" stroke="none" /><path d="M 113.6212207817346 84.01681056812373 l 6.763380703706801 -7.936175231239168 a31.427185422932094,31.427185422932094 0 0,0 0.4087123442895605,0.35443131744958734 l -6.898986846643125 7.81857892036991" fill="#ff4e07" stroke="none" /><path d="M 115.19652480421416 85.50635884689758 l 3.9161708263684143 -3.7350364891249543 a26.411736460360384,26.411736460360384 0 0,0 0.31094496840501257,0.3316944122835231 l -3.9798831167438897 3.6670726599633765" fill="#ff0100" stroke="none" /><path d="M 115.68641384162765 86.03803664274999 l 4.4504634362825595 -3.9612117879525854 a26.958005003917208,26.958005003917208 0 0,0 0.3055345015543513,0.34927875225566496 l -4.517989801414759 3.884017479493973" fill="#ff0a01" stroke="none" /><path d="M 117.2510076193507 88.02491185347247 l 4.6758082518521125 -3.2457939389802055 a26.69195582400364,26.69195582400364 0 0,0 0.2587537699627669,0.3796892288821597 l -4.730986487483612 3.1648266868276393" fill="#ff0500" stroke="none" /><line stroke="#e1ed5e" stroke-width="0.3" x1="172.23445277983987" x2="176.4835382374775" y1="55.19839476539836" y2="52.563006222186495" /><path d="M 173.08426987136738 54.67131705675599 a86.0,86.0 0 0,1 12.851231095245387,41.99856678651699" fill="none" id="id87" stroke="none" /><text fill="#e1ed5e" style="font-size:6.75px; font-family:Arial;" text-anchor="middle"><textPath startOffset="22.20632615414155" xlink:href="#id87">March</textPath></text><path d="M 117.84615892207809 88.93136811851018 l 33.524701164548404 -20.792853955159668 a60.449313856807095,60.449313856807095 0 0,0 0.5408319561015097,0.8889855336429411 l -33.87764891893614 20.212700648309646" fill="#3dff2e" stroke="none" /><path d="M 118.03404312379186 89.2402003453031 l 6.626687058336297 -3.95373486869423 a28.716540726326166,28.716540726326166 0 0,0 0.24961555677474676,0.4266739005995994 l -6.693762289581371 3.8390815557407354" fill="#ff2503" stroke="none" /><path d="M 118.21658344932153 89.55222093294921 l 9.32383935970265 -5.347512828508671 a31.74848239783669,31.74848239783669 0 0,0 0.26780957415897444,0.47640334943348933 l -9.414506575154057 5.186225969140388" fill="#ff5307" stroke="none" /><path d="M 118.3937258080291 89.86733742301442 l 4.9466287861957605 -2.7249792079778796 a26.64753468624428,26.64753468624428 0 0,0 0.21786504197253193,0.40367083480962995 l -4.992801927386757 2.6394273898357907" fill="#ff0500" stroke="none" /><path d="M 119.04729006885535 91.15688171328212 l 29.55985958248282 -13.723807107557507 a53.590308069448305,53.590308069448305 0 0,0 0.3812508504188584,0.840035712182666 l -29.791712749865027 13.212949386532777" fill="#8aff24" stroke="none" /><path d="M 119.196687751892 91.48605970444005 l 31.92727088413815 -14.160092700415495 a55.92647779827642,55.92647779827642 0 0,0 0.3827216393042562,0.8833743107593647 l -32.166283233285085 13.608419245069529" fill="#6fff28" stroke="none" /><path d="M 120.08093135843002 93.85539295169968 l 23.14618004818506 -7.082549037527587 a45.20553969016149,45.20553969016149 0 0,0 0.22127918562054694,0.7460434101368262 l -23.264665130917308 6.683076240644231" fill="#f0ff19" stroke="none" /><path d="M 120.37134235888165 94.90015583598534 l 5.413446508722499 -1.355224074012839 a26.580504940736436,26.580504940736436 0 0,0 0.10729309387998483,0.4447991421964241 l -5.435972402863303 1.2618397001570087" fill="#ff0400" stroke="none" /><path d="M 120.45610955862082 95.25157060432595 l 10.670325287218123 -2.476877927840291 a31.954029669690918,31.954029669690918 0 0,0 0.11976007109086201,0.5368609161102434 l -10.711379745311023 2.292838842180083" fill="#ff5607" stroke="none" /><path d="M 120.6074358757038 95.95851677861258 l 32.058731082430654 -6.287285063027775 a53.669438196568024,53.669438196568024 0 0,0 0.16998970618139378,0.9080918076908913 l -32.16220651252191 5.734515177874321" fill="#89ff24" stroke="none" /><path d="M 120.67395015179393 96.31383870115 l 9.371696122538548 -1.6709715994205643 a30.519497586494477,30.519497586494477 0 0,0 0.08776264983744989,0.5179801272993866 l -9.39907063389622 1.5094056838053398" fill="#ff4006" stroke="none" /><path d="M 120.73433829027371 96.67025291283417 l 7.085066289842827 -1.1377975274980208 a28.1758447269327,28.1758447269327 0 0,0 0.07277969160978465,0.47952723402421993 l -7.103601874891912 1.0156711810817187" fill="#ff1d02" stroke="none" /><path d="M 120.83666639777658 97.38593545837742 l 6.322721569194665 -0.7932172039932304 a27.37228385857616,27.37228385857616 0 0,0 0.054626797809451816,0.46800904360815865 l -6.335438720007706 0.684264422060219" fill="#ff1001" stroke="none" /><path d="M 120.87857604477298 97.74499172005257 l 5.543489093138189 -0.5987292322052034 a26.575728474310697,26.575728474310697 0 0,0 0.04520768610433418,0.45523522959830726 l -5.552973904924752 0.5032184719024612" fill="#ff0400" stroke="none" /><path d="M 120.98425023603335 99.18683210126433 l 10.648304493146496 -0.4126361100536653 a31.65629659581996,31.65629659581996 0 0,0 0.01641349665419099,0.5446840467637205 l -10.653829684256332 0.22928191586494578" fill="#ff5107" stroke="none" /><line stroke="#e1ed5e" stroke-width="0.3" x1="184.98032266829074" x2="189.97916517819016" y1="98.17113171792111" y2="98.06355123074" /><path d="M 185.9800911702706 98.14961562048488 a86.0,86.0 0 0,1 -9.607161424134198,41.387399972396054" fill="none" id="id88" stroke="none" /><text fill="#e1ed5e" style="font-size:6.75px; font-family:Arial;" text-anchor="middle"><textPath startOffset="21.466115282336823" xlink:href="#id88">April</textPath></text><path d="M 120.8583938346157 102.4346265915055 l 10.655603451513095 1.243739844845519 a31.727943592206017,31.727943592206017 0 0,0 -0.06798617030240033,0.5419166694997768 l -10.632615771963847 -1.4269742686326907" fill="#ff5207" stroke="none" /><path d="M 120.81339534386255 102.79330883721812 l 10.390549393302638 1.3944872023209884 a31.48370694230332,31.48370694230332 0 0,0 -0.0767092258675317,0.5365041470545269 l -10.365006116418506 -1.5731368213559247" fill="#ff4f07" stroke="none" /><path d="M 120.64145759157962 103.86396538481128 l 8.693105862900744 1.6273007849237815 a29.84410523389522,29.84410523389522 0 0,0 -0.09886935244778208,0.5041326980792394 l -8.663806577477297 -1.776697210070966" fill="#ff3605" stroke="none" /><path d="M 120.5718875245553 104.21870165774334 l 10.78717848548075 2.212139634963061 a32.01166569789481,32.01166569789481 0 0,0 -0.11534254557442773,0.5388419734131082 l -10.747501901181879 -2.397495427792338" fill="#ff5708" stroke="none" /><path d="M 120.49622156327973 104.57218783832717 l 5.2370024228872865 1.168242581360134 a26.36572316712578,26.36572316712578 0 0,0 -0.10262472811964636,0.44210464280076417 l -5.216117128837087 -1.2582158815094633" fill="#ff0000" stroke="none" /><path d="M 120.23288151984713 105.62410040840565 l 39.570932676032484 10.999466309628676 a62.071242639439966,62.071242639439966 0 0,0 -0.295007954906934,1.026961392438793 l -39.37573208423945 -11.67898517757205" fill="#30ff33" stroke="none" /><path d="M 120.13307415673323 105.97154293290107 l 13.478052378563243 3.997639297601398 a35.058414415325124,35.058414415325124 0 0,0 -0.17658293540602196,0.5770832499271447 l -13.407242670651089 -4.2290495200806" fill="#ff830c" stroke="none" /><path d="M 120.02730092923936 106.31721596034902 l 23.881527636413097 7.532955542801387 a46.04142131466552,46.04142131466552 0 0,0 -0.24491350167018439,0.7537662521222758 l -23.748321883726664 -7.942920694901458" fill="#e6ff1a" stroke="none" /><path d="M 119.9155931802556 106.66101706037122 l 30.940161731907626 10.348320699340398 a53.62485784326114,53.62485784326114 0 0,0 -0.30032261770158647,0.8728781049420231 l -30.757448283262807 -10.879371507371722" fill="#89ff24" stroke="none" /><path d="M 119.12269723197855 108.67885076344098 l 29.014170806373755 13.168103610007861 a52.86253380171347,52.86253380171347 0 0,0 -0.38319140298967613,0.8253601917322073 l -28.78320478654425 -13.6655838690189" fill="#92ff23" stroke="none" /><path d="M 118.97047184881838 109.00673069616215 l 9.627865644013509 4.571082560598659 a31.657888751295204,31.657888751295204 0 0,0 -0.23795688770693413,0.4902616691782798 l -9.54775549969186 -4.736133185742214" fill="#ff5107" stroke="none" /><path d="M 118.81262510543309 109.33194174019688 l 9.313839768895706 4.620100045248979 a31.3967752533549,31.3967752533549 0 0,0 -0.24432870363451464,0.48208371174101716 l -9.232932395474924 -4.77973796869269" fill="#ff4d07" stroke="none" /><line stroke="#e1ed5e" stroke-width="0.3" x1="174.80103733775053" x2="179.2010983576182" y1="140.37084112569926" y2="142.7455964860345" /><path d="M 175.68104954172406 140.8457921977663 a86.0,86.0 0 0,1 -30.038265399797805,32.042727171017184" fill="none" id="id89" stroke="none" /><text fill="#e1ed5e" style="font-size:6.75px; font-family:Arial;" text-anchor="middle"><textPath startOffset="22.206326154141568" xlink:href="#id89">May</textPath></text><path d="M 118.48025628344425 109.97397251340804 l 17.616234596659847 9.507651677657716 a41.0181707902651,41.0181707902651 0 0,0 -0.3406922203318691,0.618455340647235 l -17.44996596687647 -9.809477536702754" fill="#ffd614" stroke="none" /><path d="M 118.12598468904814 110.60418214915192 l 29.236894017849263 17.104359016040025 a54.872630089211256,54.872630089211256 0 0,0 -0.4839743092028008,0.8111687803741477 l -28.938138832948237 -17.605089890300277" fill="#7bff26" stroke="none" /><path d="M 117.94076556474637 110.91462005526583 l 21.92120431459874 13.336198802901064 a46.659177639060886,46.659177639060886 0 0,0 -0.42334396305976163,0.6825652641047095 l -21.688395711871014 -13.711560398371047" fill="#deff1b" stroke="none" /><path d="M 117.75023020441432 111.22182372390056 l 27.192451905838578 17.191264473408136 a53.170934317268575,53.170934317268575 0 0,0 -0.49574334995330877,0.7694046881434803 l -26.89250369250822 -17.65679076147307" fill="#8eff24" stroke="none" /><path d="M 117.55443506779139 111.5257021239791 l 4.970200079645187 3.263280498252739 a26.945745406757815,26.945745406757815 0 0,0 -0.2579052928167451,0.3855334197113885 l -4.9132916814177205 -3.3483508321699347" fill="#ff0901" stroke="none" /><path d="M 117.14729908036423 112.12312394758627 l 8.56996604951561 6.058957749436835 a31.495488892820138,31.495488892820138 0 0,0 -0.31678493824635073,0.4399865724305042 l -8.464401318893657 -6.205577927318471" fill="#ff4f07" stroke="none" /><path d="M 116.93607887273984 112.41649034213515 l 5.202936004878199 3.8144723545956367 a27.451413985695872,27.451413985695872 0 0,0 -0.2826694756045481,0.37868195575780744 l -5.136505262578559 -3.903467189862759" fill="#ff1101" stroke="none" /><path d="M 116.27256486870786 113.27417163493432 l 8.13031937765307 6.632221517416452 a31.492304581869647,31.492304581869647 0 0,0 -0.34627138573926636,0.4171061908091176 l -8.01495199202026 -6.77118896533934" fill="#ff4f07" stroke="none" /><path d="M 116.0416608686014 113.55231037782055 l 8.338469022350669 7.044502510829518 a31.915817938285024,31.915817938285024 0 0,0 -0.35815245525391287,0.41661221885120153 l -8.215974057525978 -7.186991828842247" fill="#ff5507" stroke="none" /><path d="M 115.80600337817218 113.82643327865902 l 7.845680010884271 6.86307402325411 a31.423841896434077,31.423841896434077 0 0,0 -0.3596401099932242,0.40405947609601695 l -7.726381051242708 -6.997107669090994" fill="#ff4e07" stroke="none" /><path d="M 115.56566222782051 114.09645910891815 l 7.849115682269017 7.10825769163345 a31.589426065859637,31.589426065859637 0 0,0 -0.36847349448504224,0.3999052038645139 l -7.725595779788253 -7.242314150299299" fill="#ff5007" stroke="none" /><path d="M 115.07121518719521 114.62390073753431 l 39.98395026965846 38.79722454860736 a76.71302282089513,76.71302282089513 0 0,0 -0.927713872652141,0.9397692550549277 l -39.31019577195078 -39.47973429764295" fill="#43ffe1" stroke="none" /><path d="M 114.55890576462653 115.13401014063108 l 4.014452048980534 4.173030514831902 a26.790510247921354,26.790510247921354 0 0,0 -0.3350908105007038,0.3168492766422429 l -3.9420254040890224 -4.241514428220067" fill="#ff0701" stroke="none" /><path d="M 114.29624159901734 115.38237550388516 l 7.634971252001172 8.215025882587408 a32.215143167631226,32.215143167631226 0 0,0 -0.4094398202585835,0.3740135680817768 l -7.492431882275725 -8.345232217255766" fill="#ff5a08" stroke="none" /><path d="M 114.0293411484842 115.62618273729858 l 3.9812851413057975 4.434441253433892 a26.95943794384493,26.95943794384493 0 0,0 -0.3479791340961651,0.3070511269997036 l -3.9043636543030447 -4.502315522205885" fill="#ff0a01" stroke="none" /><path d="M 113.75828350139079 115.86535959552629 l 6.888703599523728 7.943706040247841 a31.51459475852309,31.51459475852309 0 0,0 -0.41289300046446353,0.3518763725181631 l -6.750945122482218 -8.061106802988952" fill="#ff4f07" stroke="none" /><path d="M 113.20401910651253 116.32954008644616 l 27.177541310389614 33.61073220957116 a64.22383684197226,64.22383684197226 0 0,0 -0.8656226574792184,0.6877029913441758 l -26.594961160193044 -34.07356911492047" fill="#33ff4f" stroke="none" /><path d="M 112.34349029814194 116.9893568818739 l 6.373107907479082 8.771830501066079 a31.842578786423715,31.842578786423715 0 0,0 -0.4462095594125394,0.3183586730422474 l -6.221171020217658 -8.880233435952544" fill="#ff5407" stroke="none" /><path d="M 112.04921762599082 117.19931262002967 l 6.096473539415937 8.702237567522658 a31.625249564052666,31.625249564052666 0 0,0 -0.4485410883207737,0.3085106505630348 l -5.945775566472281 -8.805889007450787" fill="#ff5107" stroke="none" /><line stroke="#e1ed5e" stroke-width="0.3" x1="143.8653032363475" x2="146.44561519142675" y1="172.8068346515853" y2="177.08958963109032" /><path d="M 144.38136562736335 173.6633856474863 a86.0,86.0 0 0,1 -40.68145358897372,12.25698825130547" fill="none" id="id90" stroke="none" /><text fill="#e1ed5e" style="font-size:6.75px; font-family:Arial;" text-anchor="middle"><textPath startOffset="21.466115282336833" xlink:href="#id90">June</textPath></text><path d="M 110.8373102113329 117.98757091392108 l 10.830846552383035 17.976842650038524 a41.98747504359473,41.98747504359473 0 0,0 -0.6222786308552696,0.36765318365698857 l -10.519800050499384 -18.16061440598926" fill="#ffe315" stroke="none" /><path d="M 110.5260780823613 118.17145234162733 l 5.473140293915083 9.448429627039934 a31.919161464783038,31.919161464783038 0 0,0 -0.4778013221569473,0.2713080605692315 l -5.3096902048369365 -9.541240853403792" fill="#ff5507" stroke="none" /><path d="M 110.21172684928248 118.3499491758327 l 5.088185361279122 9.143208015130973 a31.463645783315222,31.463645783315222 0 0,0 -0.475516353669973,0.2592894301200942 l -4.930046195740501 -9.229438097010839" fill="#ff4e07" stroke="none" /><path d="M 109.57404056367764 118.69057910512821 l 4.94204284468216 9.64792681993643 a31.84003133766332,31.84003133766332 0 0,0 -0.4899515098106833,0.24567185824557475 l -4.775237427188716 -9.731566519091308" fill="#ff5407" stroke="none" /><path d="M 108.92500713936063 119.00905698771935 l 26.775021418081884 57.02717096315804 a84.0,84.0 0 0,0 -1.3141280169303222,0.6032517186637025 l -25.789425405384144 -57.479609752155824" fill="#4dd2ff" stroke="none" /><line stroke="#e1ed5e" stroke-width="0.3" x1="102.19456741930631" x2="102.32365962044197" y1="184.97166512339345" y2="189.96999836594603" /><path d="M 102.22038585953345 185.97133177190398 a86.0,86.0 0 0,1 -42.740103519485714,-10.115201625700543" fill="none" id="id91" stroke="none" /><text fill="#e1ed5e" style="font-size:6.75px; font-family:Arial;" text-anchor="middle"><textPath startOffset="22.20632615414155" xlink:href="#id91">July</textPath></text><path d="M 100.18074693466247 120.99922214144158 l 0.04851101736499162 5.636021611415743 a26.636230382370037,26.636230382370037 0 0,0 -0.45851590405489023,0.0 l 0.04851101736498774 -5.636021611415743" fill="#ff0500" stroke="none" /><path d="M 99.81925306533755 120.99922214144158 l -0.12488161052178909 14.508775408144542 a35.509312845914735,35.509312845914735 0 0,0 -0.6111665260345568,-0.010521785999292009 l 0.37460782644901375 -14.504476144866091" fill="#ff8a0c" stroke="none" /><path d="M 97.65516085044442 120.86867818915974 l -1.220200509506662 10.8595814616834 a31.92791831989689,31.92791831989689 0 0,0 -0.5456216344793406,-0.06606718140435122 l 1.4069495670373917 -10.8369687515537" fill="#ff5507" stroke="none" /><path d="M 96.22490169976321 120.6578951692458 l -1.5515788535659485 8.490468526812519 a29.631074831307338,29.631074831307338 0 0,0 -0.5009519609601739,-0.09600863559373063 l 1.6974984290978175 -8.46250269287032" fill="#ff3304" stroke="none" /><path d="M 95.51606077576429 120.51570834832081 l -3.057926658899662 13.991164542430619 a35.32143849983573,35.32143849983573 0 0,0 -0.5928616840786327,-0.13493338910436545 l 3.2983084923711576 -13.936454419748568" fill="#ff870c" stroke="none" /><path d="M 94.81253420990036 120.34920634021253 l -2.627740037660244 10.308005179877833 a31.637668376759585,31.637668376759585 0 0,0 -0.5265555935637234,-0.1390681180494963 l 2.8047860740354564 -10.261245712524756" fill="#ff5107" stroke="none" /><path d="M 92.7421414339146 119.70592522655815 l -3.759434637481016 10.207299740795467 a31.877606206879122,31.877606206879122 0 0,0 -0.5132746642582224,-0.19407655885529268 l 3.9345795224995217 -10.14107493183354" fill="#ff5507" stroke="none" /><path d="M 91.7346041902142 119.30500536409082 l -4.479970278057974 10.463606612339353 a32.382319492532034,32.382319492532034 0 0,0 -0.5105293566954721,-0.22380106690049545 l 4.659420309411189 -10.384940992144406" fill="#ff5c08" stroke="none" /><path d="M 91.40352486487194 119.15986991738527 l -11.23162096908954 25.033097094618277 a48.437296873815356,48.437296873815356 0 0,0 -0.7577715343601461,-0.3478557450780131 l 11.660860499217106 -24.83605427920619" fill="#c7ff1e" stroke="none" /><path d="M 91.07499286063937 119.00905698771935 l -4.604716337285434 9.80742243686448 a31.83461800904749,31.83461800904749 0 0,0 -0.49402374896190154,-0.23716142127549977 l 4.772852754247578 -9.726706739089417" fill="#ff5407" stroke="none" /><path d="M 90.42595943632237 118.69057910512821 l -4.938631235292285 9.641266627225415 a31.832548206929665,31.832548206929665 0 0,0 -0.4855359422115934,-0.2540094571193104 l 5.103858080030375 -9.554827751161387" fill="#ff5407" stroke="none" /><line stroke="#e1ed5e" stroke-width="0.3" x1="58.666819895761336" x2="56.23545636021788" y1="174.27360380694188" y2="178.64263932499728" /><path d="M 58.180547188652646 175.14741091055294 a86.0,86.0 0 0,1 -31.652253787137756,-30.449443065178592" fill="none" id="id92" stroke="none" /><text fill="#e1ed5e" style="font-size:6.75px; font-family:Arial;" text-anchor="middle"><textPath startOffset="22.20632615414155" xlink:href="#id92">August</textPath></text><path d="M 89.1626897886671 117.98757091392108 l -12.33381158854039 20.471436755202504 a44.8998458389143,44.8998458389143 0 0,0 -0.6585755446770658,-0.40455088906430675 l 12.684366333149764 -20.25609739930982" fill="#f4ff19" stroke="none" /><path d="M 88.24862548938628 117.40417183066458 l -5.907910059380791 8.749808947090157 a31.55758295635472,31.55758295635472 0 0,0 -0.4475813724520129,-0.3078505492373413 l 6.057648316455695 -8.646817608487716" fill="#ff5007" stroke="none" /><path d="M 87.95078237400918 117.19931262002967 l -6.300283121590763 8.993159752480226 a31.98045945058,31.98045945058 0 0,0 -0.4481416790067854,-0.3197371890717875 l 6.4541521284464345 -8.88337830156422" fill="#ff5608" stroke="none" /><path d="M 87.36589467227662 116.77436683061367 l -9.049083350426042 12.014514654058024 a36.04109277464682,36.04109277464682 0 0,0 -0.49234067194034004,-0.37750583276058336 l 9.254552750859869 -11.856969479470074" fill="#ff910d" stroke="none" /><path d="M 87.07902340077011 116.55440617244103 l -9.208412236986097 11.79785407114118 a35.96610225176274,35.96610225176274 0 0,0 -0.48475884564394284,-0.3851217448497688 l 9.410128575347398 -11.63759841228628" fill="#ff900d" stroke="none" /><path d="M 86.79598089348748 116.32954008644616 l -6.962968573386027 8.611171607869872 a32.07407819252445,32.07407819252445 0 0,0 -0.42632539632985483,-0.3508367770942534 l 7.1101640982605705 -8.490039711918438" fill="#ff5808" stroke="none" /><path d="M 85.44109423537348 115.13401014063109 l -11.04661436129188 11.482976568858987 a36.93381434961712,36.93381434961712 0 0,0 -0.4543739379127218,-0.44470053128464804 l 11.242638251580397 -11.291125934651769" fill="#ff9e0e" stroke="none" /><path d="M 84.43433777217949 114.09645910891817 l -7.904582294367441 7.158488951820913 a31.66425737319619,31.66425737319619 0 0,0 -0.3623916210526218,-0.40715082793982216 l 8.0266327650684 -7.021363954140227" fill="#ff5107" stroke="none" /><path d="M 82.05923443525364 110.91462005526583 l -6.921039451076028 4.210551423983693 a29.101205489145542,29.101205489145542 0 0,0 -0.256671418896445,-0.4301960617828739 l 6.992491745670704 -4.090793268314708" fill="#ff2b04" stroke="none" /><line stroke="#e1ed5e" stroke-width="0.3" x1="26.63291911575756" x2="22.317208475507996" y1="142.92168965132927" y2="145.44649492493687" /><path d="M 25.769776987707644 143.4266507060508 a86.0,86.0 0 0,1 -11.730757126820373,-40.83630448921669" fill="none" id="id93" stroke="none" /><text fill="#e1ed5e" style="font-size:6.75px; font-family:Arial;" text-anchor="middle"><textPath startOffset="21.46611528233685" xlink:href="#id93">September</textPath></text><path d="M 81.35079622478065 109.6543875284942 l -9.79850252689758 5.072524368000059 a32.03363744345321,32.03363744345321 0 0,0 -0.24928474488540847,-0.4918624513087932 l 9.884365941569255 -4.903107704988582" fill="#ff5708" stroke="none" /><path d="M 79.97269907076064 106.31721596034903 l -19.05298885946792 6.009888488750758 a40.97836690338396,40.97836690338396 0 0,0 -0.20640067260947093,-0.6745293403507475 l 19.15361630458352 -5.681032175847963" fill="#ffd614" stroke="none" /><path d="M 79.35854240842038 103.8639653848113 l -5.255175611654909 0.9837394750079351 a26.346458085875305,26.346458085875305 0 0,0 -0.07960840463382078,-0.44648621035030134 l 5.271330458627919 -0.8931345139244201" fill="#ff0000" stroke="none" /><line stroke="#e1ed5e" stroke-width="0.3" x1="15.007084014347285" x2="10.007500721073583" y1="101.09737516637583" y2="101.16192664675087" /><path d="M 14.007167355692545 101.11028546245083 a86.0,86.0 0 0,1 10.666146001902534,-42.60595125391555" fill="none" id="id94" stroke="none" /><text fill="#e1ed5e" style="font-size:6.75px; font-family:Arial;" text-anchor="middle"><textPath startOffset="22.20632615414155" xlink:href="#id94">October</textPath></text><path d="M 79.00175016825051 100.2711162175752 l -26.924766910674794 0.3476356849930851 a47.92701104399909,47.92701104399909 0 0,0 -0.003550484808912781,-0.8250076300206401 l 26.92676169277321 0.1158814232312304" fill="#ceff1d" stroke="none" /><path d="M 79.03285615573316 98.82574320788736 l -17.119096165602592 -0.9587483682373373 a38.145922312921726,38.145922312921726 0 0,0 0.04235906494899538,-0.6552759861950143 l 17.100056509649185 1.2532834186853634" fill="#ffaf10" stroke="none" /><path d="M 79.08570108090925 98.10471618934814 l -34.37072026360621 -3.114724042535035 a55.51156208142738,55.51156208142738 0 0,0 0.09443012168657099,-0.9508984385480731 l 34.31201301623741 3.705898011787538" fill="#74ff27" stroke="none" /><path d="M 79.12142395522702 97.74499172005258 l -10.733980451333542 -1.1593326452265775 a31.796406277641587,31.796406277641587 0 0,0 0.0634560077547823,-0.5436523225120898 l 10.71243409057517 1.3439287060635292" fill="#ff5307" stroke="none" /><path d="M 79.46518482838121 95.60439243477599 l -10.527822816245305 -2.2535473160909754 a31.766314539159445,31.766314539159445 0 0,0 0.11905653611860144,-0.5337071067789514 l 10.487471893124665 2.434432592419886" fill="#ff5307" stroke="none" /><path d="M 79.91906864156998 93.8553929516997 l -14.70832179237692 -4.500630779566297 a36.381495615254366,36.381495615254366 0 0,0 0.1883946733557166,-0.5972625980246226 l 14.628671635252998 4.753143544017334" fill="#ff960d" stroke="none" /><path d="M 80.803312248108 91.48605970444005 l -17.412810957843462 -7.722771490010804 a40.04854810584043,40.04854810584043 0 0,0 0.2849123950473482,-0.6277666959177256 l 17.277296245832762 8.021360194770601" fill="#ffc912" stroke="none" /><path d="M 81.26839172434947 90.50648371742162 l -28.09244180802975 -14.23775523154613 a52.49442745583664,52.49442745583664 0 0,0 0.4154323168962269,-0.8024830067928352 l 27.84320005797341 14.7192109605993" fill="#96ff23" stroke="none" /><line stroke="#e1ed5e" stroke-width="0.3" x1="26.266209847984243" x2="21.928928074336255" y1="57.711370442889674" y2="55.22380399835377" /><path d="M 25.398753493254645 57.213857153982495 a86.0,86.0 0 0,1 29.58750427330803,-30.492523968695096" fill="none" id="id95" stroke="none" /><text fill="#e1ed5e" style="font-size:6.75px; font-family:Arial;" text-anchor="middle"><textPath startOffset="21.46611528233685" xlink:href="#id95">November</textPath></text><path d="M 81.96595687620814 89.24020034530311 l -15.621376286509724 -9.32031037187274 a39.19053552023048,39.19053552023048 0 0,0 0.35063249909305544,-0.5763476359009536 l 15.458627989130452 9.587825780980769" fill="#ffbe11" stroke="none" /><path d="M 83.39014120810768 87.1503855733568 l -25.662061826831813 -19.85252276969542 a53.44478505901085,53.44478505901085 0 0,0 0.5691765758085753,-0.7227964504906473 l 25.31653117042927 20.291311614139115" fill="#8bff24" stroke="none" /><path d="M 85.31137513191541 84.99185889309783 l -7.3021794783818645 -7.4610210951470295 a31.439763451186536,31.439763451186536 0 0,0 0.39002786647122223,-0.3752064985266381 l 7.172668368298215 7.585610680435981" fill="#ff4e07" stroke="none" /><path d="M 87.51073957382395 83.11751280151077 l -6.371293515396002 -8.612462030661984 a31.71297733073871,31.71297733073871 0 0,0 0.4416480358448039,-0.320876080451287 l 6.222100163197417 8.720857345929938" fill="#ff5207" stroke="none" /><line stroke="#e1ed5e" stroke-width="0.3" x1="56.762969772571076" x2="54.21961505331055" y1="26.818313649435495" y2="22.513508569990535" /><path d="M 56.25429882871897 25.957352633546506 a86.0,86.0 0 0,1 42.265352541879196,-11.944610805530505" fill="none" id="id96" stroke="none" /><text fill="#e1ed5e" style="font-size:6.75px; font-family:Arial;" text-anchor="middle"><textPath startOffset="22.20632615414155" xlink:href="#id96">December</textPath></text><path d="M 91.90106846888425 80.62456947434976 l -4.524095205965884 -10.823192172677036 a32.73068311051581,32.73068311051581 0 0,0 0.5216898855467049,-0.21281040316742827 l 4.337121450830799 10.899463462028042" fill="#ff6109" stroke="none" /><path d="M 94.28887869178378 79.79150937346287 l -3.0979827357700196 -10.962042600446189 a32.39139477874093,32.39139477874093 0 0,0 0.5378546538254598,-0.14701599446775496 l 2.908830192720837 11.01374513574024" fill="#ff5c08" stroke="none" /><path d="M 96.40284397218896 79.31037775812273 l -1.7966598458399403 -10.333778468374671 a31.488801839824106,31.488801839824106 0 0,0 0.5348159976164467,-0.0882492220870094 l 1.618514642084608 10.363173953401308" fill="#ff4f07" stroke="none" /><path d="M 98.55514903715128 79.0497635885617 l -2.055705716759507 -29.80758698706445 a50.878389648462175,50.878389648462175 0 0,0 0.874231137099544,-0.05273600961151823 l 1.5423125308203398 29.838556266056273" fill="#aaff21" stroke="none" /><path d="M 99.63851952072746 79.00311137660856 l -0.09879985299938161 -5.738870086734021 a26.739720488261014,26.739720488261014 0 0,0 0.46028033227191595,-0.003961778135551317 l 1.405826064789867e-15 5.739720488261014" fill="#ff0601" stroke="none" /></svg>