<?xml version="1.0" encoding="utf-8" ?>
<svg baseProfile="full" height="200mm" version="1.1" viewBox="0,0,200,200" width="200mm" xmlns="http://www.w3.org/2000/svg" xmlns:ev="http://www.w3.org/2001/xml-events" xmlns:xlink="http://www.w3.org/1999/xlink"><defs /><rect fill="#1a1a1a" height="200" width="200" x="0" y="0" /><text alignment-baseline="middle" fill="#e1ed5e" style="dominant-baseline: central; font-size:9.0px; font-family:Arial;" text-anchor="middle" x="100.0" y="100.0">2021</text><line stroke="#e1ed5e" stroke-width="0.3" x1="100.0" x2="100.0" y1="15.0" y2="10.0" /><path d="M 100.0 14.0 a86.0,86.0 0 0,1 42.46469731375804,11.215312516191453" fill="none" id="id37" stroke="none" /><text fill="#e1ed5e" style="font-size:6.75px; font-family:Arial;" text-anchor="middle"><textPath startOffset="22.20632615414155" xlink:href="#id37">January</textPath></text><path d="M 101.08401301168833 79.027996857942 l 0.27136534293088155 -5.25000600844113 a26.25701457464329,26.25701457464329 0 0,0 0.45116796870013015,0.027215683958270957 l -0.3616953604706236 5.244557055102556" fill="#ff2603" stroke="none" /><line stroke="#e1ed5e" stroke-width="0.3" x1="143.23703022742887" x2="145.7803849466894" y1="26.81831364943548" y2="22.513508569990506" /><path d="M 143.74570117128098 25.957352633546492 a86.0,86.0 0 0,1 28.547481713284135,27.462654790039103" fill="none" id="id38" stroke="none" /><text fill="#e1ed5e" style="font-size:6.75px; font-family:Arial;" text-anchor="middle"><textPath startOffset="19.985693538727396" xlink:href="#id38">February</textPath></text><line stroke="#e1ed5e" stroke-width="0.3" x1="172.23445277983987" x2="176.4835382374775" y1="55.19839476539836" y2="52.563006222186495" /><path d="M 173.08426987136738 54.67131705675599 a86.0,86.0 0 0,1 12.851231095245387,41.99856678651699" fill="none" id="id39" stroke="none" /><text fill="#e1ed5e" style="font-size:6.75px; font-family:Arial;" text-anchor="middle"><textPath startOffset="22.20632615414155" xlink:href="#id39">March</textPath></text><path d="M 118.21658344932153 89.55222093294921 l 2.3303542331653184 -1.3365308727518064 a23.686422458559008,23.686422458559008 0 0,0 0.1998032735072872,0.35542772892108493 l -2.3530151479650385 1.2962196338959275" fill="#ff0000" stroke="none" /><path d="M 119.34039704204932 91.81776055985345 l 4.196127482192949 -1.775233450793932 a25.556197938153332,25.556197938153332 0 0,0 0.1679143371956589,0.4066178863650424 l -4.226063506274806 1.7027409939755864" fill="#ff1c02" stroke="none" /><line stroke="#e1ed5e" stroke-width="0.3" x1="184.98032266829074" x2="189.97916517819016" y1="98.17113171792111" y2="98.06355123074" /><path d="M 185.9800911702706 98.14961562048488 a86.0,86.0 0 0,1 -9.607161424134198,41.387399972396054" fill="none" id="id40" stroke="none" /><text fill="#e1ed5e" style="font-size:6.75px; font-family:Arial;" text-anchor="middle"><textPath startOffset="21.466115282336823" xlink:href="#id40">April</textPath></text><line stroke="#e1ed5e" stroke-width="0.3" x1="174.80103733775053" x2="179.2010983576182" y1="140.37084112569926" y2="142.7455964860345" /><path d="M 175.68104954172406 140.8457921977663 a86.0,86.0 0 0,1 -30.038265399797805,32.042727171017184" fill="none" id="id41" stroke="none" /><text fill="#e1ed5e" style="font-size:6.75px; font-family:Arial;" text-anchor="middle"><textPath startOffset="22.206326154141568" xlink:href="#id41">May</textPath></text><line stroke="#e1ed5e" stroke-width="0.3" x1="143.8653032363475" x2="146.44561519142675" y1="172.8068346515853" y2="177.08958963109032" /><path d="M 144.38136562736335 173.6633856474863 a86.0,86.0 0 0,1 -40.68145358897372,12.25698825130547" fill="none" id="id42" stroke="none" /><text fill="#e1ed5e" style="font-size:6.75px; font-family:Arial;" text-anchor="middle"><textPath startOffset="21.466115282336833" xlink:href="#id42">June</textPath></text><path d="M 108.2653958097858 119.30500536409082 l 3.1352829336783805 7.322898412311133 a28.965854645375085,28.965854645375085 0 0,0 -0.46004472496574467,0.1922987323464132 l -3.008766749215175 -7.375782187677519" fill="#ff4d07" stroke="none" /><path d="M 105.53697534728816 120.25689768951611 l 0.7098833938221089 2.597092162814819 a23.69236367063934,23.69236367063934 0 0,0 -0.39431940644162483,0.1041433391545478 l -0.6650735445689866 -2.6089268512729507" fill="#ff0000" stroke="none" /><line stroke="#e1ed5e" stroke-width="0.3" x1="102.19456741930631" x2="102.32365962044197" y1="184.97166512339345" y2="189.96999836594603" /><path d="M 102.22038585953345 185.97133177190398 a86.0,86.0 0 0,1 -42.740103519485714,-10.115201625700543" fill="none" id="id43" stroke="none" /><text fill="#e1ed5e" style="font-size:6.75px; font-family:Arial;" text-anchor="middle"><textPath startOffset="22.20632615414155" xlink:href="#id43">July</textPath></text><path d="M 97.2962882734958 120.8252237178851 l -2.8562848567792534 22.00041171598738 a43.18505079678704,43.18505079678704 0 0,0 -0.7363491418320857,-0.10205128142926122 l 3.2345625897981702 -21.947985869065512" fill="#f3ff19" stroke="none" /><line stroke="#e1ed5e" stroke-width="0.3" x1="58.666819895761336" x2="56.23545636021788" y1="174.27360380694188" y2="178.64263932499728" /><path d="M 58.180547188652646 175.14741091055294 a86.0,86.0 0 0,1 -31.652253787137756,-30.449443065178592" fill="none" id="id44" stroke="none" /><text fill="#e1ed5e" style="font-size:6.75px; font-family:Arial;" text-anchor="middle"><textPath startOffset="22.20632615414155" xlink:href="#id44">August</textPath></text><line stroke="#e1ed5e" stroke-width="0.3" x1="26.63291911575756" x2="22.317208475507996" y1="142.92168965132927" y2="145.44649492493687" /><path d="M 25.769776987707644 143.4266507060508 a86.0,86.0 0 0,1 -11.730757126820373,-40.83630448921669" fill="none" id="id45" stroke="none" /><text fill="#e1ed5e" style="font-size:6.75px; font-family:Arial;" text-anchor="middle"><textPath startOffset="21.46611528233685" xlink:href="#id45">September</textPath></text><path d="M 81.69416730710424 110.29060199501025 l -5.440872561692287 3.0585800153016836 a27.241634877384197,27.241634877384197 0 0,0 -0.22626589370114986,-0.4107383204391407 l 5.492714864844953 -2.9644711764647202" fill="#ff3505" stroke="none" /><path d="M 81.51974371655577 109.97397251340807 l -8.257664883760937 4.456741362908012 a30.38357996227206,30.38357996227206 0 0,0 -0.2444395059892607,-0.46238742589867593 l 8.333156897975083 -4.31393892192321" fill="#ff6209" stroke="none" /><path d="M 81.02952815118164 109.00673069616217 l -5.3879161966092735 2.5580549910977957 a26.964334521064767,26.964334521064767 0 0,0 -0.19545981686324632,-0.4210030566018055 l 5.431150630312347 -2.464931867217163" fill="#ff3104" stroke="none" /><path d="M 80.87730276802145 108.67885076344099 l -3.8646205556641604 1.7539609947830235 a25.244015929574513,25.244015929574513 0 0,0 -0.1761778853173682,-0.39723462178727537 l 3.894239525712808 -1.6871780365030522" fill="#ff1702" stroke="none" /><path d="M 80.73074385275274 108.34839909993369 l -6.095805555028358 2.641005818807361 a27.6433242506812,27.6433242506812 0 0,0 -0.18540643320435066,-0.4382460399201054 l 6.1403629694250155 -2.5356852532210965" fill="#ff3a05" stroke="none" /><path d="M 80.58989483394504 108.01547362559985 l -4.80732690597719 1.9852031555132683 a26.201098302242716,26.201098302242716 0 0,0 -0.16855713734372316,-0.41834499161689437 l 4.840786657578302 -1.9021587960535686" fill="#ff2503" stroke="none" /><path d="M 80.32549172779594 107.34259656027581 l -25.082090788973424 9.36072561527914 a47.771896876965,47.771896876965 0 0,0 -0.2808890604793079,-0.7728860573878786 l 25.239504110457954 -8.927591760885145" fill="#bcff1f" stroke="none" /><path d="M 80.0844068197444 106.66101706037122 l -2.7675619950763917 0.9256454225583991 a23.91825613079019,23.91825613079019 0 0,0 -0.12723116914225555,-0.3915772746846817 l 2.7830854152348965 -0.877869247895914" fill="#ff0300" stroke="none" /><path d="M 79.67330655649465 105.27499134158121 l -12.574601264047013 3.263241656890229 a33.99112555019912,33.99112555019912 0 0,0 -0.14209696369922079,-0.5676067351429925 l 12.628909542041292 -3.046307082349845" fill="#ff940d" stroke="none" /><path d="M 79.18660465613746 102.79330883721812 l -13.15157051836982 1.7650362925092173 a34.269482288828335,34.269482288828335 0 0,0 -0.07343214199472113,-0.5853264222268963 l 13.180004169611388 -1.5383921159949123" fill="#ff970e" stroke="none" /><path d="M 79.10278846688536 102.07522291339032 l -6.827356844503693 0.6779989444598654 a27.86093900649759,27.86093900649759 0 0,0 -0.04328449443746492,-0.4776407892786834 l 6.838015935218233 -0.5603767666326158" fill="#ff3e05" stroke="none" /><path d="M 79.07016306316243 101.71520430193888 l -7.813484084720477 0.640316575599107 a28.839677216516453,28.839677216516453 0 0,0 -0.036287786622387,-0.4951180176817385 l 7.823348430007199 -0.505725421420608" fill="#ff4c07" stroke="none" /><path d="M 79.0235259727143 100.99374915477108 l -6.4691604179978315 0.3064729891735633 a27.47641584573465,27.47641584573465 0 0,0 -0.018314819939702527,-0.47262412257069103 l 6.473477370788735 -0.19507161958887548" fill="#ff3805" stroke="none" /><path d="M 79.0095281055655 100.63252640178507 l -7.877036445146831 0.23736643675455862 a28.88061203102075,28.88061203102075 0 0,0 -0.010696742380757091,-0.4970355863916681 l 7.879955250212595 -0.10174103457276165" fill="#ff4c07" stroke="none" /><line stroke="#e1ed5e" stroke-width="0.3" x1="15.007084014347285" x2="10.007500721073583" y1="101.09737516637583" y2="101.16192664675087" /><path d="M 14.007167355692545 101.11028546245083 a86.0,86.0 0 0,1 10.666146001902534,-42.60595125391555" fill="none" id="id46" stroke="none" /><text fill="#e1ed5e" style="font-size:6.75px; font-family:Arial;" text-anchor="middle"><textPath startOffset="22.20632615414155" xlink:href="#id46">October</textPath></text><path d="M 79.03285615573316 98.82574320788736 l -14.413669888398564 -0.8072320145955167 a35.43625654998952,35.43625654998952 0 0,0 0.03935012189341658,-0.6087289689149314 l 14.397639175500734 1.0552200477634601" fill="#ffa70f" stroke="none" /><path d="M 79.08570108090925 98.10471618934814 l -57.227413441405595 -5.186030411087367 a78.46191574093481,78.46191574093481 0 0,0 0.13347072165452276,-1.3440319523724515 l 57.12966559406884 6.170337894164249" fill="#46fff7" stroke="none" /><path d="M 79.26566170972629 96.67025291283419 l -6.32512484477681 -1.0157578087618662 a27.406166422133722,27.406166422133722 0 0,0 0.07880987490950596,-0.4651403428871436 l 6.306703108347081 1.1244839399648376" fill="#ff3705" stroke="none" /><path d="M 79.46518482838121 95.60439243477599 l -10.386630889153317 -2.223324287654281 a31.6219241249214,31.6219241249214 0 0,0 0.11851537725842833,-0.5312811977193844 l 10.34682112489285 2.4017836549236247" fill="#ff730a" stroke="none" /><path d="M 80.2630227832202 92.82701384747504 l -21.646553549470138 -7.866981207650828 a44.03177530915951,44.03177530915951 0 0,0 0.26501973139071855,-0.7101211206064305 l 21.507929229577794 8.2384254652866" fill="#e9ff1a" stroke="none" /><path d="M 80.38941819471856 92.48833698450439 l -15.479494163784885 -5.929285778628354 a37.57622301404318,37.57622301404318 0 0,0 0.23656281207335955,-0.6020265535873116 l 15.375137801829835 6.194861337111429" fill="#ffc312" stroke="none" /><path d="M 80.52162464483688 92.15188598940014 l -13.173440408928476 -5.307766194869489 a35.20253196394886,35.20253196394886 0 0,0 0.23129457036763323,-0.5600981482659739 l 13.080124151674642 5.533738913588775" fill="#ffa40f" stroke="none" /><path d="M 80.65960295795068 91.81776055985345 l -10.213724078643185 -4.321066201761564 a32.090165583735065,32.090165583735065 0 0,0 0.21960261509854298,-0.5068731130705997 l 10.137830753701962 4.496238459418763" fill="#ff790b" stroke="none" /><path d="M 81.26839172434947 90.50648371742162 l -11.483956027306178 -5.820275650082111 a33.87465940054496,33.87465940054496 0 0,0 0.26807851653736375,-0.5178423662721563 l 11.382068077608698 6.017090738614603" fill="#ff920d" stroke="none" /><line stroke="#e1ed5e" stroke-width="0.3" x1="26.266209847984243" x2="21.928928074336255" y1="57.711370442889674" y2="55.22380399835377" /><path d="M 25.398753493254645 57.213857153982495 a86.0,86.0 0 0,1 29.58750427330803,-30.492523968695096" fill="none" id="id47" stroke="none" /><text fill="#e1ed5e" style="font-size:6.75px; font-family:Arial;" text-anchor="middle"><textPath startOffset="21.46611528233685" xlink:href="#id47">November</textPath></text><path d="M 82.7489923806493 88.02491185347247 l -51.75302285805211 -35.92526443958256 a84.0,84.0 0 0,0 0.834749520784487,-1.1806939986728553 l 51.12696071746375 36.810784938587204" fill="#4dd2ff" stroke="none" /><path d="M 84.07557802195018 86.31012108654704 l -9.196178460264688 -7.905754429332548 a33.12726891636973,33.12726891636973 0 0,0 0.37545521616860905,-0.42921021607742804 l 9.058731380518235 8.06288020161292" fill="#ff880c" stroke="none" /><path d="M 84.31358615837235 86.03803664274999 l -28.134936182262877 -25.0419855042255 a58.66531125550199,58.66531125550199 0 0,0 0.6778814691136511,-0.7485336492797953 l 27.69971107253318 25.52257194077485" fill="#45ff2d" stroke="none" /><path d="M 87.22198572758235 83.33499621200491 l -6.9562106286868435 -9.072245030074175 a32.43216935652903,32.43216935652903 0 0,0 0.44594826874557336,-0.33587899054198356 l 6.79901620618288 9.190640610122013" fill="#ff7e0b" stroke="none" /><path d="M 88.09926311788651 82.69761687909137 l -18.963104590000288 -27.570301236655556 a54.46223014043178,54.46223014043178 0 0,0 0.7769823086773349,-0.5246219231932348 l 18.48571758691641 27.892635072147456" fill="#71ff27" stroke="none" /><line stroke="#e1ed5e" stroke-width="0.3" x1="56.762969772571076" x2="54.21961505331055" y1="26.818313649435495" y2="22.513508569990535" /><path d="M 56.25429882871897 25.957352633546506 a86.0,86.0 0 0,1 42.265352541879196,-11.944610805530505" fill="none" id="id48" stroke="none" /><text fill="#e1ed5e" style="font-size:6.75px; font-family:Arial;" text-anchor="middle"><textPath startOffset="22.20632615414155" xlink:href="#id48">December</textPath></text><path d="M 89.63071344664047 81.73862282372117 l -3.2268454717612416 -5.682805846493643 a27.535045063927896,27.535045063927896 0 0,0 0.41417416390526185,-0.230487473796427 l 3.128547218783934 5.737508717850255" fill="#ff3905" stroke="none" /><path d="M 90.26544431104013 81.39251694778311 l -14.155606887207256 -27.058267851534346 a51.537371620205406,51.537371620205406 0 0,0 0.7896004198115035,-0.40446400327414356 l 13.687745979806989 27.297924380120996" fill="#91ff24" stroke="none" /><path d="M 90.91171255644093 81.06846463323043 l -26.748938672908686 -55.71990120851746 a82.80787256340389,82.80787256340389 0 0,0 1.290311437079576,-0.605818520896314 l 25.785849024529504 56.17208471205378" fill="#4bddff" stroke="none" /><path d="M 91.90106846888425 80.62456947434976 l -5.09932223060375 -12.199333112939069 a34.22220918046531,34.22220918046531 0 0,0 0.545463115762969,-0.2225081006829043 l 4.888575245252401 12.28530209980555" fill="#ff970d" stroke="none" /><path d="M 92.23578459929587 80.48803036053334 l -4.459338302454303 -11.206602223027993 a33.06124502200797,33.06124502200797 0 0,0 0.5305807694517777,-0.2058570954804632 l 4.265774368002849 11.281702022399006" fill="#ff870c" stroke="none" /><path d="M 92.91201910852362 80.23233633223022 l -6.319905829457249 -17.6255798035407 a39.724376440997695,39.724376440997695 0 0,0 0.6456497407941417,-0.225254516898094 l 6.015574084599821 17.731755173611003" fill="#ffdf14" stroke="none" /><path d="M 94.28887869178378 79.79150937346287 l -3.248551877224313 -11.494823278620085 a32.94504296793125,32.94504296793125 0 0,0 0.5470479058348945,-0.14952885751904002 l 3.0502060821656958 11.549038676965422" fill="#ff850c" stroke="none" /><path d="M 94.98787191387505 79.60689891045804 l -14.159918431031723 -57.61318206992438 a80.32775099559841,80.32775099559841 0 0,0 1.345590479991583,-0.31845779232922805 l 13.166104264077607 57.84838577439448" fill="#48f5ff" stroke="none" /><path d="M 96.40284397218896 79.31037775812273 l -0.9246598517097991 -5.318330060246969 a26.398113603018235,26.398113603018235 0 0,0 0.4483541016773521,-0.0739822684229472 l 0.8329765438935613 5.333458591609543" fill="#ff2803" stroke="none" /><path d="M 97.11714578562143 79.19881850522333 l -1.621310926015631 -11.698539129487484 a32.810354223433244,32.810354223433244 0 0,0 0.5600966067400391,-0.07271661443510631 l 1.419699590767734 11.724714067086728" fill="#ff830c" stroke="none" /><path d="M 99.63851952072746 79.00311137660856 l -0.19865894291607672 -11.539266814196678 a32.54097673443722,32.54097673443722 0 0,0 0.5601394221886096,-0.004821296849104112 l 2.8267240433725235e-15 11.540976734437223" fill="#ff800b" stroke="none" /></svg>