<?xml version="1.0" encoding="utf-8" ?>
<svg baseProfile="full" height="200mm" version="1.1" viewBox="0,0,200,200" width="200mm" xmlns="http://www.w3.org/2000/svg" xmlns:ev="http://www.w3.org/2001/xml-events" xmlns:xlink="http://www.w3.org/1999/xlink"><defs /><rect fill="#1a1a1a" height="200" width="200" x="0" y="0" /><text alignment-baseline="middle" fill="#e1ed5e" style="dominant-baseline: central; font-size:9.0px; font-family:Arial;" text-anchor="middle" x="100.0" y="100.0">2019</text><line stroke="#e1ed5e" stroke-width="0.3" x1="100.0" x2="100.0" y1="15.0" y2="10.0" /><path d="M 100.0 14.0 a86.0,86.0 0 0,1 42.46469731375804,11.215312516191453" fill="none" id="id13" stroke="none" /><text fill="#e1ed5e" style="font-size:6.75px; font-family:Arial;" text-anchor="middle"><textPath startOffset="22.20632615414155" xlink:href="#id13">January</textPath></text><line stroke="#e1ed5e" stroke-width="0.3" x1="143.23703022742887" x2="145.7803849466894" y1="26.81831364943548" y2="22.513508569990506" /><path d="M 143.74570117128098 25.957352633546492 a86.0,86.0 0 0,1 28.547481713284135,27.462654790039103" fill="none" id="id14" stroke="none" /><text fill="#e1ed5e" style="font-size:6.75px; font-family:Arial;" text-anchor="middle"><textPath startOffset="19.985693538727396" xlink:href="#id14">February</textPath></text><line stroke="#e1ed5e" stroke-width="0.3" x1="172.23445277983987" x2="176.4835382374775" y1="55.19839476539836" y2="52.563006222186495" /><path d="M 173.08426987136738 54.67131705675599 a86.0,86.0 0 0,1 12.851231095245387,41.99856678651699" fill="none" id="id15" stroke="none" /><text fill="#e1ed5e" style="font-size:6.75px; font-family:Arial;" text-anchor="middle"><textPath startOffset="22.20632615414155" xlink:href="#id15">March</textPath></text><line stroke="#e1ed5e" stroke-width="0.3" x1="184.98032266829074" x2="189.97916517819016" y1="98.17113171792111" y2="98.06355123074" /><path d="M 185.9800911702706 98.14961562048488 a86.0,86.0 0 0,1 -9.607161424134198,41.387399972396054" fill="none" id="id16" stroke="none" /><text fill="#e1ed5e" style="font-size:6.75px; font-family:Arial;" text-anchor="middle"><textPath startOffset="21.466115282336823" xlink:href="#id16">April</textPath></text><line stroke="#e1ed5e" stroke-width="0.3" x1="174.80103733775053" x2="179.2010983576182" y1="140.37084112569926" y2="142.7455964860345" /><path d="M 175.68104954172406 140.8457921977663 a86.0,86.0 0 0,1 -30.038265399797805,32.042727171017184" fill="none" id="id17" stroke="none" /><text fill="#e1ed5e" style="font-size:6.75px; font-family:Arial;" text-anchor="middle"><textPath startOffset="22.206326154141568" xlink:href="#id17">May</textPath></text><line stroke="#e1ed5e" stroke-width="0.3" x1="143.8653032363475" x2="146.44561519142675" y1="172.8068346515853" y2="177.08958963109032" /><path d="M 144.38136562736335 173.6633856474863 a86.0,86.0 0 0,1 -40.68145358897372,12.25698825130547" fill="none" id="id18" stroke="none" /><text fill="#e1ed5e" style="font-size:6.75px; font-family:Arial;" text-anchor="middle"><textPath startOffset="21.466115282336833" xlink:href="#id18">June</textPath></text><line stroke="#e1ed5e" stroke-width="0.3" x1="102.19456741930631" x2="102.32365962044197" y1="184.97166512339345" y2="189.96999836594603" /><path d="M 102.22038585953345 185.97133177190398 a86.0,86.0 0 0,1 -42.740103519485714,-10.115201625700543" fill="none" id="id19" stroke="none" /><text fill="#e1ed5e" style="font-size:6.75px; font-family:Arial;" text-anchor="middle"><textPath startOffset="22.20632615414155" xlink:href="#id19">July</textPath></text><line stroke="#e1ed5e" stroke-width="0.3" x1="58.666819895761336" x2="56.23545636021788" y1="174.27360380694188" y2="178.64263932499728" /><path d="M 58.180547188652646 175.14741091055294 a86.0,86.0 0 0,1 -31.652253787137756,-30.449443065178592" fill="none" id="id20" stroke="none" /><text fill="#e1ed5e" style="font-size:6.75px; font-family:Arial;" text-anchor="middle"><textPath startOffset="22.20632615414155" xlink:href="#id20">August</textPath></text><line stroke="#e1ed5e" stroke-width="0.3" x1="26.63291911575756" x2="22.317208475507996" y1="142.92168965132927" y2="145.44649492493687" /><path d="M 25.769776987707644 143.4266507060508 a86.0,86.0 0 0,1 -11.730757126820373,-40.83630448921669" fill="none" id="id21" stroke="none" /><text fill="#e1ed5e" style="font-size:6.75px; font-family:Arial;" text-anchor="middle"><textPath startOffset="21.46611528233685" xlink:href="#id21">September</textPath></text><path d="M 79.35854240842038 103.8639653848113 l -57.1942302175535 10.706439929983782 a79.18769480012816,79.18769480012816 0 0,0 -0.2392733789536504,-1.3419721786679337 l 57.370050038846344 -9.720349000582635" fill="#46fff9" stroke="none" /><path d="M 79.29508885075956 103.50808413554451 l -18.51763793211093 3.13748904253466 a39.781553505415324,39.781553505415324 0 0,0 -0.1085813740815643,-0.6761363200549273 l 18.568901060553785 -2.8182734927865196" fill="#ffa90f" stroke="none" /><line stroke="#e1ed5e" stroke-width="0.3" x1="15.007084014347285" x2="10.007500721073583" y1="101.09737516637583" y2="101.16192664675087" /><path d="M 14.007167355692545 101.11028546245083 a86.0,86.0 0 0,1 10.666146001902534,-42.60595125391555" fill="none" id="id22" stroke="none" /><text fill="#e1ed5e" style="font-size:6.75px; font-family:Arial;" text-anchor="middle"><textPath startOffset="22.20632615414155" xlink:href="#id22">October</textPath></text><path d="M 79.03285615573316 98.82574320788736 l -52.65342025469878 -2.9488344631616408 a73.73592977476602,73.73592977476602 0 0,0 0.08187991924226842,-1.2666461097677764 l 52.5948597444521 3.854739637182429" fill="#3fffbb" stroke="none" /><path d="M 79.62865764111835 94.90015583598534 l -7.6726554146638355 -1.9208035606896998 a28.90943281347838,28.90943281347838 0 0,0 0.12500393061965417,-0.48169113699005006 l 7.638455152173874 2.0525911232286136" fill="#ff0000" stroke="none" /><path d="M 80.2630227832202 92.82701384747504 l -10.087380299930157 -3.6660446233446806 a31.732899165452615,31.732899165452615 0 0,0 0.19099489752636867,-0.5117713686818914 l 10.02278081390216 3.8391391290559134" fill="#ff2e04" stroke="none" /><path d="M 80.95270993114464 91.15688171328213 l -19.342462042760168 -8.980158289297153 a42.325432721903915,42.325432721903915 0 0,0 0.31248626360159115,-0.6581757650778151 l 19.185017585316828 9.3117764700155" fill="#ffce13" stroke="none" /><path d="M 81.10775173730289 90.83032412892265 l -12.640705346114403 -6.13538257564247 a35.050991103718715,35.050991103718715 0 0,0 0.26812336937482945,-0.5405203515498813 l 12.533221963786161 6.352062515691313" fill="#ff6209" stroke="none" /><path d="M 81.26839172434947 90.50648371742162 l -20.699857421438526 -10.491060382302003 a44.206603482909564,44.206603482909564 0 0,0 0.3498438328995628,-0.6757869321064395 l 20.51620415537885 10.845820036668778" fill="#ffe815" stroke="none" /><path d="M 81.6062741919709 89.86733742301443 l -55.18117742408733 -30.39798773095671 a84.0,84.0 0 0,0 0.7085694348302773,-1.2604659602608617 l 54.64975034796462 31.34333720115236" fill="#4dd2ff" stroke="none" /><line stroke="#e1ed5e" stroke-width="0.3" x1="26.266209847984243" x2="21.928928074336255" y1="57.711370442889674" y2="55.22380399835377" /><path d="M 25.398753493254645 57.213857153982495 a86.0,86.0 0 0,1 29.58750427330803,-30.492523968695096" fill="none" id="id23" stroke="none" /><text fill="#e1ed5e" style="font-size:6.75px; font-family:Arial;" text-anchor="middle"><textPath startOffset="21.46611528233685" xlink:href="#id23">November</textPath></text><path d="M 82.7489923806493 88.02491185347247 l -20.16483452660162 -13.997771970451698 a45.54706034583343,45.54706034583343 0 0,0 0.4526236523431734,-0.6402040572323323 l 19.92089825445457 14.342802528015817" fill="#fffb17" stroke="none" /><path d="M 85.83668400450813 84.49514656593479 l -24.4045568067423 -26.71613600461204 a57.1847248980898,57.1847248980898 0 0,0 0.732479174996821,-0.6576270355307042 l 23.941066644149505 27.132262048912022" fill="#6fff28" stroke="none" /><path d="M 86.10567301691215 84.25364557470407 l -21.165043746319462 -23.986212550064366 a52.98902107411982,52.98902107411982 0 0,0 0.6891252504275681,-0.5976026264178025 l 20.74902469724512 24.346980169901848" fill="#a2ff22" stroke="none" /><path d="M 87.51073957382395 83.11751280151077 l -13.55786652151188 -18.326986561071468 a43.7968019911747,43.7968019911747 0 0,0 0.6099323748116696,-0.44314180950798504 l 13.24038883034643 18.557647605396124" fill="#ffe315" stroke="none" /><path d="M 88.09926311788651 82.69761687909137 l -18.71676029807376 -27.21214330401796 a54.02753183715004,54.02753183715004 0 0,0 0.7707807100576849,-0.5204345761219072 l 18.245574893609533 27.530289792438534" fill="#95ff23" stroke="none" /><line stroke="#e1ed5e" stroke-width="0.3" x1="56.762969772571076" x2="54.21961505331055" y1="26.818313649435495" y2="22.513508569990535" /><path d="M 56.25429882871897 25.957352633546506 a86.0,86.0 0 0,1 42.265352541879196,-11.944610805530505" fill="none" id="id24" stroke="none" /><text fill="#e1ed5e" style="font-size:6.75px; font-family:Arial;" text-anchor="middle"><textPath startOffset="22.20632615414155" xlink:href="#id24">December</textPath></text><path d="M 89.63071344664047 81.73862282372117 l -10.238735121239243 -18.03146271393046 a41.73560571786516,41.73560571786516 0 0,0 0.6277748797266953,-0.34935604089046735 l 9.926836152440503 18.205034152381113" fill="#ffc512" stroke="none" /><path d="M 89.94658935756843 81.56283822128135 l -26.10655208957321 -47.87735639967745 a75.53249781393967,75.53249781393967 0 0,0 1.1468529083840293,-0.6126091056273347 l 25.278554134660876 48.319644231806535" fill="#41ffd0" stroke="none" /></svg>