<?xml version="1.0" encoding="utf-8" ?>
<svg baseProfile="full" height="200mm" version="1.1" viewBox="0,0,200,200" width="200mm" xmlns="http://www.w3.org/2000/svg" xmlns:ev="http://www.w3.org/2001/xml-events" xmlns:xlink="http://www.w3.org/1999/xlink"><defs /><rect fill="#1a1a1a" height="200" width="200" x="0" y="0" /><text alignment-baseline="middle" fill="#e1ed5e" style="dominant-baseline: central; font-size:9.0px; font-family:Arial;" text-anchor="middle" x="100.0" y="100.0">2022</text><line stroke="#e1ed5e" stroke-width="0.3" x1="100.0" x2="100.0" y1="15.0" y2="10.0" /><path d="M 100.0 14.0 a86.0,86.0 0 0,1 42.46469731375804,11.215312516191453" fill="none" id="id49" stroke="none" /><text fill="#e1ed5e" style="font-size:6.75px; font-family:Arial;" text-anchor="middle"><textPath startOffset="22.20632615414155" xlink:href="#id49">January</textPath></text><path d="M 104.307194497241 79.44645832069477 l 2.192051146022799 -10.460269352082479 a31.687484416124118,31.687484416124118 0 0,0 0.5328888416583776,0.11646886077248746 l -2.3717827118347046 10.420986993214122" fill="#ff4c07" stroke="none" /><path d="M 105.01212808612495 79.60689891045804 l 3.1290217830923432 -12.731210463401194 a34.11009142540518,34.11009142540518 0 0,0 0.5689743729743133,0.1450442364140321 l -3.3477050447516814 12.675463230818295" fill="#ff700a" stroke="none" /><path d="M 105.36241919743992 79.69619591428918 l 5.584522444431829 -21.144756769133398 a42.86978805928799,42.86978805928799 0 0,0 0.7118469326098038,0.19457465685592337 l -5.947667266265343 21.04549557145118" fill="#ffeb16" stroke="none" /><line stroke="#e1ed5e" stroke-width="0.3" x1="143.23703022742887" x2="145.7803849466894" y1="26.81831364943548" y2="22.513508569990506" /><path d="M 143.74570117128098 25.957352633546492 a86.0,86.0 0 0,1 28.547481713284135,27.462654790039103" fill="none" id="id50" stroke="none" /><text fill="#e1ed5e" style="font-size:6.75px; font-family:Arial;" text-anchor="middle"><textPath startOffset="19.985693538727396" xlink:href="#id50">February</textPath></text><line stroke="#e1ed5e" stroke-width="0.3" x1="172.23445277983987" x2="176.4835382374775" y1="55.19839476539836" y2="52.563006222186495" /><path d="M 173.08426987136738 54.67131705675599 a86.0,86.0 0 0,1 12.851231095245387,41.99856678651699" fill="none" id="id51" stroke="none" /><text fill="#e1ed5e" style="font-size:6.75px; font-family:Arial;" text-anchor="middle"><textPath startOffset="22.20632615414155" xlink:href="#id51">March</textPath></text><line stroke="#e1ed5e" stroke-width="0.3" x1="184.98032266829074" x2="189.97916517819016" y1="98.17113171792111" y2="98.06355123074" /><path d="M 185.9800911702706 98.14961562048488 a86.0,86.0 0 0,1 -9.607161424134198,41.387399972396054" fill="none" id="id52" stroke="none" /><text fill="#e1ed5e" style="font-size:6.75px; font-family:Arial;" text-anchor="middle"><textPath startOffset="21.466115282336823" xlink:href="#id52">April</textPath></text><path d="M 120.70491114924044 103.5080841355445 l 10.472342717720126 1.7743548419606077 a31.621595788890424,31.621595788890424 0 0,0 -0.09554775008177266,0.5358825244361679 l -10.440248525299165 -1.954356117129994" fill="#ff4b06" stroke="none" /><line stroke="#e1ed5e" stroke-width="0.3" x1="174.80103733775053" x2="179.2010983576182" y1="140.37084112569926" y2="142.7455964860345" /><path d="M 175.68104954172406 140.8457921977663 a86.0,86.0 0 0,1 -30.038265399797805,32.042727171017184" fill="none" id="id53" stroke="none" /><text fill="#e1ed5e" style="font-size:6.75px; font-family:Arial;" text-anchor="middle"><textPath startOffset="22.206326154141568" xlink:href="#id53">May</textPath></text><line stroke="#e1ed5e" stroke-width="0.3" x1="143.8653032363475" x2="146.44561519142675" y1="172.8068346515853" y2="177.08958963109032" /><path d="M 144.38136562736335 173.6633856474863 a86.0,86.0 0 0,1 -40.68145358897372,12.25698825130547" fill="none" id="id54" stroke="none" /><text fill="#e1ed5e" style="font-size:6.75px; font-family:Arial;" text-anchor="middle"><textPath startOffset="21.466115282336833" xlink:href="#id54">June</textPath></text><path d="M 104.83641907484287 120.43548508189849 l 1.926260164010002 8.139092216023625 a29.36392852195595,29.36392852195595 0 0,0 -0.4928663399360814,0.11217477433441446 l -1.7858736746810586 -8.171043723935725" fill="#ff2803" stroke="none" /><path d="M 101.62511606390274 120.93702456842531 l 0.4536660406953845 5.84476226091136 a26.862342429699403,26.862342429699403 0 0,0 -0.4613124291837044,0.03181480601890757 l -0.3529908507327498 -5.851705411446553" fill="#ff0100" stroke="none" /><path d="M 101.26447882468166 120.96189622390904 l 0.64686525828361 10.723408055810507 a31.74290067876437,31.74290067876437 0 0,0 -0.5456936137237998,0.02820612669495123 l -0.46218357614633065 -10.73295398926766" fill="#ff4c07" stroke="none" /><line stroke="#e1ed5e" stroke-width="0.3" x1="102.19456741930631" x2="102.32365962044197" y1="184.97166512339345" y2="189.96999836594603" /><path d="M 102.22038585953345 185.97133177190398 a86.0,86.0 0 0,1 -42.740103519485714,-10.115201625700543" fill="none" id="id55" stroke="none" /><text fill="#e1ed5e" style="font-size:6.75px; font-family:Arial;" text-anchor="middle"><textPath startOffset="22.20632615414155" xlink:href="#id55">July</textPath></text><path d="M 99.81925306533755 120.99922214144158 l -0.08648887293963538 10.04829796430097 a31.04867017592464,31.04867017592464 0 0,0 -0.534392427466975,-0.009200050267693757 l 0.2594409902992783 -10.045320436754116" fill="#ff4206" stroke="none" /><line stroke="#e1ed5e" stroke-width="0.3" x1="58.666819895761336" x2="56.23545636021788" y1="174.27360380694188" y2="178.64263932499728" /><path d="M 58.180547188652646 175.14741091055294 a86.0,86.0 0 0,1 -31.652253787137756,-30.449443065178592" fill="none" id="id56" stroke="none" /><text fill="#e1ed5e" style="font-size:6.75px; font-family:Arial;" text-anchor="middle"><textPath startOffset="22.20632615414155" xlink:href="#id56">August</textPath></text><path d="M 83.72743513129214 113.27417163493432 l -4.501046894283952 3.6716811082749508 a26.808671561158057,26.808671561158057 0 0,0 -0.2886171638848612,-0.3600942888640359 l 4.563581970223674 -3.593658985832655" fill="#ff0000" stroke="none" /><line stroke="#e1ed5e" stroke-width="0.3" x1="26.63291911575756" x2="22.317208475507996" y1="142.92168965132927" y2="145.44649492493687" /><path d="M 25.769776987707644 143.4266507060508 a86.0,86.0 0 0,1 -11.730757126820373,-40.83630448921669" fill="none" id="id57" stroke="none" /><text fill="#e1ed5e" style="font-size:6.75px; font-family:Arial;" text-anchor="middle"><textPath startOffset="21.46611528233685" xlink:href="#id57">September</textPath></text><path d="M 81.18737489456691 109.33194174019688 l -6.476400597315738 3.212597536048939 a28.229422357667268,28.229422357667268 0 0,0 -0.21218678032406765,-0.43716761511590024 l 6.530740634254524 -3.100640964967754" fill="#ff1602" stroke="none" /><path d="M 79.23777060512086 103.15116336523772 l -21.106636787874958 3.203435399174171 a42.34835157223992,42.34835157223992 0 0,0 -0.10318064743220746,-0.7216452078234274 l 21.158651486323762 -2.8396447193703427" fill="#ffe415" stroke="none" /><path d="M 79.18660465613746 102.79330883721812 l -28.672837885401446 3.848103114854445 a49.92990718936141,49.92990718936141 0 0,0 -0.10698906985553384,-0.8528081542334006 l 28.734828464503828 -3.353977206333636" fill="#b8ff1f" stroke="none" /><path d="M 79.1416061653843 102.43462659150553 l -11.48006238865426 1.3399720700055107 a32.55799972295332,32.55799972295332 0 0,0 -0.06018221985592563,-0.5572126120239842 l 11.501426910011238 -1.1421631360967444" fill="#ff5908" stroke="none" /><path d="M 79.07016306316243 101.71520430193888 l -34.13500133694385 2.7973701523095587 a55.24943205430115,55.24943205430115 0 0,0 -0.06951810127217223,-0.9485192594701204 l 34.178095996880366 -2.2093777563426773" fill="#79ff26" stroke="none" /><path d="M 79.04373962182676 101.35467743843564 l -13.70546395767425 0.8859635484435895 a34.73406981576396,34.73406981576396 0 0,0 -0.033433442833515785,-0.596976581108989 l 13.718683751395297 -0.6499152509991629" fill="#ff790b" stroke="none" /><path d="M 79.0235259727143 100.99374915477108 l -26.93177026207197 1.2758781051386265 a47.96197534284527,47.96197534284527 0 0,0 -0.031969779002053715,-0.8249979415233035 l 26.949742173925227 -0.8121029166013262" fill="#d1ff1c" stroke="none" /><line stroke="#e1ed5e" stroke-width="0.3" x1="15.007084014347285" x2="10.007500721073583" y1="101.09737516637583" y2="101.16192664675087" /><path d="M 14.007167355692545 101.11028546245083 a86.0,86.0 0 0,1 10.666146001902534,-42.60595125391555" fill="none" id="id58" stroke="none" /><text fill="#e1ed5e" style="font-size:6.75px; font-family:Arial;" text-anchor="middle"><textPath startOffset="22.20632615414155" xlink:href="#id58">October</textPath></text><path d="M 79.00175016825051 100.2711162175752 l -29.856841030335605 0.38549278505342643 a50.85932954702868,50.85932954702868 0 0,0 -0.003767714134779619,-0.8754840750555537 l 29.85905304175989 0.12850076820580258" fill="#adff20" stroke="none" /><path d="M 79.00486145842228 99.54816195383935 l -52.82084862060318 -1.1367616836638998 a73.8330793738745,73.8330793738745 0 0,0 0.03828176797635028,-1.270385508824798 l 52.793455158171184 2.0458173399136923" fill="#3fffc1" stroke="none" /><path d="M 79.01574976396665 99.18683210126434 l -26.446870024932878 -1.0248517571231004 a47.466719767280786,47.466719767280786 0 0,0 0.03866591924808722,-0.8161764434763409 l 26.425310497451292 1.4799393072224505" fill="#d7ff1c" stroke="none" /><path d="M 79.05617556472873 98.46500227214037 l -42.758736734054125 -3.133838518164183 a63.873424296994045,63.873424296994045 0 0,0 0.08980456298023934,-1.0958431349756903 l 42.69845768725439 3.8693955703476517" fill="#32ff48" stroke="none" /><path d="M 79.12142395522702 97.74499172005258 l -26.594805664345174 -2.8723944989392636 a47.74947361130351,47.74947361130351 0 0,0 0.09529350396734174,-0.8164165472300143 l 26.541421807374245 3.3297547844941398" fill="#d4ff1c" stroke="none" /><path d="M 79.21141760316559 97.0276538004421 l -25.692718125025163 -3.6735382729540955 a46.95401025072725,46.95401025072725 0 0,0 0.12128468264250214,-0.7991145209695585 l 25.62567754894336 4.115251906315746" fill="#deff1b" stroke="none" /><path d="M 79.62865764111835 94.90015583598534 l -21.193504790833465 -5.305667629478798 a42.847534284526944,42.847534284526944 0 0,0 0.18527206111180058,-0.7139288286939801 l 21.099036397851357 5.669692883721642" fill="#ffeb16" stroke="none" /><path d="M 79.91906864156998 93.8553929516997 l -23.662341404693862 -7.240490352731203 a45.745324837235074,45.745324837235074 0 0,0 0.23688348663292844,-0.7509853868764952 l 23.53420243429273 7.646725906034113" fill="#edff19" stroke="none" /><path d="M 80.02781315780177 93.51064311812611 l -47.80916578103851 -15.53413962272368 a71.2695317911068,71.2695317911068 0 0,0 0.3891408279422384,-1.1634815447678124 l 47.5346876593245 16.354794270413816" fill="#3cffa3" stroke="none" /><path d="M 80.2630227832202 92.82701384747504 l -59.210931650339425 -21.518958457574875 a84.0,84.0 0 0,0 0.5055816459934896,-1.3547074518826343 l 58.83174541584431 22.534989046486853" fill="#4dd2ff" stroke="none" /><path d="M 80.65960295795068 91.81776055985345 l -23.35033460579601 -9.878702507335811 a46.35403102922842,46.35403102922842 0 0,0 0.31721451881622703,-0.7321748449644947 l 23.176829377137103 10.279176496886905" fill="#e5ff1a" stroke="none" /><path d="M 81.10775173730289 90.83032412892265 l -23.927258796706823 -11.613504364242495 a47.59675162764926,47.59675162764926 0 0,0 0.36409245547262886,-0.7339881730100314 l 23.723806328280784 12.023652125751488" fill="#d6ff1c" stroke="none" /><path d="M 81.26839172434947 90.50648371742162 l -13.311144265699848 -6.746327542544272 a35.923119545643445,35.923119545643445 0 0,0 0.2842896952355939,-0.5491572036025928 l 13.193045137304141 6.974457468407199" fill="#ff8a0c" stroke="none" /><line stroke="#e1ed5e" stroke-width="0.3" x1="26.266209847984243" x2="21.928928074336255" y1="57.711370442889674" y2="55.22380399835377" /><path d="M 25.398753493254645 57.213857153982495 a86.0,86.0 0 0,1 29.58750427330803,-30.492523968695096" fill="none" id="id59" stroke="none" /><text fill="#e1ed5e" style="font-size:6.75px; font-family:Arial;" text-anchor="middle"><textPath startOffset="21.46611528233685" xlink:href="#id59">November</textPath></text><path d="M 82.54541684631803 88.32363383020206 l -30.182235975538436 -20.190619046625248 a57.312924227732374,57.312924227732374 0 0,0 0.5555956749403625,-0.815268096069576 l 29.830215834929334 20.707165165965236" fill="#62ff29" stroke="none" /><path d="M 84.07557802195018 86.31012108654704 l -31.02714466439391 -26.673360833518856 a61.91640116359606,61.91640116359606 0 0,0 0.701743202614959,-0.8022137891672609 l 30.56340959820111 27.203490178889062" fill="#30ff2f" stroke="none" /><path d="M 86.10567301691215 84.25364557470407 l -24.067461032375707 -27.275504023625928 a57.37575841529297,57.37575841529297 0 0,0 0.7461750205029086,-0.647075624849368 l 23.594392213226026 27.685744641894978" fill="#61ff29" stroke="none" /><path d="M 88.09926311788651 82.69761687909137 l -15.264809290824514 -22.19338022794315 a47.936230779886415,47.936230779886415 0 0,0 0.6838795099761293,-0.4617584979082417 l 14.880525086441844 22.452850638150053" fill="#d1ff1c" stroke="none" /><line stroke="#e1ed5e" stroke-width="0.3" x1="56.762969772571076" x2="54.21961505331055" y1="26.818313649435495" y2="22.513508569990535" /><path d="M 56.25429882871897 25.957352633546506 a86.0,86.0 0 0,1 42.265352541879196,-11.944610805530505" fill="none" id="id60" stroke="none" /><text fill="#e1ed5e" style="font-size:6.75px; font-family:Arial;" text-anchor="middle"><textPath startOffset="22.20632615414155" xlink:href="#id60">December</textPath></text><path d="M 92.23578459929587 80.48803036053334 l -13.982363529138956 -35.13857338937336 a58.818326638038506,58.818326638038506 0 0,0 0.9439412515984269,-0.366234540612965 l 13.375439112540853 35.37405063387688" fill="#51ff2b" stroke="none" /></svg>