<?xml version="1.0" encoding="utf-8" ?>
<svg baseProfile="full" height="200mm" version="1.1" viewBox="0,0,200,200" width="200mm" xmlns="http://www.w3.org/2000/svg" xmlns:ev="http://www.w3.org/2001/xml-events" xmlns:xlink="http://www.w3.org/1999/xlink"><defs /><rect fill="#1a1a1a" height="200" width="200" x="0" y="0" /><text alignment-baseline="middle" fill="#e1ed5e" style="dominant-baseline: central; font-size:9.0px; font-family:Arial;" text-anchor="middle" x="100.0" y="100.0">2026</text><line stroke="#e1ed5e" stroke-width="0.3" x1="100.0" x2="100.0" y1="15.0" y2="10.0" /><path d="M 100.0 14.0 a86.0,86.0 0 0,1 42.46469731375804,11.215312516191453" fill="none" id="id97" stroke="none" /><text fill="#e1ed5e" style="font-size:6.75px; font-family:Arial;" text-anchor="middle"><textPath startOffset="22.20632615414155" xlink:href="#id97">January</textPath></text><path d="M 102.16513564639614 79.11191278185805 l 4.089537897737393 -39.45370555975163 a60.66508795669824,60.66508795669824 0 0,0 1.0377580727884368,0.11660421109496483 l -4.768062674035555 39.37746539518607" fill="#55ff2b" stroke="none" /><path d="M 103.59715602781102 79.31037775812273 l 6.1744485528115165 -35.513335290967 a57.04609269282814,57.04609269282814 0 0,0 0.9659937563612305,0.17652918449831376 l -6.784837430275648 35.40179062511795" fill="#81ff25" stroke="none" /><path d="M 104.307194497241 79.44645832069477 l 8.127231114381336 -38.78241011725465 a60.62483085250338,60.62483085250338 0 0,0 1.0195285767868212,0.2228294581921085 l -8.793602415321686 38.63676716096667" fill="#55ff2b" stroke="none" /><path d="M 109.41281617654863 81.2277094730956 l 17.73659881710955 -35.3726854651074 a60.57036535859269,60.57036535859269 0 0,0 0.927994277002121,0.4753547121737552 l -18.342853581700425 35.06213822762115" fill="#56ff2b" stroke="none" /><line stroke="#e1ed5e" stroke-width="0.3" x1="143.23703022742887" x2="145.7803849466894" y1="26.81831364943548" y2="22.513508569990506" /><path d="M 143.74570117128098 25.957352633546492 a86.0,86.0 0 0,1 28.547481713284135,27.462654790039103" fill="none" id="id98" stroke="none" /><text fill="#e1ed5e" style="font-size:6.75px; font-family:Arial;" text-anchor="middle"><textPath startOffset="19.985693538727396" xlink:href="#id98">February</textPath></text><path d="M 116.60985879189232 87.15038557335679 l 30.848486051247917 -23.864811638116112 a60.00202976995941,60.00202976995941 0 0,0 0.6249470260037677,0.8223570307539887 l -31.2547090174758 23.33026983148109" fill="#5dff2a" stroke="none" /><path d="M 117.04232023915458 87.72973835380427 l 30.874311660141846 -22.229125899521605 a59.04414749661704,59.04414749661704 0 0,0 0.5867508789039113,0.8299175072143926 l -31.252375158849638 21.694381891975418" fill="#68ff28" stroke="none" /><line stroke="#e1ed5e" stroke-width="0.3" x1="172.23445277983987" x2="176.4835382374775" y1="55.19839476539836" y2="52.563006222186495" /><path d="M 173.08426987136738 54.67131705675599 a86.0,86.0 0 0,1 12.851231095245387,41.99856678651699" fill="none" id="id99" stroke="none" /><text fill="#e1ed5e" style="font-size:6.75px; font-family:Arial;" text-anchor="middle"><textPath startOffset="22.20632615414155" xlink:href="#id99">March</textPath></text><path d="M 118.21658344932153 89.55222093294921 l 34.16893267367524 -19.59694914936357 a60.38980040595399,60.38980040595399 0 0,0 0.5094091278947561,0.9061819971267895 l -34.50119944286243 19.00588364230199" fill="#58ff2a" stroke="none" /><path d="M 118.3937258080291 89.86733742301442 l 33.94532229846101 -18.699664250034044 a59.75515899864682,59.75515899864682 0 0,0 0.4885465157133585,0.9052024962601003 l -34.262176913392835 18.112580770441483" fill="#60ff29" stroke="none" /><path d="M 118.56541770881063 90.18545643968196 l 35.28695949892089 -18.654328523348077 a60.914326792963465,60.914326792963465 0 0,0 0.4820660237329767,0.9311981193185143 l -35.60283495581398 18.044157681769217" fill="#52ff2b" stroke="none" /><path d="M 119.97218684219823 93.5106431181261 l 59.91656052659467 -19.46807064562169 a84.0,84.0 0 0,0 0.4349780649271753,1.3789993342943234 l -60.24279407529006 18.433821144900946" fill="#4dd2ff" stroke="none" /><path d="M 120.18372546131832 94.20196356495316 l 37.434802043869304 -10.75363151391892 a59.94874830852503,59.94874830852503 0 0,0 0.2763729487739327,0.9942605433353093 l -37.6143617632096 10.10765966716466" fill="#5dff2a" stroke="none" /><path d="M 120.67395015179393 96.31383870115 l 38.29156870130981 -6.827379266307073 a59.89546684709066,59.89546684709066 0 0,0 0.17223694029871436,1.0165521714171755 l -38.40341750312874 6.167241306574059" fill="#5eff2a" stroke="none" /><path d="M 120.73433829027371 96.67025291283417 l 38.07900507216625 -6.115143606039073 a59.56689783491204,59.56689783491204 0 0,0 0.15386443588796692,1.0137743884879868 l -38.17862540149351 5.4587701051590045" fill="#62ff29" stroke="none" /><path d="M 120.78858239683441 97.02765380044208 l 39.87525784507819 -5.701354178448363 a61.2807848443843,61.2807848443843 0 0,0 0.14031549124732914,1.0455133901726 l -39.96748933538335 5.0141224462111" fill="#4dff2c" stroke="none" /><path d="M 120.83666639777658 97.38593545837742 l 37.88394017793767 -4.75273073079795 a59.18090324763194,59.18090324763194 0 0,0 0.11810717923985777,1.0118701848882528 l -37.960137710181115 4.099916807584844" fill="#67ff28" stroke="none" /><path d="M 120.96714384426684 98.82574320788733 l 39.301572908358786 -2.201069409888682 a60.36315967523681,60.36315967523681 0 0,0 0.04917123131755279,1.0379269775176392 l -39.33363774790983 1.524231325748043" fill="#58ff2a" stroke="none" /><line stroke="#e1ed5e" stroke-width="0.3" x1="184.98032266829074" x2="189.97916517819016" y1="98.17113171792111" y2="98.06355123074" /><path d="M 185.9800911702706 98.14961562048488 a86.0,86.0 0 0,1 -9.607161424134198,41.387399972396054" fill="none" id="id100" stroke="none" /><text fill="#e1ed5e" style="font-size:6.75px; font-family:Arial;" text-anchor="middle"><textPath startOffset="21.466115282336823" xlink:href="#id100">April</textPath></text><path d="M 120.89721153311464 102.0752229133903 l 25.027521356599838 2.48538833529432 a46.15062584573748,46.15062584573748 0 0,0 -0.08530767045798095,0.7898430798227076 l -24.981031384640808 -2.915827737001819" fill="#ffe815" stroke="none" /><path d="M 120.8583938346157 102.4346265915055 l 25.420285449662742 2.967098205649051 a46.59286197564276,46.59286197564276 0 0,0 -0.09983849851304012,0.7958110651238567 l -25.365445441902853 -3.404227025060303" fill="#ffee16" stroke="none" /><path d="M 120.64145759157962 103.86396538481128 l 38.671891834788205 7.239161805886425 a60.343623139377534,60.343623139377534 0 0,0 -0.1999099955379886,1.019336760365681 l -38.54155190627455 -7.903762293320051" fill="#58ff2a" stroke="none" /><path d="M 120.5718875245553 104.21870165774334 l 40.40086266979858 8.285053382481225 a62.241627198917456,62.241627198917456 0 0,0 -0.2242653596838542,1.0476930986603818 l -40.252263271390284 -8.979260300557776" fill="#42ff2d" stroke="none" /><path d="M 120.49622156327973 104.57218783832717 l 38.5523342051079 8.600049186993317 a60.4999154262517,60.4999154262517 0 0,0 -0.2354870880091062,1.0144722118735372 l -38.398586551168236 -9.26239005621542" fill="#57ff2a" stroke="none" /><path d="M 120.13307415673323 105.97154293290107 l 10.226026079213538 3.033076483482147 a31.66635656292287,31.66635656292287 0 0,0 -0.15949774936342662,0.5212478733976944 l -10.172301557343978 -3.2086513294318983" fill="#ff0000" stroke="none" /><path d="M 119.9155931802556 106.66101706037122 l 40.60541964297548 13.580986041306609 a63.81639039242219,63.81639039242219 0 0,0 -0.3573996498216745,1.0387706774495058 l -40.365629162210574 -14.277929421845414" fill="#30ff2f" stroke="none" /><line stroke="#e1ed5e" stroke-width="0.3" x1="174.80103733775053" x2="179.2010983576182" y1="140.37084112569926" y2="142.7455964860345" /><path d="M 175.68104954172406 140.8457921977663 a86.0,86.0 0 0,1 -30.038265399797805,32.042727171017184" fill="none" id="id101" stroke="none" /><text fill="#e1ed5e" style="font-size:6.75px; font-family:Arial;" text-anchor="middle"><textPath startOffset="22.206326154141568" xlink:href="#id101">May</textPath></text><path d="M 116.0416608686014 113.55231037782055 l 30.584616727094964 25.83848530818685 a61.03805818673884,61.03805818673884 0 0,0 -0.6849559815695074,0.796758551033157 l -30.135318235954678 -26.361120958381534" fill="#50ff2b" stroke="none" /><path d="M 115.80600337817218 113.82643327865902 l 30.135318235954678 26.361120958381534 a61.03805818673884,61.03805818673884 0 0,0 -0.6985693866586893,0.7848501113942599 l -29.677089999647652 -26.87594523951666" fill="#50ff2b" stroke="none" /><path d="M 114.0293411484842 115.62618273729858 l 26.464403029671953 29.476622843393653 a60.61358254397835,60.61358254397835 0 0,0 -0.7823702412511,0.6903507732759419 l -25.953090435514266 -29.927796758441882" fill="#55ff2b" stroke="none" /><path d="M 112.34349029814194 116.9893568818739 l 23.630866110073317 32.52509687897987 a61.20323071718538,61.20323071718538 0 0,0 -0.8576399165441604,0.6119033087021528 l -23.06749886568027 -32.92704444952624" fill="#4eff2b" stroke="none" /><path d="M 112.04921762599082 117.19931262002967 l 23.64869562250454 33.75665721150389 a62.21617050067659,62.21617050067659 0 0,0 -0.8824122880359706,0.6069312179759677 l -23.064126449845688 -34.158729218844954" fill="#42ff2d" stroke="none" /><line stroke="#e1ed5e" stroke-width="0.3" x1="143.8653032363475" x2="146.44561519142675" y1="172.8068346515853" y2="177.08958963109032" /><path d="M 144.38136562736335 173.6633856474863 a86.0,86.0 0 0,1 -40.68145358897372,12.25698825130547" fill="none" id="id102" stroke="none" /><text fill="#e1ed5e" style="font-size:6.75px; font-family:Arial;" text-anchor="middle"><textPath startOffset="21.466115282336833" xlink:href="#id102">June</textPath></text><path d="M 110.5260780823613 118.17145234162733 l 20.29991191746317 35.04428516120838 a61.49923883626522,61.49923883626522 0 0,0 -0.9205886457898883,0.5227342589673039 l -19.69367450475208 -35.388522585970314" fill="#4bff2c" stroke="none" /><path d="M 109.89434966115114 118.52300852407294 l 18.95329175478007 35.482067721082295 a61.22691136671177,61.22691136671177 0 0,0 -0.9338827009981758,0.4885632911400103 l -18.3397181512554 -35.80306043116702" fill="#4eff2b" stroke="none" /><path d="M 108.92500713936063 119.00905698771935 l 18.264411176514642 38.90072326893142 a63.97505074424899,63.97505074424899 0 0,0 -1.0008500781851983,0.4594411822984022 l -17.592093102562025 -39.209351521563896" fill="#30ff31" stroke="none" /><path d="M 107.93186726928326 119.44442032107085 l 15.26200205036058 37.413735345456935 a61.406884303112314,61.406884303112314 0 0,0 -0.982156105873856,0.3908201839191617 l -14.615724868444858 -37.67090237378217" fill="#4cff2c" stroke="none" /><path d="M 103.41894727170886 120.7198165907248 l 6.879918139788522 41.69430841920208 a63.25811907983762,63.25811907983762 0 0,0 -1.075882450995228,0.1680307122053184 l -6.161199825184777 -41.8065574387545" fill="#36ff2e" stroke="none" /><path d="M 103.06178313531738 120.77559828337769 l 5.859354549355817 39.758399252101036 a61.187838294993234,61.187838294993234 0 0,0 -1.043315021929554,0.14459395533130528 l -5.174110936239432 -39.85336777292494" fill="#4eff2b" stroke="none" /><line stroke="#e1ed5e" stroke-width="0.3" x1="102.19456741930631" x2="102.32365962044197" y1="184.97166512339345" y2="189.96999836594603" /><path d="M 102.22038585953345 185.97133177190398 a86.0,86.0 0 0,1 -42.740103519485714,-10.115201625700543" fill="none" id="id103" stroke="none" /><text fill="#e1ed5e" style="font-size:6.75px; font-family:Arial;" text-anchor="middle"><textPath startOffset="22.20632615414155" xlink:href="#id103">July</textPath></text><line stroke="#e1ed5e" stroke-width="0.3" x1="58.666819895761336" x2="56.23545636021788" y1="174.27360380694188" y2="178.64263932499728" /><path d="M 58.180547188652646 175.14741091055294 a86.0,86.0 0 0,1 -31.652253787137756,-30.449443065178592" fill="none" id="id104" stroke="none" /><text fill="#e1ed5e" style="font-size:6.75px; font-family:Arial;" text-anchor="middle"><textPath startOffset="22.20632615414155" xlink:href="#id104">August</textPath></text><line stroke="#e1ed5e" stroke-width="0.3" x1="26.63291911575756" x2="22.317208475507996" y1="142.92168965132927" y2="145.44649492493687" /><path d="M 25.769776987707644 143.4266507060508 a86.0,86.0 0 0,1 -11.730757126820373,-40.83630448921669" fill="none" id="id105" stroke="none" /><text fill="#e1ed5e" style="font-size:6.75px; font-family:Arial;" text-anchor="middle"><textPath startOffset="21.46611528233685" xlink:href="#id105">September</textPath></text><line stroke="#e1ed5e" stroke-width="0.3" x1="15.007084014347285" x2="10.007500721073583" y1="101.09737516637583" y2="101.16192664675087" /><path d="M 14.007167355692545 101.11028546245083 a86.0,86.0 0 0,1 10.666146001902534,-42.60595125391555" fill="none" id="id106" stroke="none" /><text fill="#e1ed5e" style="font-size:6.75px; font-family:Arial;" text-anchor="middle"><textPath startOffset="22.20632615414155" xlink:href="#id106">October</textPath></text><line stroke="#e1ed5e" stroke-width="0.3" x1="26.266209847984243" x2="21.928928074336255" y1="57.711370442889674" y2="55.22380399835377" /><path d="M 25.398753493254645 57.213857153982495 a86.0,86.0 0 0,1 29.58750427330803,-30.492523968695096" fill="none" id="id107" stroke="none" /><text fill="#e1ed5e" style="font-size:6.75px; font-family:Arial;" text-anchor="middle"><textPath startOffset="21.46611528233685" xlink:href="#id107">November</textPath></text><line stroke="#e1ed5e" stroke-width="0.3" x1="56.762969772571076" x2="54.21961505331055" y1="26.818313649435495" y2="22.513508569990535" /><path d="M 56.25429882871897 25.957352633546506 a86.0,86.0 0 0,1 42.265352541879196,-11.944610805530505" fill="none" id="id108" stroke="none" /><text fill="#e1ed5e" style="font-size:6.75px; font-family:Arial;" text-anchor="middle"><textPath startOffset="22.20632615414155" xlink:href="#id108">December</textPath></text></svg>