<?xml version="1.0" encoding="utf-8" ?>
<svg baseProfile="full" height="200mm" version="1.1" viewBox="0,0,200,200" width="200mm" xmlns="http://www.w3.org/2000/svg" xmlns:ev="http://www.w3.org/2001/xml-events" xmlns:xlink="http://www.w3.org/1999/xlink"><defs /><rect fill="#1a1a1a" height="200" width="200" x="0" y="0" /><text alignment-baseline="middle" fill="#e1ed5e" style="dominant-baseline: central; font-size:9.0px; font-family:Arial;" text-anchor="middle" x="100.0" y="100.0">2025</text><line stroke="#e1ed5e" stroke-width="0.3" x1="100.0" x2="100.0" y1="15.0" y2="10.0" /><path d="M 100.0 14.0 a86.0,86.0 0 0,1 42.46469731375804,11.215312516191453" fill="none" id="id85" stroke="none" /><text fill="#e1ed5e" style="font-size:6.75px; font-family:Arial;" text-anchor="middle"><textPath startOffset="22.20632615414155" xlink:href="#id85">January</textPath></text><path d="M 100.36148047927253 79.00311137660856 l 0.18903522498286016 -10.980265304645743 a31.98189239050772,31.98189239050772 0 0,0 0.5503525745711156,0.014213983302918811 l -0.37801443474884355 10.975384529200465" fill="#ff5608" stroke="none" /><path d="M 101.44485096284872 79.0497635885617 l 2.8372923478214016 -41.1405376635009 a62.238259748793254,62.238259748793254 0 0,0 1.0681561624038096,0.08290947611041587 l -3.5450386995875522 41.08560292520202" fill="#30ff35" stroke="none" /><path d="M 101.80526077348638 79.07773832637324 l 0.490950268732768 -5.689920338393633 a26.71106168970659,26.71106168970659 0 0,0 0.45774475861275266,0.04346838041272412 l -0.5888201544357649 5.68062641346573" fill="#ff0500" stroke="none" /><path d="M 102.52436894288641 79.15227682838746 l 1.2554220284209898 -10.368013354711453 a31.44374383987465,31.44374383987465 0 0,0 0.5367675736746288,0.06968783639548158 l -1.433704330603465 10.344867195151833" fill="#ff4e07" stroke="none" /><path d="M 102.88285421437855 79.19881850522331 l 1.465200144924672 -10.572124663376755 a31.673173443857564,31.673173443857564 0 0,0 0.5393956815136574,0.07949290212464821 l -1.646964806866985 10.545337277091138" fill="#ff5107" stroke="none" /><path d="M 103.59715602781102 79.31037775812273 l 1.4896256835328545 -8.56782203379921 a29.696353205792413,29.696353205792413 0 0,0 0.5028651469252996,0.09189539136747013 l -1.6368859515610552 8.540911161081002" fill="#ff3404" stroke="none" /><path d="M 103.95276090670814 79.375362276772 l 5.263838025667183 -27.4655499979508 a48.96541484495438,48.96541484495438 0 0,0 0.8264279902585192,0.16577368021498057 l -5.735832425392827 27.37087236165861" fill="#c1ff1e" stroke="none" /><path d="M 104.307194497241 79.44645832069477 l 2.2966841895748673 -10.95956875057901 a32.19762945740352,32.19762945740352 0 0,0 0.5414679575186071,0.11834392321058722 l -2.4849948712470025 10.918411329272551" fill="#ff5908" stroke="none" /><path d="M 104.66035177308747 79.52364482259891 l 2.3420714494612196 -10.290443551270172 a31.55360256766661,31.55360256766661 0 0,0 0.5285623797287433,0.1250936381162204 l -2.518857516152486 10.248604001013083" fill="#ff5007" stroke="none" /><path d="M 105.01212808612495 79.60689891045804 l 2.5940983380877944 -10.554740169407227 a31.86884935176527,31.86884935176527 0 0,0 0.531589269321875,0.13551394107896936 l -2.775396496094695 10.508523232159389" fill="#ff5407" stroke="none" /><path d="M 105.36241919743992 79.69619591428918 l 1.4458569631672984 -5.474468786424732 a26.662182516616543,26.662182516616543 0 0,0 0.44272187244985056,0.12101261165616374 l -1.5398767248408598 5.448769633942275" fill="#ff0500" stroke="none" /><line stroke="#e1ed5e" stroke-width="0.3" x1="143.23703022742887" x2="145.7803849466894" y1="26.81831364943548" y2="22.513508569990506" /><path d="M 143.74570117128098 25.957352633546492 a86.0,86.0 0 0,1 28.547481713284135,27.462654790039103" fill="none" id="id86" stroke="none" /><text fill="#e1ed5e" style="font-size:6.75px; font-family:Arial;" text-anchor="middle"><textPath startOffset="19.985693538727396" xlink:href="#id86">February</textPath></text><path d="M 110.99172775467656 82.1063720568725 l 5.471085335658753 -8.906476545484573 a31.452659910536028,31.452659910536028 0 0,0 0.4588806001684268,0.2873509897276817 l -5.623585088199444 8.810981214433946" fill="#ff4e07" stroke="none" /><path d="M 113.06298171725822 83.55741782278167 l 7.927122671657215 -9.977994976859822 a33.74361242386717,33.74361242386717 0 0,0 0.4516768939288607,0.36522463620130335 l -8.097702964150567 9.840064243394389" fill="#ff700a" stroke="none" /><path d="M 113.6212207817346 84.01681056812373 l 6.763380703706801 -7.936175231239168 a31.427185422932094,31.427185422932094 0 0,0 0.4087123442895605,0.35443131744958734 l -6.898986846643125 7.81857892036991" fill="#ff4e07" stroke="none" /><path d="M 115.19652480421416 85.50635884689758 l 3.9161708263684143 -3.7350364891249543 a26.411736460360384,26.411736460360384 0 0,0 0.31094496840501257,0.3316944122835231 l -3.9798831167438897 3.6670726599633765" fill="#ff0100" stroke="none" /><path d="M 115.68641384162765 86.03803664274999 l 4.4504634362825595 -3.9612117879525854 a26.958005003917208,26.958005003917208 0 0,0 0.3055345015543513,0.34927875225566496 l -4.517989801414759 3.884017479493973" fill="#ff0901" stroke="none" /><path d="M 117.2510076193507 88.02491185347247 l 4.6758082518521125 -3.2457939389802055 a26.69195582400364,26.69195582400364 0 0,0 0.2587537699627669,0.3796892288821597 l -4.730986487483612 3.1648266868276393" fill="#ff0500" stroke="none" /><line stroke="#e1ed5e" stroke-width="0.3" x1="172.23445277983987" x2="176.4835382374775" y1="55.19839476539836" y2="52.563006222186495" /><path d="M 173.08426987136738 54.67131705675599 a86.0,86.0 0 0,1 12.851231095245387,41.99856678651699" fill="none" id="id87" stroke="none" /><text fill="#e1ed5e" style="font-size:6.75px; font-family:Arial;" text-anchor="middle"><textPath startOffset="22.20632615414155" xlink:href="#id87">March</textPath></text><path d="M 117.84615892207809 88.93136811851018 l 33.524701164548404 -20.792853955159668 a60.449313856807095,60.449313856807095 0 0,0 0.5408319561015097,0.8889855336429411 l -33.87764891893614 20.212700648309646" fill="#3eff2e" stroke="none" /><path d="M 118.03404312379186 89.2402003453031 l 6.626687058336297 -3.95373486869423 a28.716540726326166,28.716540726326166 0 0,0 0.24961555677474676,0.4266739005995994 l -6.693762289581371 3.8390815557407354" fill="#ff2503" stroke="none" /><path d="M 118.21658344932153 89.55222093294921 l 9.32383935970265 -5.347512828508671 a31.74848239783669,31.74848239783669 0 0,0 0.26780957415897444,0.47640334943348933 l -9.414506575154057 5.186225969140388" fill="#ff5207" stroke="none" /><path d="M 118.3937258080291 89.86733742301442 l 4.9466287861957605 -2.7249792079778796 a26.64753468624428,26.64753468624428 0 0,0 0.21786504197253193,0.40367083480962995 l -4.992801927386757 2.6394273898357907" fill="#ff0400" stroke="none" /><path d="M 119.04729006885535 91.15688171328212 l 29.55985958248282 -13.723807107557507 a53.590308069448305,53.590308069448305 0 0,0 0.3812508504188584,0.840035712182666 l -29.791712749865027 13.212949386532777" fill="#8aff24" stroke="none" /><path d="M 119.196687751892 91.48605970444005 l 31.92727088413815 -14.160092700415495 a55.92647779827642,55.92647779827642 0 0,0 0.3827216393042562,0.8833743107593647 l -32.166283233285085 13.608419245069529" fill="#6fff27" stroke="none" /><path d="M 120.08093135843002 93.85539295169968 l 23.14618004818506 -7.082549037527587 a45.20553969016149,45.20553969016149 0 0,0 0.22127918562054694,0.7460434101368262 l -23.264665130917308 6.683076240644231" fill="#f0ff19" stroke="none" /><path d="M 120.37134235888165 94.90015583598534 l 5.413446508722499 -1.355224074012839 a26.580504940736436,26.580504940736436 0 0,0 0.10729309387998483,0.4447991421964241 l -5.435972402863303 1.2618397001570087" fill="#ff0300" stroke="none" /><path d="M 120.45610955862082 95.25157060432595 l 10.670325287218123 -2.476877927840291 a31.954029669690918,31.954029669690918 0 0,0 0.11976007109086201,0.5368609161102434 l -10.711379745311023 2.292838842180083" fill="#ff5607" stroke="none" /><path d="M 120.6074358757038 95.95851677861258 l 32.058731082430654 -6.287285063027775 a53.669438196568024,53.669438196568024 0 0,0 0.16998970618139378,0.9080918076908913 l -32.16220651252191 5.734515177874321" fill="#89ff24" stroke="none" /><path d="M 120.67395015179393 96.31383870115 l 9.371696122538548 -1.6709715994205643 a30.519497586494477,30.519497586494477 0 0,0 0.08776264983744989,0.5179801272993866 l -9.39907063389622 1.5094056838053398" fill="#ff4006" stroke="none" /><path d="M 120.73433829027371 96.67025291283417 l 7.085066289842827 -1.1377975274980208 a28.1758447269327,28.1758447269327 0 0,0 0.07277969160978465,0.47952723402421993 l -7.103601874891912 1.0156711810817187" fill="#ff1c02" stroke="none" /><path d="M 120.83666639777658 97.38593545837742 l 6.322721569194665 -0.7932172039932304 a27.37228385857616,27.37228385857616 0 0,0 0.054626797809451816,0.46800904360815865 l -6.335438720007706 0.684264422060219" fill="#ff1001" stroke="none" /><path d="M 120.87857604477298 97.74499172005257 l 5.543489093138189 -0.5987292322052034 a26.575728474310697,26.575728474310697 0 0,0 0.04520768610433418,0.45523522959830726 l -5.552973904924752 0.5032184719024612" fill="#ff0300" stroke="none" /><path d="M 120.98425023603335 99.18683210126433 l 10.648304493146496 -0.4126361100536653 a31.65629659581996,31.65629659581996 0 0,0 0.01641349665419099,0.5446840467637205 l -10.653829684256332 0.22928191586494578" fill="#ff5107" stroke="none" /><line stroke="#e1ed5e" stroke-width="0.3" x1="184.98032266829074" x2="189.97916517819016" y1="98.17113171792111" y2="98.06355123074" /><path d="M 185.9800911702706 98.14961562048488 a86.0,86.0 0 0,1 -9.607161424134198,41.387399972396054" fill="none" id="id88" stroke="none" /><text fill="#e1ed5e" style="font-size:6.75px; font-family:Arial;" text-anchor="middle"><textPath startOffset="21.466115282336823" xlink:href="#id88">April</textPath></text><path d="M 120.8583938346157 102.4346265915055 l 10.655603451513095 1.243739844845519 a31.727943592206017,31.727943592206017 0 0,0 -0.06798617030240033,0.5419166694997768 l -10.632615771963847 -1.4269742686326907" fill="#ff5207" stroke="none" /><path d="M 120.81339534386255 102.79330883721812 l 10.390549393302638 1.3944872023209884 a31.48370694230332,31.48370694230332 0 0,0 -0.0767092258675317,0.5365041470545269 l -10.365006116418506 -1.5731368213559247" fill="#ff4f07" stroke="none" /><path d="M 120.64145759157962 103.86396538481128 l 8.693105862900744 1.6273007849237815 a29.84410523389522,29.84410523389522 0 0,0 -0.09886935244778208,0.5041326980792394 l -8.663806577477297 -1.776697210070966" fill="#ff3605" stroke="none" /><path d="M 120.5718875245553 104.21870165774334 l 10.78717848548075 2.212139634963061 a32.01166569789481,32.01166569789481 0 0,0 -0.11534254557442773,0.5388419734131082 l -10.747501901181879 -2.397495427792338" fill="#ff5608" stroke="none" /><path d="M 120.49622156327973 104.57218783832717 l 5.2370024228872865 1.168242581360134 a26.36572316712578,26.36572316712578 0 0,0 -0.10262472811964636,0.44210464280076417 l -5.216117128837087 -1.2582158815094633" fill="#ff0000" stroke="none" /><path d="M 120.23288151984713 105.62410040840565 l 39.570932676032484 10.999466309628676 a62.071242639439966,62.071242639439966 0 0,0 -0.295007954906934,1.026961392438793 l -39.37573208423945 -11.67898517757205" fill="#30ff33" stroke="none" /><path d="M 120.13307415673323 105.97154293290107 l 13.478052378563243 3.997639297601398 a35.058414415325124,35.058414415325124 0 0,0 -0.17658293540602196,0.5770832499271447 l -13.407242670651089 -4.2290495200806" fill="#ff830c" stroke="none" /><path d="M 120.02730092923936 106.31721596034902 l 23.881527636413097 7.532955542801387 a46.04142131466552,46.04142131466552 0 0,0 -0.24491350167018439,0.7537662521222758 l -23.748321883726664 -7.942920694901458" fill="#e6ff1a" stroke="none" /><path d="M 119.9155931802556 106.66101706037122 l 30.940161731907626 10.348320699340398 a53.62485784326114,53.62485784326114 0 0,0 -0.30032261770158647,0.8728781049420231 l -30.757448283262807 -10.879371507371722" fill="#89ff24" stroke="none" /><path d="M 119.12269723197855 108.67885076344098 l 29.014170806373755 13.168103610007861 a52.86253380171347,52.86253380171347 0 0,0 -0.38319140298967613,0.8253601917322073 l -28.78320478654425 -13.6655838690189" fill="#92ff23" stroke="none" /><path d="M 118.97047184881838 109.00673069616215 l 9.627865644013509 4.571082560598659 a31.657888751295204,31.657888751295204 0 0,0 -0.23795688770693413,0.4902616691782798 l -9.54775549969186 -4.736133185742214" fill="#ff5107" stroke="none" /><path d="M 118.81262510543309 109.33194174019688 l 9.313839768895706 4.620100045248979 a31.3967752533549,31.3967752533549 0 0,0 -0.24432870363451464,0.48208371174101716 l -9.232932395474924 -4.77973796869269" fill="#ff4d07" stroke="none" /><line stroke="#e1ed5e" stroke-width="0.3" x1="174.80103733775053" x2="179.2010983576182" y1="140.37084112569926" y2="142.7455964860345" /><path d="M 175.68104954172406 140.8457921977663 a86.0,86.0 0 0,1 -30.038265399797805,32.042727171017184" fill="none" id="id89" stroke="none" /><text fill="#e1ed5e" style="font-size:6.75px; font-family:Arial;" text-anchor="middle"><textPath startOffset="22.206326154141568" xlink:href="#id89">May</textPath></text><path d="M 118.48025628344425 109.97397251340804 l 17.616234596659847 9.507651677657716 a41.0181707902651,41.0181707902651 0 0,0 -0.3406922203318691,0.618455340647235 l -17.44996596687647 -9.809477536702754" fill="#ffd614" stroke="none" /><path d="M 118.12598468904814 110.60418214915192 l 29.236894017849263 17.104359016040025 a54.872630089211256,54.872630089211256 0 0,0 -0.4839743092028008,0.8111687803741477 l -28.938138832948237 -17.605089890300277" fill="#7bff26" stroke="none" /><path d="M 117.94076556474637 110.91462005526583 l 21.92120431459874 13.336198802901064 a46.659177639060886,46.659177639060886 0 0,0 -0.42334396305976163,0.6825652641047095 l -21.688395711871014 -13.711560398371047" fill="#deff1b" stroke="none" /><path d="M 117.75023020441432 111.22182372390056 l 27.192451905838578 17.191264473408136 a53.170934317268575,53.170934317268575 0 0,0 -0.49574334995330877,0.7694046881434803 l -26.89250369250822 -17.65679076147307" fill="#8fff24" stroke="none" /><path d="M 117.55443506779139 111.5257021239791 l 4.970200079645187 3.263280498252739 a26.945745406757815,26.945745406757815 0 0,0 -0.2579052928167451,0.3855334197113885 l -4.9132916814177205 -3.3483508321699347" fill="#ff0901" stroke="none" /><path d="M 117.14729908036423 112.12312394758627 l 8.56996604951561 6.058957749436835 a31.495488892820138,31.495488892820138 0 0,0 -0.31678493824635073,0.4399865724305042 l -8.464401318893657 -6.205577927318471" fill="#ff4f07" stroke="none" /><path d="M 116.93607887273984 112.41649034213515 l 5.202936004878199 3.8144723545956367 a27.451413985695872,27.451413985695872 0 0,0 -0.2826694756045481,0.37868195575780744 l -5.136505262578559 -3.903467189862759" fill="#ff1101" stroke="none" /><path d="M 116.27256486870786 113.27417163493432 l 8.13031937765307 6.632221517416452 a31.492304581869647,31.492304581869647 0 0,0 -0.34627138573926636,0.4171061908091176 l -8.01495199202026 -6.77118896533934" fill="#ff4f07" stroke="none" /><path d="M 116.0416608686014 113.55231037782055 l 8.338469022350669 7.044502510829518 a31.915817938285024,31.915817938285024 0 0,0 -0.35815245525391287,0.41661221885120153 l -8.215974057525978 -7.186991828842247" fill="#ff5507" stroke="none" /><path d="M 115.80600337817218 113.82643327865902 l 7.845680010884271 6.86307402325411 a31.423841896434077,31.423841896434077 0 0,0 -0.3596401099932242,0.40405947609601695 l -7.726381051242708 -6.997107669090994" fill="#ff4e07" stroke="none" /><path d="M 115.56566222782051 114.09645910891815 l 7.849115682269017 7.10825769163345 a31.589426065859637,31.589426065859637 0 0,0 -0.36847349448504224,0.3999052038645139 l -7.725595779788253 -7.242314150299299" fill="#ff5007" stroke="none" /><path d="M 115.07121518719521 114.62390073753431 l 39.98395026965846 38.79722454860736 a76.71302282089513,76.71302282089513 0 0,0 -0.927713872652141,0.9397692550549277 l -39.31019577195078 -39.47973429764295" fill="#43ffe1" stroke="none" /><path d="M 114.55890576462653 115.13401014063108 l 4.014452048980534 4.173030514831902 a26.790510247921354,26.790510247921354 0 0,0 -0.3350908105007038,0.3168492766422429 l -3.9420254040890224 -4.241514428220067" fill="#ff0701" stroke="none" /><path d="M 114.29624159901734 115.38237550388516 l 7.634971252001172 8.215025882587408 a32.215143167631226,32.215143167631226 0 0,0 -0.4094398202585835,0.3740135680817768 l -7.492431882275725 -8.345232217255766" fill="#ff5908" stroke="none" /><path d="M 114.0293411484842 115.62618273729858 l 3.9812851413057975 4.434441253433892 a26.95943794384493,26.95943794384493 0 0,0 -0.3479791340961651,0.3070511269997036 l -3.9043636543030447 -4.502315522205885" fill="#ff0901" stroke="none" /><path d="M 113.75828350139079 115.86535959552629 l 6.888703599523728 7.943706040247841 a31.51459475852309,31.51459475852309 0 0,0 -0.41289300046446353,0.3518763725181631 l -6.750945122482218 -8.061106802988952" fill="#ff4f07" stroke="none" /><path d="M 113.20401910651253 116.32954008644616 l 27.177541310389614 33.61073220957116 a64.22383684197226,64.22383684197226 0 0,0 -0.8656226574792184,0.6877029913441758 l -26.594961160193044 -34.07356911492047" fill="#33ff4f" stroke="none" /><path d="M 112.34349029814194 116.9893568818739 l 6.373107907479082 8.771830501066079 a31.842578786423715,31.842578786423715 0 0,0 -0.4462095594125394,0.3183586730422474 l -6.221171020217658 -8.880233435952544" fill="#ff5407" stroke="none" /><path d="M 112.04921762599082 117.19931262002967 l 6.096473539415937 8.702237567522658 a31.625249564052666,31.625249564052666 0 0,0 -0.4485410883207737,0.3085106505630348 l -5.945775566472281 -8.805889007450787" fill="#ff5107" stroke="none" /><line stroke="#e1ed5e" stroke-width="0.3" x1="143.8653032363475" x2="146.44561519142675" y1="172.8068346515853" y2="177.08958963109032" /><path d="M 144.38136562736335 173.6633856474863 a86.0,86.0 0 0,1 -40.68145358897372,12.25698825130547" fill="none" id="id90" stroke="none" /><text fill="#e1ed5e" style="font-size:6.75px; font-family:Arial;" text-anchor="middle"><textPath startOffset="21.466115282336833" xlink:href="#id90">June</textPath></text><path d="M 110.8373102113329 117.98757091392108 l 10.830846552383035 17.976842650038524 a41.98747504359473,41.98747504359473 0 0,0 -0.6222786308552696,0.36765318365698857 l -10.519800050499384 -18.16061440598926" fill="#ffe315" stroke="none" /><path d="M 110.5260780823613 118.17145234162733 l 5.473140293915083 9.448429627039934 a31.919161464783038,31.919161464783038 0 0,0 -0.4778013221569473,0.2713080605692315 l -5.3096902048369365 -9.541240853403792" fill="#ff5507" stroke="none" /><path d="M 110.21172684928248 118.3499491758327 l 5.088185361279122 9.143208015130973 a31.463645783315222,31.463645783315222 0 0,0 -0.475516353669973,0.2592894301200942 l -4.930046195740501 -9.229438097010839" fill="#ff4e07" stroke="none" /><path d="M 109.57404056367764 118.69057910512821 l 4.94204284468216 9.64792681993643 a31.84003133766332,31.84003133766332 0 0,0 -0.4899515098106833,0.24567185824557475 l -4.775237427188716 -9.731566519091308" fill="#ff5407" stroke="none" /><path d="M 108.92500713936063 119.00905698771935 l 26.775021418081884 57.02717096315804 a84.0,84.0 0 0,0 -1.3141280169303222,0.6032517186637025 l -25.789425405384144 -57.479609752155824" fill="#4dd2ff" stroke="none" /><line stroke="#e1ed5e" stroke-width="0.3" x1="102.19456741930631" x2="102.32365962044197" y1="184.97166512339345" y2="189.96999836594603" /><path d="M 102.22038585953345 185.97133177190398 a86.0,86.0 0 0,1 -42.740103519485714,-10.115201625700543" fill="none" id="id91" stroke="none" /><text fill="#e1ed5e" style="font-size:6.75px; font-family:Arial;" text-anchor="middle"><textPath startOffset="22.20632615414155" xlink:href="#id91">July</textPath></text><line stroke="#e1ed5e" stroke-width="0.3" x1="58.666819895761336" x2="56.23545636021788" y1="174.27360380694188" y2="178.64263932499728" /><path d="M 58.180547188652646 175.14741091055294 a86.0,86.0 0 0,1 -31.652253787137756,-30.449443065178592" fill="none" id="id92" stroke="none" /><text fill="#e1ed5e" style="font-size:6.75px; font-family:Arial;" text-anchor="middle"><textPath startOffset="22.20632615414155" xlink:href="#id92">August</textPath></text><line stroke="#e1ed5e" stroke-width="0.3" x1="26.63291911575756" x2="22.317208475507996" y1="142.92168965132927" y2="145.44649492493687" /><path d="M 25.769776987707644 143.4266507060508 a86.0,86.0 0 0,1 -11.730757126820373,-40.83630448921669" fill="none" id="id93" stroke="none" /><text fill="#e1ed5e" style="font-size:6.75px; font-family:Arial;" text-anchor="middle"><textPath startOffset="21.46611528233685" xlink:href="#id93">September</textPath></text><line stroke="#e1ed5e" stroke-width="0.3" x1="15.007084014347285" x2="10.007500721073583" y1="101.09737516637583" y2="101.16192664675087" /><path d="M 14.007167355692545 101.11028546245083 a86.0,86.0 0 0,1 10.666146001902534,-42.60595125391555" fill="none" id="id94" stroke="none" /><text fill="#e1ed5e" style="font-size:6.75px; font-family:Arial;" text-anchor="middle"><textPath startOffset="22.20632615414155" xlink:href="#id94">October</textPath></text><line stroke="#e1ed5e" stroke-width="0.3" x1="26.266209847984243" x2="21.928928074336255" y1="57.711370442889674" y2="55.22380399835377" /><path d="M 25.398753493254645 57.213857153982495 a86.0,86.0 0 0,1 29.58750427330803,-30.492523968695096" fill="none" id="id95" stroke="none" /><text fill="#e1ed5e" style="font-size:6.75px; font-family:Arial;" text-anchor="middle"><textPath startOffset="21.46611528233685" xlink:href="#id95">November</textPath></text><line stroke="#e1ed5e" stroke-width="0.3" x1="56.762969772571076" x2="54.21961505331055" y1="26.818313649435495" y2="22.513508569990535" /><path d="M 56.25429882871897 25.957352633546506 a86.0,86.0 0 0,1 42.265352541879196,-11.944610805530505" fill="none" id="id96" stroke="none" /><text fill="#e1ed5e" style="font-size:6.75px; font-family:Arial;" text-anchor="middle"><textPath startOffset="22.20632615414155" xlink:href="#id96">December</textPath></text></svg>